<?xml version="1.0" encoding="UTF-8"?>
<svg id="Layer_1" xmlns="http://www.w3.org/2000/svg" viewBox="0 0 484.3 81.24">
  <defs>
    <style>
      .cls-1 {
        fill: #003268;
      }
    </style>
  </defs>
  <path class="cls-1" d="M40.73,10.47c-.02-.06-.05-.11-.07-.16-.07-.17-.15-.34-.23-.51-.07-.15-.14-.29-.21-.43-.08-.15-.17-.29-.25-.44-.09-.15-.18-.3-.27-.44-.09-.13-.18-.26-.28-.38-.11-.14-.21-.29-.32-.43-.1-.12-.21-.24-.32-.36-.11-.13-.23-.25-.35-.37-.12-.12-.26-.24-.39-.36-.12-.11-.23-.21-.35-.31-.14-.12-.29-.22-.44-.33-.12-.09-.24-.18-.37-.27-.15-.1-.3-.19-.46-.28-.14-.08-.28-.17-.42-.25-.15-.08-.3-.15-.45-.22-.16-.08-.33-.15-.49-.22-.06-.02-.11-.05-.17-.08-.09-.04-.19-.06-.28-.09-.17-.06-.34-.12-.52-.17-.16-.05-.32-.09-.48-.13-.17-.04-.33-.08-.5-.11-.17-.03-.34-.06-.51-.09-.16-.02-.32-.04-.49-.06-.17-.02-.35-.03-.52-.04-.16,0-.33-.01-.49-.01-.17,0-.35,0-.52.01-.16,0-.33.02-.49.04-.17.02-.34.04-.51.06-.16.02-.32.05-.49.08-.18.03-.35.07-.52.12-.15.04-.31.08-.46.13-.18.06-.36.12-.54.18-.09.03-.18.05-.27.09-.06.02-.11.05-.16.07-.17.07-.34.15-.51.23-.14.07-.29.14-.43.21-.15.08-.3.17-.44.26-.15.09-.3.18-.44.27-.13.09-.26.19-.39.28-.14.11-.29.21-.42.32-.12.1-.24.21-.36.32-.13.12-.26.23-.38.35-.12.12-.24.25-.35.38-.11.12-.22.24-.32.36-.11.14-.22.28-.33.43-.09.13-.19.25-.28.38-.1.14-.19.29-.27.44-.09.14-.17.29-.25.44-.08.14-.14.29-.21.43-.08.17-.16.34-.23.51-.02.06-.05.11-.07.16L.72,63.18c-2.09,5.33.53,11.34,5.85,13.44,1.25.49,2.53.72,3.79.72,4.13,0,8.04-2.49,9.65-6.57l11.08-28.18,11.08,28.18c1.6,4.08,5.51,6.57,9.65,6.57,1.26,0,2.54-.23,3.79-.72,5.33-2.09,7.95-8.11,5.85-13.44L40.73,10.47Z"/>
  <path class="cls-1" d="M69.79,10.47c-2.09-5.33-8.11-7.95-13.44-5.85-5.33,2.09-7.95,8.11-5.85,13.44l20.72,52.71c1.6,4.08,5.51,6.57,9.65,6.57,1.26,0,2.54-.23,3.79-.72,5.33-2.09,7.95-8.11,5.85-13.44l-20.72-52.71Z"/>
  <path class="cls-1" d="M98.79,10.32c-2.18-5.29-8.24-7.81-13.53-5.64-5.29,2.18-7.82,8.24-5.64,13.53l6.31,15.32c1.65,4,5.51,6.42,9.59,6.42,1.31,0,2.65-.25,3.94-.78,5.29-2.18,7.82-8.24,5.64-13.53l-6.31-15.32Z"/>
  <path class="cls-1" d="M159.94,23.86c-2.04-2.07-4.27-3.63-6.67-4.66-2.41-1.04-4.98-1.55-7.72-1.55-5.96,0-11.02,2.25-15.19,6.76-4.17,4.51-6.25,10.29-6.25,17.35s2.15,12.5,6.46,17.07c4.31,4.58,9.41,6.87,15.31,6.87,2.63,0,5.07-.47,7.32-1.41,2.25-.94,4.5-2.47,6.73-4.6v4.83h11.47V18.82h-11.47v5.04ZM156.89,51.43c-2.37,2.51-5.36,3.76-8.96,3.76s-6.43-1.27-8.81-3.82c-2.39-2.55-3.58-5.8-3.58-9.74s1.17-7.13,3.52-9.64c2.34-2.51,5.29-3.76,8.83-3.76s6.63,1.23,9,3.7c2.37,2.46,3.56,5.68,3.56,9.66s-1.19,7.34-3.56,9.85Z"/>
  <rect class="cls-1" x="181.74" y="18.82" width="11.47" height="45.7"/>
  <path class="cls-1" d="M187.48,0c-2.01,0-3.73.71-5.15,2.14s-2.14,3.15-2.14,5.17.72,3.89,2.16,5.36,3.18,2.21,5.21,2.21,3.69-.72,5.11-2.16c1.42-1.44,2.14-3.19,2.14-5.23s-.72-3.84-2.16-5.29c-1.44-1.46-3.16-2.18-5.17-2.18Z"/>
  <path class="cls-1" d="M215.01,19.41c-1.76,1.18-3.18,2.9-4.24,5.17v-5.75h-9.83v45.7h11.38v-18.48l-.04-2.23c0-6.38.61-10.67,1.83-12.85,1.22-2.18,2.71-3.28,4.47-3.28.87,0,1.97.34,3.32,1.01l3.57-9.87c-1.62-.78-3.18-1.18-4.66-1.18-2.1,0-4.03.59-5.8,1.76Z"/>
  <path class="cls-1" d="M256.97,17.64c-2.74,0-5.32.52-7.73,1.55-2.41,1.04-4.65,2.59-6.72,4.66v-5.04h-11.38v62.42h11.38v-21.55c2.24,2.13,4.49,3.66,6.76,4.6,2.27.94,4.72,1.41,7.35,1.41,5.91,0,11.02-2.29,15.33-6.87s6.47-10.27,6.47-17.07-2.09-12.84-6.26-17.35-9.24-6.76-15.21-6.76ZM263.42,51.37c-2.39,2.55-5.34,3.82-8.84,3.82s-6.61-1.25-8.99-3.76c-2.38-2.51-3.57-5.79-3.57-9.85s1.19-7.2,3.57-9.66,5.38-3.7,8.99-3.7,6.55,1.25,8.9,3.76c2.35,2.51,3.53,5.72,3.53,9.64s-1.2,7.2-3.59,9.74Z"/>
  <path class="cls-1" d="M318.99,23.86c-2.04-2.07-4.27-3.63-6.67-4.66-2.41-1.04-4.98-1.55-7.72-1.55-5.96,0-11.02,2.25-15.19,6.76-4.17,4.51-6.25,10.29-6.25,17.35s2.15,12.5,6.46,17.07c4.31,4.58,9.41,6.87,15.31,6.87,2.63,0,5.07-.47,7.32-1.41,2.25-.94,4.5-2.47,6.73-4.6v4.83h11.47V18.82h-11.47v5.04ZM315.94,51.43c-2.37,2.51-5.36,3.76-8.96,3.76s-6.43-1.27-8.81-3.82c-2.39-2.55-3.58-5.8-3.58-9.74s1.17-7.13,3.52-9.64c2.34-2.51,5.29-3.76,8.83-3.76s6.63,1.23,9,3.7c2.37,2.46,3.56,5.68,3.56,9.66s-1.19,7.34-3.56,9.85Z"/>
  <path class="cls-1" d="M363.11,17.64c-2.21,0-4.37.43-6.48,1.29-2.11.86-4.47,2.38-7.07,4.57v-4.68h-11.47v45.7h11.47v-18.33c0-4.75.17-7.84.5-9.27.64-2.74,1.79-4.89,3.46-6.44s3.65-2.33,5.97-2.33c1.79,0,3.29.47,4.5,1.41s2.07,2.3,2.56,4.09c.49,1.79.73,5.41.73,10.87v20.01h11.34v-30.2c0-5.26-1.33-9.24-3.99-11.93-3.16-3.16-7-4.75-11.53-4.75Z"/>
  <path class="cls-1" d="M419.49,23.86c-2.04-2.07-4.27-3.63-6.67-4.66-2.41-1.04-4.98-1.55-7.72-1.55-5.96,0-11.02,2.25-15.19,6.76-4.17,4.51-6.25,10.29-6.25,17.35s2.15,12.5,6.46,17.07c4.31,4.58,9.41,6.87,15.31,6.87,2.63,0,5.07-.47,7.32-1.41,2.25-.94,4.5-2.47,6.73-4.6v4.83h11.47V1.18h-11.47v22.68ZM416.43,51.43c-2.37,2.51-5.36,3.76-8.96,3.76s-6.43-1.27-8.81-3.82c-2.39-2.55-3.58-5.8-3.58-9.74s1.17-7.13,3.52-9.64c2.34-2.51,5.29-3.76,8.83-3.76s6.63,1.23,9,3.7c2.37,2.46,3.56,5.68,3.56,9.66s-1.19,7.34-3.56,9.85Z"/>
  <path class="cls-1" d="M472.84,18.82v5.04c-2.04-2.07-4.27-3.63-6.67-4.66-2.41-1.04-4.98-1.55-7.72-1.55-5.96,0-11.02,2.25-15.19,6.76-4.17,4.51-6.25,10.29-6.25,17.35s2.15,12.5,6.46,17.07c4.31,4.58,9.41,6.87,15.31,6.87,2.63,0,5.07-.47,7.32-1.41,2.25-.94,4.5-2.47,6.73-4.6v4.83h11.47V18.82h-11.47ZM469.78,51.43c-2.37,2.51-5.36,3.76-8.96,3.76s-6.43-1.27-8.81-3.82c-2.39-2.55-3.58-5.8-3.58-9.74s1.17-7.13,3.52-9.64c2.34-2.51,5.29-3.76,8.83-3.76s6.63,1.23,9,3.7c2.37,2.46,3.56,5.68,3.56,9.66s-1.19,7.34-3.56,9.85Z"/>
</svg>