<?xml version="1.0" encoding="utf-8"?>
<!-- Generator: Adobe Illustrator 27.8.0, SVG Export Plug-In . SVG Version: 6.00 Build 0)  -->
<svg version="1.1" id="Layer_1" xmlns="http://www.w3.org/2000/svg" xmlns:xlink="http://www.w3.org/1999/xlink" x="0px" y="0px"
	 viewBox="0 0 100 100" style="enable-background:new 0 0 100 100;" xml:space="preserve">
<style type="text/css">
	.st0{clip-path:url(#SVGID_00000083787587485394090930000001848369520789333139_);}
	.st1{fill:#E8E8E8;}
	.st2{fill:#FFFFFF;}
	.st3{fill:#011826;}
	.st4{fill:#B0B7BB;}
</style>
<g>
	<defs>
		<path id="SVGID_1_" d="M100,50.59C99.67,78.2,77.03,100.32,49.41,100C21.8,99.67-0.32,77.03,0,49.41C0.33,21.8,22.97-0.32,50.59,0
			C78.2,0.33,100.32,22.97,100,50.59z"/>
	</defs>
	<clipPath id="SVGID_00000116234956916291327210000011882802756985638056_">
		<use xlink:href="#SVGID_1_"  style="overflow:visible;"/>
	</clipPath>
	<g style="clip-path:url(#SVGID_00000116234956916291327210000011882802756985638056_);">
		<path class="st1" d="M100,50.59C99.67,78.2,77.03,100.32,49.41,100C21.8,99.67-0.32,77.03,0,49.41C0.33,21.8,22.97-0.32,50.59,0
			C78.2,0.33,100.32,22.97,100,50.59z"/>
		<g>
			<g>
				<g>
					<g>
						<path class="st2" d="M45.48,71.54c3.54,11.25-8.33,11.41-16.3,14.99c-3.87,1.73-8.01,3.16-11.3,6
							c-6.51,5.64,2.2,7.51,7.62,9.08c22.12,6.41,47.67,5.59,64.29-11.91c-3.46-5.64-13.41-6.78-19.41-7.38
							c-2.26-0.22-9.07-0.22-10.76-1.55c-1.8-1.42-1.74-7.52-1.54-9.84"/>
					</g>
				</g>
			</g>
			<g>
				<path class="st3" d="M50.02,105.78c-7.77,0-16.05-1.23-24.65-3.71c-0.39-0.11-0.8-0.23-1.21-0.34
					c-3.95-1.11-8.42-2.37-9.01-5.01c-0.31-1.38,0.48-2.87,2.42-4.55c2.7-2.34,5.98-3.74,9.15-5.09c0.76-0.32,1.52-0.65,2.27-0.98
					c1.82-0.82,3.86-1.46,5.82-2.09c6.87-2.18,12.81-4.06,10.21-12.31l0.93-0.29c2.89,9.18-4.1,11.39-10.85,13.53
					c-1.94,0.61-3.94,1.25-5.72,2.05c-0.75,0.34-1.52,0.66-2.28,0.99c-3.1,1.32-6.3,2.69-8.89,4.93c-1.62,1.4-2.33,2.62-2.11,3.61
					c0.46,2.08,5.01,3.36,8.33,4.29c0.42,0.12,0.83,0.23,1.22,0.35c12.36,3.58,43.2,9.59,63.53-11.5
					c-3.63-5.32-13.87-6.34-18.84-6.84c-0.51-0.05-1.24-0.09-2.09-0.13c-3.94-0.21-7.59-0.48-8.92-1.52
					c-2.43-1.91-1.73-10.18-1.72-10.26l0.97,0.09c-0.28,3.15-0.04,8.31,1.35,9.41c1.19,0.94,5.68,1.17,8.37,1.31
					c0.87,0.05,1.62,0.09,2.14,0.14c5.62,0.56,16.09,1.6,19.78,7.61l0.2,0.32l-0.26,0.27C80.28,100.41,66.28,105.78,50.02,105.78z"
					/>
			</g>
		</g>
		<g>
			<g>
				<g>
					<g>
						<g>
							<g>
								<g>
									<path class="st3" d="M24.98,50.63c1.48,7.53,0.4,15.62,1.65,23.26c0.87,5.33,2.15,11.43,5.71,16.04
										c0.32-1.55,0.13-3.25,0.21-4.84c1.02,1,1.29,2.85,2.37,4.09c0-1.66,0.04-3.3-0.08-4.93c0.87,1.31,1.55,2.73,2.5,3.96
										c0.07-1.43-0.16-3.21-0.06-4.42c1.06,1.59,1.85,3.44,3.65,4.49c0.47-4.11-1.03-8.37-0.98-12.57
										c0.03-2.25,0.22-4.56,0.31-6.86c0.13-3.17,1.27-6.51,1.17-9.6c-0.12-3.71-5.98-6.63-9.01-8.97
										c-2.12-1.64-4.69-4.4-6.91-1.42"/>
								</g>
							</g>
						</g>
					</g>
					<g>
						<g>
							<g>
								<g>
									<path class="st3" d="M63.6,61.75c0.88,7.36,0.06,14.92,0.15,22.23c0.5-0.58,0.94-1.27,1.31-1.97
										c0.35,1.25,0.59,2.87,0.92,4.11c0.56-0.89,0.91-1.87,1.58-2.63c0.11,1.43,0.31,2.83,0.52,4.19
										c0.45-0.96,0.92-1.96,1.42-2.91c0.24,1.36-0.05,2.79,0.49,4.07c0.8-0.85,1.27-2.1,1.83-3.07c0.86,1.17,0.88,2.94,1.6,4.14
										c1.37-1.21,1.41-2.98,2.36-4.33c0.69,0.84,1.13,1.99,1.48,2.92c0.65-9.07,0.29-18.17-0.42-27.13
										c-0.21-2.69-0.23-5.6-0.94-8.24c-0.38-1.41-0.93-3.51-2.22-4.58c-3.5-2.92-7.57,4.3-8.58,6.68"/>
								</g>
							</g>
						</g>
					</g>
					<g>
						<g>
							<g>
								<g>
									<g>
										<g>
											<path class="st2" d="M74.59,25.72c-1.56-4.38-4.45-8.22-9.2-11.02c-11.65-6.87-29.4-5.73-38.05,5.88
												c-7,9.39-2.58,26.38,1,36.6c4.33,12.37,19.86,25.91,33.24,16.5c3.62-2.54,5.56-7.18,7.34-11.02
												C73.62,52.51,78.69,37.23,74.59,25.72z"/>
										</g>
									</g>
								</g>
							</g>
							<g>
								<g>
									<path class="st3" d="M51.82,77.22C51.82,77.22,51.82,77.22,51.82,77.22C41.21,77.09,31.36,67,27.97,57.31
										c-4.16-11.86-7.69-27.91-0.95-36.96c4.95-6.64,13.21-10.39,22.66-10.28c5.67,0.07,11.32,1.59,15.9,4.29
										c4.51,2.66,7.67,6.44,9.37,11.22c4.38,12.28-1.68,28.6-5.69,37.23l-0.39,0.84c-1.71,3.71-3.64,7.92-7.08,10.34
										C58.71,76.18,55.35,77.26,51.82,77.22z M49.67,10.86c-9.2-0.11-17.23,3.52-22.03,9.96c-6.54,8.78-3.03,24.55,1.06,36.24
										c3.23,9.23,12.99,19.26,23.12,19.38c0,0,0,0,0,0c3.36,0.04,6.57-0.99,9.52-3.07c3.27-2.3,5.16-6.41,6.83-10.03l0.39-0.84
										c3.95-8.53,9.95-24.63,5.66-36.64c-1.64-4.61-4.68-8.25-9.03-10.81C60.72,12.41,55.21,10.92,49.67,10.86z"/>
								</g>
							</g>
						</g>
					</g>
					<g>
						<g>
							<g>
								<g>
									<g>
										<g>
											<path class="st2" d="M26.52,46.43c-4.17-3.69-7.69,1.67-6.18,5.74c1.09,2.95,6.56,7.07,7.8,1.98L26.52,46.43z"/>
										</g>
									</g>
								</g>
							</g>
							<g>
								<g>
									<path class="st3" d="M25.69,56.94L25.69,56.94c-2.22-0.03-4.94-2.56-5.72-4.64c-0.7-1.89-0.42-4.15,0.71-5.76
										c0.8-1.13,1.9-1.75,3.09-1.74c1,0.01,2.01,0.46,3,1.33l0.1,0.09l1.67,7.93l-0.02,0.09C27.94,56.61,26.49,56.95,25.69,56.94
										z M23.76,45.58c-0.93-0.01-1.8,0.49-2.45,1.41c-0.98,1.38-1.22,3.41-0.62,5.04c0.67,1.8,3.15,4.11,4.99,4.13
										c1,0.01,1.69-0.67,2.04-2.03l-1.58-7.5C25.35,45.95,24.55,45.59,23.76,45.58z"/>
								</g>
							</g>
						</g>
					</g>
					<g>
						<g>
							<g>
								<g>
									<g>
										<g>
											<path class="st2" d="M73.57,46.98c4.26-3.59,7.65,1.85,6.05,5.88c-1.16,2.93-6.73,6.92-7.85,1.79L73.57,46.98z"/>
										</g>
									</g>
								</g>
							</g>
							<g>
								<g>
									<path class="st3" d="M74.15,57.51c-0.81-0.01-2.24-0.38-2.77-2.77l-0.02-0.09l1.85-7.89l0.1-0.08
										c1.01-0.85,2.03-1.27,3.03-1.26c1.2,0.01,2.28,0.66,3.05,1.81c1.09,1.64,1.32,3.9,0.58,5.78
										C79.16,55.07,76.38,57.54,74.15,57.51z M72.17,54.66c0.32,1.37,0.99,2.06,1.99,2.07c1.84,0.02,4.38-2.23,5.09-4.01
										c0.64-1.62,0.44-3.65-0.5-5.06c-1.15-1.71-3.02-1.94-4.83-0.47L72.17,54.66z"/>
								</g>
							</g>
						</g>
					</g>
					<g>
						<g>
							<g>
								<g>
									<path class="st3" d="M74.91,25.73c-1.56-4.38-4.45-8.22-9.2-11.02c-11.65-6.87-29.4-5.73-38.05,5.88
										c-5.87,7.88-3.7,21.11-0.74,31.2c6.32-7.15,6.39-18.72,11.7-26.71c0.7-1.06,1.71-2.01,2.39-3.04
										c2.9,3.83,8.02,4.97,12,7.23c4.65,2.63,10.18,5.81,13.64,9.89c2.22,2.62,3.54,5.95,3.99,9.24
										c0.35,2.61,0.13,5.74,1.15,8.26C75.48,47.07,78.27,35.14,74.91,25.73z"/>
								</g>
							</g>
						</g>
					</g>
				</g>
				<g>
					<g>
						<g>
							<g>
								<path class="st4" d="M44.76,59.9c1.05,0.3,1.73-0.24,2.51-0.78c0.37-0.26,0.67-0.79,1.2-0.77c0.48,0.02,0.69,0.71,1.2,0.78
									c1.29,0.18,1.27-1.23,2.51-0.63c0.8,0.39,1.35,1.25,2.19,1.65c-1.45,1.29-1.43,2.94-3.35,3.5
									c-2.54,0.73-4.35-0.57-5.41-2.58c-0.07-0.14-0.36-0.64-0.3-0.53"/>
							</g>
						</g>
					</g>
				</g>
			</g>
			<g>
				<g>
					<g>
						<g>
							<path class="st3" d="M46.62,54.46c-0.01,0-0.02,0-0.03,0c-0.2-0.02-0.36-0.2-0.34-0.4c0.13-1.6,1.51-2.56,2.8-2.69
								c1.39-0.14,2.53,0.62,2.9,1.92c0.06,0.2-0.06,0.4-0.26,0.46c-0.2,0.06-0.4-0.06-0.46-0.26c-0.33-1.14-1.3-1.47-2.11-1.38
								c-0.95,0.09-2.02,0.76-2.13,2.01C46.98,54.31,46.82,54.46,46.62,54.46z"/>
						</g>
					</g>
				</g>
			</g>
			<g>
				<g>
					<g>
						<g>
							<path class="st3" d="M42.83,46.73c-0.01,1.01-0.84,1.82-1.85,1.81c-1.01-0.01-1.82-0.84-1.81-1.86
								c0.01-1.01,0.84-1.82,1.85-1.81C42.03,44.89,42.84,45.72,42.83,46.73z"/>
						</g>
					</g>
				</g>
			</g>
			<g>
				<g>
					<g>
						<g>
							<path class="st3" d="M58.96,46.92c-0.01,1.01-0.84,1.82-1.85,1.81c-1.01-0.01-1.82-0.84-1.81-1.85
								c0.01-1.01,0.84-1.82,1.85-1.81C58.16,45.08,58.98,45.91,58.96,46.92z"/>
						</g>
					</g>
				</g>
			</g>
			<g>
				<g>
					<g>
						<g>
							<path class="st3" d="M36.33,42.71c-0.16,0-0.3-0.11-0.35-0.27c-0.06-0.2,0.06-0.4,0.25-0.46c0.31-0.09,0.64-0.2,0.97-0.3
								c1.89-0.61,4.03-1.31,5.88-0.24c0.18,0.1,0.24,0.33,0.14,0.51c-0.1,0.18-0.33,0.24-0.51,0.14c-1.56-0.9-3.45-0.29-5.28,0.3
								c-0.34,0.11-0.66,0.21-0.98,0.31C36.4,42.7,36.36,42.71,36.33,42.71z"/>
						</g>
					</g>
				</g>
			</g>
			<g>
				<g>
					<g>
						<g>
							<path class="st3" d="M60.45,42.99c-0.04,0-0.07-0.01-0.11-0.02c-0.32-0.1-0.64-0.22-0.98-0.33
								c-1.81-0.64-3.69-1.29-5.27-0.43c-0.18,0.1-0.41,0.03-0.51-0.15c-0.1-0.18-0.03-0.41,0.15-0.51c1.88-1.03,4-0.28,5.87,0.38
								c0.33,0.11,0.65,0.23,0.96,0.33c0.2,0.06,0.3,0.27,0.24,0.47C60.76,42.89,60.61,42.99,60.45,42.99z"/>
						</g>
					</g>
				</g>
			</g>
		</g>
	</g>
</g>
</svg>
