<?xml version="1.0" encoding="utf-8"?>
<!-- Generator: Adobe Illustrator 27.8.0, SVG Export Plug-In . SVG Version: 6.00 Build 0)  -->
<svg version="1.1" id="Layer_1" xmlns="http://www.w3.org/2000/svg" xmlns:xlink="http://www.w3.org/1999/xlink" x="0px" y="0px"
	 viewBox="0 0 100 100" style="enable-background:new 0 0 100 100;" xml:space="preserve">
<style type="text/css">
	.st0{clip-path:url(#SVGID_00000062178009721602918420000002812163482301648261_);}
	.st1{fill:#E8E8E8;}
	.st2{fill:#FFFFFF;}
	.st3{fill:#011826;}
	.st4{fill:#B0B7BB;}
</style>
<g>
	<defs>
		<path id="SVGID_1_" d="M100,50.06C99.97,77.67,77.56,100.03,49.94,100C22.33,99.97-0.03,77.55,0,49.94
			C0.03,22.33,22.44-0.03,50.06,0C77.67,0.03,100.03,22.45,100,50.06z"/>
	</defs>
	<clipPath id="SVGID_00000054255922803028066530000013195302918851257219_">
		<use xlink:href="#SVGID_1_"  style="overflow:visible;"/>
	</clipPath>
	<g style="clip-path:url(#SVGID_00000054255922803028066530000013195302918851257219_);">
		<g>
			<g>
				<path class="st1" d="M100,50.06C99.97,77.67,77.56,100.03,49.94,100C22.33,99.97-0.03,77.55,0,49.94
					C0.03,22.33,22.44-0.03,50.06,0C77.67,0.03,100.03,22.45,100,50.06z"/>
			</g>
		</g>
		<g>
			<g>
				<g>
					<g>
						<path class="st2" d="M45.41,73.82c3.54,11.25-8.33,11.41-16.3,14.99c-3.87,1.73-8.01,3.16-11.3,6
							c-6.51,5.64,2.21,7.51,7.62,9.08c22.12,6.41,47.67,5.59,64.29-11.91c-3.47-5.64-13.41-6.78-19.41-7.38
							c-2.26-0.22-9.07-0.22-10.76-1.55c-1.8-1.42-1.74-7.52-1.54-9.84"/>
					</g>
				</g>
			</g>
			<g>
				<path class="st3" d="M49.95,108.06c-7.77,0-16.05-1.23-24.65-3.71c-0.39-0.11-0.8-0.23-1.21-0.34
					c-3.95-1.11-8.42-2.37-9.01-5.01c-0.31-1.38,0.48-2.87,2.42-4.55c2.7-2.34,5.98-3.74,9.15-5.09c0.76-0.32,1.52-0.65,2.27-0.98
					c1.82-0.82,3.86-1.46,5.82-2.09c6.87-2.18,12.81-4.06,10.21-12.31l0.93-0.29c2.89,9.18-4.1,11.39-10.85,13.53
					c-1.94,0.61-3.94,1.25-5.72,2.05c-0.75,0.34-1.52,0.66-2.28,0.99c-3.1,1.32-6.3,2.69-8.89,4.94c-1.62,1.4-2.33,2.62-2.11,3.61
					c0.46,2.08,5.01,3.36,8.33,4.29c0.42,0.12,0.83,0.23,1.22,0.35C37.92,107,68.77,113,89.1,91.91
					c-3.63-5.32-13.87-6.34-18.84-6.84c-0.51-0.05-1.24-0.09-2.09-0.13c-3.94-0.21-7.59-0.48-8.92-1.52
					c-2.42-1.91-1.73-10.18-1.72-10.26l0.97,0.09c-0.28,3.15-0.04,8.32,1.35,9.41c1.19,0.94,5.68,1.17,8.37,1.31
					c0.87,0.05,1.62,0.09,2.14,0.14c5.62,0.56,16.09,1.6,19.78,7.61l0.2,0.32l-0.26,0.27C80.21,102.69,66.21,108.06,49.95,108.06z"
					/>
			</g>
		</g>
		<g>
			<g>
				<g>
					<g>
						<g>
							<g>
								<g>
									<path class="st3" d="M83.14,75.24c-5.65-6.08-10.58-14.73-7.44-23.4l-5.43,0.13C69.72,53.77,55.8,53,50.79,52.29
										c-0.01-0.1-0.02-0.2-0.04-0.3c-0.17,0.05-0.43,0.11-0.76,0.17c-0.33-0.06-0.59-0.12-0.76-0.17c-0.01,0.1-0.02,0.2-0.03,0.3
										C44.2,53,30.27,53.77,29.73,51.97l-5.43-0.13c3.14,8.68-1.79,17.32-7.44,23.4c-0.4,0.43-1.23,0.7-1.7,1.09
										c6.98,5.4,19.38,4.51,27.71,3.45c2.41-0.31,4.8-0.71,7.14-1.38c2.34,0.67,4.73,1.08,7.14,1.38
										c8.33,1.06,20.73,1.95,27.71-3.45C84.37,75.94,83.55,75.68,83.14,75.24z"/>
								</g>
							</g>
						</g>
					</g>
					<g>
						<g>
							<g>
								<g>
									<g>
										<g>
											<path class="st2" d="M76.35,25.51c-1.73-4.67-4.87-8.74-9.99-11.68c-12.55-7.2-31.54-5.76-40.65,6.77
												c-7.37,10.13-2.43,28.27,1.53,39.16C32.03,72.94,48.82,87.24,63.02,77c3.84-2.77,5.86-7.75,7.72-11.89
												C75.65,54.19,80.88,37.77,76.35,25.51z"/>
										</g>
									</g>
								</g>
							</g>
							<g>
								<g>
									<path class="st3" d="M52.62,80.9L52.62,80.9c-11.36,0-22.02-10.68-25.77-21c-4.6-12.64-8.58-29.77-1.48-39.54
										c5.21-7.17,14-11.28,24.12-11.28c6.07,0,12.13,1.56,17.07,4.39c4.86,2.79,8.28,6.79,10.17,11.89
										c4.84,13.09-1.44,30.63-5.62,39.92l-0.4,0.89c-1.78,4-3.8,8.53-7.46,11.16C59.98,79.7,56.4,80.9,52.62,80.9z M49.5,9.91
										c-9.85,0-18.39,3.99-23.45,10.94c-6.89,9.48-2.94,26.31,1.58,38.77c3.58,9.83,14.14,20.45,24.99,20.45
										c3.6,0,7.01-1.15,10.15-3.41c3.47-2.5,5.44-6.92,7.18-10.82l0.4-0.9c4.12-9.17,10.33-26.48,5.6-39.29
										c-1.82-4.91-5.12-8.77-9.8-11.46C61.34,11.43,55.42,9.91,49.5,9.91z"/>
								</g>
							</g>
						</g>
					</g>
					<g>
						<g>
							<g>
								<g>
									<g>
										<g>
											<path class="st2" d="M25.16,48.27c-4.51-3.89-8.21,1.88-6.55,6.22c1.21,3.15,7.11,7.49,8.38,2.02L25.16,48.27z"/>
										</g>
									</g>
								</g>
							</g>
							<g>
								<g>
									<path class="st3" d="M24.4,59.53L24.4,59.53c-2.38,0-5.32-2.68-6.17-4.9c-0.77-2.02-0.5-4.44,0.69-6.18
										c0.84-1.22,2.01-1.9,3.29-1.9c1.07,0,2.16,0.47,3.23,1.39l0.1,0.09l1.88,8.47L27.4,56.6
										C26.81,59.15,25.27,59.53,24.4,59.53z M22.21,47.4c-1,0-1.92,0.55-2.6,1.54c-1.03,1.49-1.27,3.66-0.6,5.4
										c0.74,1.92,3.43,4.36,5.4,4.36c1.08,0,1.8-0.74,2.16-2.19l-1.78-8.01C23.91,47.77,23.04,47.4,22.21,47.4z"/>
								</g>
							</g>
						</g>
					</g>
					<g>
						<g>
							<g>
								<g>
									<g>
										<g>
											<path class="st2" d="M75.52,48.27c4.51-3.89,8.21,1.88,6.55,6.22c-1.21,3.15-7.11,7.49-8.38,2.02L75.52,48.27z"/>
										</g>
									</g>
								</g>
							</g>
							<g>
								<g>
									<path class="st3" d="M76.28,59.53c-0.87,0-2.41-0.38-3-2.93l-0.02-0.09l1.88-8.47l0.11-0.09c1.07-0.92,2.15-1.39,3.23-1.39
										c1.28,0,2.45,0.67,3.29,1.9c1.19,1.74,1.46,4.16,0.69,6.18C81.6,56.86,78.66,59.53,76.28,59.53z M74.12,56.5
										c0.36,1.46,1.09,2.19,2.16,2.19c1.97,0,4.66-2.44,5.4-4.36c0.67-1.74,0.43-3.91-0.6-5.4c-1.25-1.82-3.26-2.04-5.18-0.44
										L74.12,56.5z"/>
								</g>
							</g>
						</g>
					</g>
					<g>
						<g>
							<g>
								<g>
									<path class="st3" d="M76.35,25.51c-1.73-4.67-4.87-8.74-9.99-11.68c-12.55-7.2-31.54-5.76-40.65,6.77
										c-7.15,9.83-2.71,27.2,1.18,38.17l0.13,0.08c0.89-2.88,0.37-6.47-0.2-9.32c-0.52-2.56-1.95-6.36-1.65-8.93
										c0.37-3.09,4.77-4.63,7.21-5.84c3.18-1.58,6.06-3.36,9.42-4.42c3.37-1.06,6.96-0.96,7.94-5.07
										c0.12-0.52,0.21-1.06,0.29-1.6c0.08,0.55,0.17,1.09,0.3,1.6c0.98,4.11,4.57,4.01,7.94,5.07c3.36,1.06,6.24,2.84,9.42,4.42
										c2.45,1.21,6.85,2.75,7.21,5.84c0.3,2.57-1.14,6.37-1.65,8.93c-0.57,2.85-0.92,6.7-0.03,9.58l0.19-0.5
										C77.24,48.32,80.05,35.53,76.35,25.51z"/>
								</g>
							</g>
						</g>
					</g>
					<g>
						<g>
							<g>
								<g>
									<path class="st4" d="M44.31,64.53c0.97-0.47,2.01-1.45,3.01-1.76c1.52-0.47,1.72,0.5,2.79,0.29c1.63-0.32,1-1.99,3.11-1.07
										c0.96,0.42,1.74,1.91,2.46,2.63c-1.64,1.48-2.99,3.67-5.6,3.54C48.72,68.1,44.29,64.6,44.31,64.53"/>
								</g>
							</g>
						</g>
					</g>
				</g>
				<g>
					<g>
						<g>
							<g>
								<path class="st3" d="M47.26,59.53c-0.07,0-0.13-0.02-0.2-0.05c-0.19-0.11-0.26-0.35-0.15-0.54
									c1.01-1.79,1.95-2.66,2.97-2.73c1-0.05,2,0.64,3.17,2.2c0.13,0.18,0.1,0.43-0.08,0.56c-0.18,0.13-0.43,0.1-0.56-0.08
									c-0.98-1.31-1.8-1.92-2.48-1.88c-0.72,0.05-1.48,0.8-2.33,2.32C47.54,59.45,47.4,59.53,47.26,59.53z"/>
							</g>
						</g>
					</g>
				</g>
				<g>
					<g>
						<g>
							<g>
								<g>
									<path class="st3" d="M61.83,51.41c0,1.08-0.88,1.96-1.96,1.96s-1.96-0.88-1.96-1.96c0-1.08,0.88-1.96,1.96-1.96
										S61.83,50.32,61.83,51.41z"/>
								</g>
							</g>
						</g>
					</g>
					<g>
						<g>
							<g>
								<g>
									<path class="st3" d="M43.46,51.41c0,1.08-0.88,1.96-1.96,1.96c-1.08,0-1.96-0.88-1.96-1.96c0-1.08,0.88-1.96,1.96-1.96
										C42.58,49.44,43.46,50.32,43.46,51.41z"/>
								</g>
							</g>
						</g>
					</g>
				</g>
				<g>
					<g>
						<g>
							<g>
								<path class="st3" d="M38.84,59.1L38.84,59.1c-3.35,0-7.05-2.21-7.79-7.15c-0.38-2.54,0.12-4.69,1.44-6.22
									c1.37-1.58,3.53-2.46,6.09-2.46c1.4,0,2.82,0.27,4.11,0.78c2.24,0.89,3.86,2.38,4.57,4.21c0.65,1.7,0.48,3.64-0.5,5.62
									C45.17,57.11,42.14,59.1,38.84,59.1z M38.6,44.07c-2.33,0-4.28,0.77-5.49,2.18c-1.18,1.37-1.61,3.25-1.26,5.58
									c0.66,4.47,3.99,6.47,7,6.47l0,0c3.03,0,5.72-1.78,7.2-4.77c0.89-1.8,1.05-3.48,0.47-4.98c-0.62-1.62-2.08-2.95-4.11-3.76
									C41.21,44.32,39.89,44.07,38.6,44.07z"/>
							</g>
						</g>
					</g>
				</g>
				<g>
					<g>
						<g>
							<g>
								<path class="st3" d="M60.32,59.1c-3.29,0-6.33-2-7.92-5.21c-0.98-1.98-1.16-3.93-0.5-5.62c0.7-1.83,2.32-3.33,4.56-4.21
									c1.29-0.51,2.71-0.78,4.11-0.78c2.56,0,4.73,0.87,6.09,2.46c1.32,1.53,1.82,3.68,1.44,6.22
									C67.37,56.89,63.67,59.1,60.32,59.1z M60.57,44.07c-1.3,0-2.61,0.25-3.81,0.72c-2.03,0.8-3.49,2.14-4.11,3.76
									c-0.58,1.51-0.42,3.18,0.47,4.98c1.48,2.99,4.17,4.77,7.2,4.77c3,0,6.33-2,7-6.47c0.35-2.33-0.08-4.21-1.26-5.58
									C64.84,44.85,62.89,44.07,60.57,44.07z"/>
							</g>
						</g>
					</g>
				</g>
				<g>
					<g>
						<g>
							<g>
								<path class="st3" d="M67.95,50.57c-0.17,0-0.33-0.11-0.38-0.28c-0.07-0.21,0.05-0.43,0.26-0.5
									c1.12-0.36,2.42-0.84,3.67-1.31c1.92-0.71,3.91-1.45,5.34-1.77c0.22-0.05,0.43,0.09,0.48,0.3c0.05,0.21-0.09,0.43-0.3,0.48
									c-1.38,0.31-3.34,1.04-5.23,1.74c-1.26,0.47-2.57,0.96-3.71,1.32C68.03,50.57,67.99,50.57,67.95,50.57z"/>
							</g>
						</g>
					</g>
				</g>
				<g>
					<g>
						<g>
							<g>
								<path class="st3" d="M31.33,50.57c-0.04,0-0.08-0.01-0.12-0.02c-1.14-0.37-2.45-0.85-3.71-1.32
									c-1.9-0.71-3.85-1.43-5.23-1.74c-0.22-0.05-0.35-0.26-0.3-0.48c0.05-0.22,0.26-0.35,0.48-0.3c1.43,0.32,3.42,1.06,5.33,1.77
									c1.25,0.47,2.55,0.95,3.68,1.31c0.21,0.07,0.33,0.29,0.26,0.5C31.66,50.46,31.5,50.57,31.33,50.57z"/>
							</g>
						</g>
					</g>
				</g>
				<g>
					<g>
						<g>
							<g>
								<path class="st3" d="M52.61,52.3l-0.62-0.01c-0.57-0.01-1.13-0.02-1.7-0.04c-1.03-0.03-2.09-0.06-3.13-0.03
									c-0.23,0-0.4-0.17-0.41-0.39c-0.01-0.22,0.17-0.4,0.39-0.41c1.06-0.03,2.13,0,3.18,0.03c0.41,0.01,0.83,0.02,1.24,0.03
									c0.11-0.07,0.24-0.09,0.37-0.03c0.26,0,0.38,0.16,0.43,0.28L52.61,52.3z"/>
							</g>
						</g>
					</g>
				</g>
			</g>
			<g>
				<g>
					<g>
						<g>
							<path class="st3" d="M44.62,42.93c-0.07,0-0.14-0.02-0.2-0.05c-2.15-1.27-7.09-0.84-9.89-0.24
								c-0.21,0.04-0.43-0.09-0.47-0.31c-0.05-0.22,0.09-0.43,0.31-0.47c2.51-0.53,7.93-1.15,10.46,0.34
								c0.19,0.11,0.25,0.36,0.14,0.55C44.89,42.86,44.76,42.93,44.62,42.93z"/>
						</g>
					</g>
				</g>
			</g>
			<g>
				<g>
					<g>
						<g>
							<path class="st3" d="M55.69,42.93c-0.14,0-0.27-0.07-0.34-0.2c-0.11-0.19-0.05-0.44,0.14-0.55
								c2.53-1.49,7.95-0.87,10.46-0.34c0.22,0.05,0.36,0.26,0.31,0.47c-0.05,0.22-0.26,0.35-0.47,0.31
								c-2.8-0.59-7.74-1.02-9.89,0.24C55.82,42.91,55.75,42.93,55.69,42.93z"/>
						</g>
					</g>
				</g>
			</g>
		</g>
	</g>
</g>
</svg>
