<?xml version="1.0" encoding="utf-8"?>
<!-- Generator: Adobe Illustrator 27.8.0, SVG Export Plug-In . SVG Version: 6.00 Build 0)  -->
<svg version="1.1" id="Layer_1" xmlns="http://www.w3.org/2000/svg" xmlns:xlink="http://www.w3.org/1999/xlink" x="0px" y="0px"
	 viewBox="0 0 100 100" style="enable-background:new 0 0 100 100;" xml:space="preserve">
<style type="text/css">
	.st0{clip-path:url(#SVGID_00000165227170090376343360000013681093731524774831_);}
	.st1{fill:#E8E8E8;}
	.st2{fill:#FFFFFF;}
	.st3{fill:#011826;}
</style>
<g>
	<defs>
		<path id="SVGID_1_" d="M100,50.06C99.97,77.67,77.56,100.03,49.94,100C22.33,99.97-0.03,77.55,0,49.94
			C0.03,22.33,22.44-0.03,50.06,0C77.67,0.03,100.03,22.45,100,50.06z"/>
	</defs>
	<clipPath id="SVGID_00000065037094002212994140000008772644867651651210_">
		<use xlink:href="#SVGID_1_"  style="overflow:visible;"/>
	</clipPath>
	<g style="clip-path:url(#SVGID_00000065037094002212994140000008772644867651651210_);">
		<path class="st1" d="M100,50.06C99.97,77.67,77.56,100.03,49.94,100C22.33,99.97-0.03,77.55,0,49.94
			C0.03,22.33,22.44-0.03,50.06,0C77.67,0.03,100.03,22.45,100,50.06z"/>
		<g>
			<g>
				<g>
					<g>
						<path class="st2" d="M45.15,75.41c3.54,11.25-8.33,11.41-16.3,14.99c-3.87,1.73-8.01,3.16-11.3,6
							c-6.51,5.64,2.21,7.51,7.62,9.08c22.12,6.41,47.67,5.59,64.29-11.91c-3.47-5.64-13.41-6.78-19.41-7.38
							c-2.26-0.22-9.07-0.22-10.76-1.55c-1.8-1.42-1.74-7.52-1.54-9.84"/>
					</g>
				</g>
			</g>
			<g>
				<path class="st3" d="M49.69,109.65c-7.77,0-16.05-1.23-24.65-3.71c-0.39-0.11-0.8-0.23-1.21-0.34
					c-3.95-1.11-8.42-2.37-9.01-5.01c-0.31-1.38,0.48-2.87,2.42-4.55c2.7-2.34,5.98-3.74,9.15-5.09c0.76-0.32,1.52-0.65,2.27-0.98
					c1.82-0.82,3.86-1.46,5.82-2.09c6.87-2.18,12.81-4.06,10.21-12.31l0.93-0.29c2.89,9.18-4.1,11.39-10.85,13.53
					c-1.94,0.61-3.94,1.25-5.72,2.05c-0.75,0.34-1.52,0.66-2.28,0.99c-3.1,1.32-6.3,2.69-8.89,4.93c-1.62,1.4-2.33,2.62-2.11,3.61
					c0.46,2.08,5.01,3.36,8.33,4.29c0.42,0.12,0.83,0.23,1.22,0.35c12.36,3.58,43.2,9.59,63.53-11.5
					c-3.63-5.32-13.87-6.34-18.84-6.84c-0.51-0.05-1.24-0.09-2.09-0.13c-3.94-0.21-7.59-0.48-8.92-1.52
					c-2.43-1.91-1.73-10.18-1.72-10.26l0.97,0.09c-0.28,3.15-0.04,8.31,1.35,9.41c1.19,0.94,5.68,1.17,8.37,1.31
					c0.87,0.05,1.62,0.09,2.14,0.14c5.62,0.56,16.09,1.6,19.78,7.61l0.2,0.32l-0.26,0.27C79.95,104.28,65.95,109.65,49.69,109.65z"
					/>
			</g>
		</g>
		<g>
			<g>
				<g>
					<g>
						<g>
							<g>
								<g>
									<g>
										<path class="st2" d="M73.68,51.17c4.19-3.61,7.62,1.75,6.07,5.77c-1.12,2.92-6.6,6.95-7.77,1.87L73.68,51.17z"/>
									</g>
								</g>
							</g>
						</g>
						<g>
							<g>
								<path class="st3" d="M74.39,61.62c-0.8,0-2.23-0.35-2.78-2.72l-0.02-0.09l1.74-7.85l0.1-0.08c0.99-0.86,2-1.29,3-1.29
									c1.19,0,2.27,0.63,3.05,1.76c1.11,1.61,1.36,3.86,0.64,5.73C79.32,59.13,76.59,61.62,74.39,61.62z M72.38,58.81
									c0.33,1.35,1.01,2.04,2.01,2.04c1.83,0,4.32-2.26,5.01-4.04c0.62-1.61,0.4-3.63-0.56-5.01c-1.16-1.69-3.02-1.89-4.81-0.41
									L72.38,58.81z"/>
							</g>
						</g>
					</g>
				</g>
				<g>
					<g>
						<g>
							<g>
								<g>
									<g>
										<path class="st2" d="M74.45,30.73c-1.6-4.61-4.52-8.63-9.27-11.53c-11.65-7.11-29.26-5.69-37.71,6.69
											c-6.84,10.01-2.25,27.92,1.42,38.67c4.44,13.02,20.02,27.14,33.19,17.03c3.56-2.73,5.44-7.66,7.16-11.74
											C73.8,59.06,78.65,42.85,74.45,30.73z"/>
									</g>
								</g>
							</g>
						</g>
						<g>
							<g>
								<path class="st3" d="M52.43,85.42C52.43,85.42,52.43,85.42,52.43,85.42C41.9,85.42,32,74.88,28.52,64.69
									c-4.26-12.48-7.96-29.38-1.37-39.02c4.84-7.08,13-11.14,22.39-11.14c5.64,0,11.26,1.54,15.85,4.34
									c4.51,2.75,7.68,6.7,9.43,11.73C79.3,43.51,73.47,60.83,69.6,70l-0.37,0.89c-1.65,3.94-3.52,8.41-6.91,11.01
									C59.27,84.23,55.94,85.42,52.43,85.42z M49.53,15.3c-9.13,0-17.06,3.94-21.75,10.8c-6.4,9.37-2.74,26.02,1.47,38.33
									c3.32,9.72,13.12,20.21,23.18,20.21c3.34,0,6.5-1.13,9.41-3.36c3.22-2.47,5.05-6.84,6.66-10.69l0.38-0.9
									c3.83-9.07,9.6-26.17,5.2-38.84c-1.69-4.86-4.75-8.67-9.1-11.33C60.51,16.8,55.03,15.3,49.53,15.3z"/>
							</g>
						</g>
					</g>
				</g>
				<g>
					<g>
						<g>
							<g>
								<g>
									<g>
										<path class="st2" d="M26.32,51.17c-4.19-3.61-7.62,1.75-6.07,5.77c1.12,2.92,6.6,6.95,7.77,1.87L26.32,51.17z"/>
									</g>
								</g>
							</g>
						</g>
						<g>
							<g>
								<path class="st3" d="M25.61,61.62L25.61,61.62c-2.21,0-4.94-2.48-5.73-4.54c-0.72-1.87-0.47-4.12,0.64-5.73
									c0.78-1.14,1.86-1.76,3.05-1.76c1,0,2.01,0.43,3,1.29l0.1,0.08l1.75,7.85L28.4,58.9C27.85,61.27,26.42,61.62,25.61,61.62z
									 M23.58,50.36c-0.92,0-1.78,0.51-2.41,1.42c-0.95,1.39-1.17,3.4-0.55,5.01c0.68,1.78,3.18,4.04,5.01,4.04
									c1,0,1.67-0.68,2.01-2.04l-1.65-7.43C25.16,50.7,24.35,50.36,23.58,50.36z"/>
							</g>
						</g>
					</g>
				</g>
				<g>
					<g>
						<g>
							<g>
								<path class="st3" d="M68.76,10.26c-0.75,2.2-2.06,4.34-3.98,5.42c-0.1-2.43-0.78-4.93-2.05-7.07
									c-1.28,1.81-3.13,3.47-5.23,4.43c0.02-0.64-0.04-1.32-0.06-1.95c-1.99,1.51-4.31,2.49-6.75,2.79
									c-5.22,0.66-32.05-3.04-22.17,11.09L30,25.96c0.94,0.65,1.97,1.2,3.02,1.78c9.83,5.51,19.58,10.29,31.07,6.03
									C76.65,29.13,78.18,19.78,68.76,10.26z"/>
							</g>
						</g>
					</g>
				</g>
				<g>
					<g>
						<g>
							<g>
								<path class="st3" d="M29.5,23.15c-12.47-3-6.42,21.33-5.26,26.15c0.43,1.77,0.88,3.49,1.32,5.27c0.63,0.03,1.29,0.03,1.93,0
									c-0.35-6.79-0.68-9.09,3.5-13.91c2.6-3,7.35-9.48,4.76-13.66c-0.78-1.25-2.05-2.01-3.43-2.36"/>
							</g>
						</g>
					</g>
				</g>
				<g>
					<g>
						<g>
							<g>
								<path class="st3" d="M68.56,29.44c1.36,4.53,4.14,6.94,4.8,11.92c0.53,3.99-1.14,10.19,0.91,13.58
									c4.29-5.1,7.41-26.67-1.41-29.47c-1.55-0.49-1.61-0.39-2.48,0.33"/>
							</g>
						</g>
					</g>
				</g>
				<g>
					<g>
						<g>
							<g>
								<path class="st3" d="M51.63,59.66c-6.69-0.47-12.46,7.87-13.86,13.5c5.18,0.59,9.53-4.97,14.08-6.35
									c4.91,1.01,7.74,5.38,12.54,6.35C65.4,65.85,58.25,60.05,51.63,59.66"/>
							</g>
						</g>
					</g>
				</g>
			</g>
			<g>
				<g>
					<g>
						<g>
							<path class="st3" d="M45.96,58.2c-0.18,0-0.34-0.14-0.37-0.33c-0.19-1.55,0.48-2.8,1.9-3.52c2.15-1.08,5.6-0.74,7.11,0.71
								c0.73,0.69,0.9,1.57,0.5,2.47c-0.08,0.19-0.3,0.27-0.49,0.19c-0.19-0.08-0.27-0.3-0.19-0.49c0.28-0.62,0.17-1.15-0.33-1.63
								c-1.27-1.21-4.43-1.5-6.27-0.58c-1.15,0.58-1.66,1.51-1.5,2.77c0.03,0.2-0.12,0.39-0.32,0.41
								C45.99,58.2,45.97,58.2,45.96,58.2z"/>
						</g>
					</g>
				</g>
			</g>
			<g>
				<g>
					<g>
						<g>
							<path class="st3" d="M62.15,49.97c0,1.01-0.82,1.82-1.82,1.82c-1.01,0-1.82-0.82-1.82-1.82c0-1.01,0.81-1.82,1.82-1.82
								C61.33,48.15,62.15,48.97,62.15,49.97z"/>
						</g>
					</g>
				</g>
			</g>
			<g>
				<g>
					<g>
						<g>
							<circle class="st3" cx="39.58" cy="49.97" r="1.82"/>
						</g>
					</g>
				</g>
			</g>
			<g>
				<g>
					<g>
						<g>
							<path class="st3" d="M43.7,43.95c-1.53-0.51-8.95-1.89-9.6,0.89c-0.55,2.36,7.78,1.86,9.16,1.49c1.29-0.35,3-1.9,0.65-2.38"
								/>
						</g>
					</g>
				</g>
			</g>
			<g>
				<g>
					<g>
						<g>
							<path class="st3" d="M56.21,43.07c1.53-0.51,8.95-1.89,9.6,0.89c0.55,2.36-7.78,1.86-9.16,1.49c-1.29-0.35-3-1.9-0.65-2.37"
								/>
						</g>
					</g>
				</g>
			</g>
		</g>
	</g>
	<g style="clip-path:url(#SVGID_00000065037094002212994140000008772644867651651210_);">
		<g>
			<g>
				<g>
					<path class="st2" d="M70.05,86.18c-1.59-0.16-5.44-0.2-8.17-0.68c-5.45,3.61-15.41,5.31-20.79,0.39
						c-3.51,1.82-8.34,2.75-12.25,4.5c-3.87,1.73-8.01,3.16-11.3,6c-6.51,5.64,2.21,7.51,7.62,9.08
						c22.12,6.41,47.67,5.59,64.29-11.91C86,87.92,76.06,86.78,70.05,86.18z"/>
				</g>
			</g>
		</g>
		<g>
			<path class="st3" d="M49.76,109.63C49.76,109.63,49.76,109.63,49.76,109.63c-7.95,0-16.27-1.24-24.72-3.69
				c-0.39-0.11-0.8-0.23-1.21-0.34c-3.95-1.11-8.42-2.37-9.01-5.01c-0.31-1.38,0.48-2.87,2.42-4.55c2.7-2.34,5.98-3.74,9.15-5.09
				c0.76-0.32,1.52-0.65,2.27-0.98c1.82-0.82,3.85-1.46,5.82-2.09c2.34-0.74,4.55-1.44,6.41-2.41l0.3-0.16l0.25,0.23
				c2.64,2.41,6.17,2.92,8.67,2.92c3.97,0,8.39-1.29,11.52-3.36l0.16-0.11l0.19,0.03c1.83,0.32,4.14,0.44,6,0.54
				c0.87,0.05,1.62,0.09,2.13,0.14c5.62,0.56,16.09,1.6,19.78,7.61l0.2,0.32l-0.26,0.27C80.05,104.19,66.19,109.63,49.76,109.63z
				 M41.02,86.47c-1.87,0.92-4.1,1.63-6.26,2.32c-1.94,0.62-3.94,1.25-5.71,2.05c-0.75,0.34-1.52,0.66-2.28,0.99
				c-3.1,1.32-6.3,2.69-8.89,4.93c-1.62,1.4-2.33,2.62-2.11,3.61c0.46,2.08,5.01,3.36,8.33,4.29c0.42,0.12,0.83,0.23,1.22,0.35
				c8.36,2.42,16.59,3.65,24.44,3.65c0,0,0,0,0,0c16.01,0,29.52-5.24,39.09-15.15c-3.63-5.32-13.87-6.34-18.84-6.84
				c-0.51-0.05-1.24-0.09-2.09-0.13c-1.82-0.1-4.07-0.22-5.92-0.52c-3.27,2.11-7.81,3.41-11.9,3.41
				C46.41,89.42,43.28,88.4,41.02,86.47z"/>
		</g>
	</g>
</g>
</svg>
