<?xml version="1.0" encoding="utf-8"?>
<!-- Generator: Adobe Illustrator 27.8.0, SVG Export Plug-In . SVG Version: 6.00 Build 0)  -->
<svg version="1.1" id="Layer_1" xmlns="http://www.w3.org/2000/svg" xmlns:xlink="http://www.w3.org/1999/xlink" x="0px" y="0px"
	 viewBox="0 0 100 100" style="enable-background:new 0 0 100 100;" xml:space="preserve">
<style type="text/css">
	.st0{clip-path:url(#SVGID_00000020386063878976164760000012557827230611319460_);}
	.st1{fill:#E8E8E8;}
	.st2{fill:#FFFFFF;}
	.st3{fill:#011826;}
	.st4{fill:#B0B7BB;}
</style>
<g>
	<g>
		<defs>
			<path id="SVGID_1_" d="M100,50.06c-0.03,27.53-22.44,49.83-50.06,49.79C22.33,99.82-0.03,77.47,0,49.94
				C0.03,22.41,22.44,0.11,50.06,0.15C77.67,0.18,100.03,22.52,100,50.06z"/>
		</defs>
		<clipPath id="SVGID_00000163757999600370492870000006685298378499552659_">
			<use xlink:href="#SVGID_1_"  style="overflow:visible;"/>
		</clipPath>
		<g style="clip-path:url(#SVGID_00000163757999600370492870000006685298378499552659_);">
			<g>
				<g>
					<path class="st1" d="M100,50.06c-0.03,27.53-22.44,49.83-50.06,49.79C22.33,99.82-0.03,77.47,0,49.94
						C0.03,22.41,22.44,0.11,50.06,0.15C77.67,0.18,100.03,22.52,100,50.06z"/>
				</g>
			</g>
			<g>
				<g>
					<g>
						<g>
							<path class="st2" d="M45.09,75.7c3.54,11.25-8.33,11.41-16.3,14.99c-3.87,1.73-8.01,3.16-11.3,6
								c-6.51,5.64,2.21,7.51,7.62,9.08c22.13,6.41,47.68,5.59,64.29-11.92c-3.46-5.64-13.41-6.78-19.41-7.38
								c-2.26-0.23-9.07-0.22-10.76-1.55c-1.8-1.42-1.74-7.52-1.54-9.84"/>
						</g>
					</g>
				</g>
				<g>
					<path class="st3" d="M49.63,109.95c-7.77,0-16.05-1.23-24.65-3.71c-0.39-0.11-0.8-0.23-1.22-0.34
						c-3.95-1.11-8.42-2.37-9.01-5.01c-0.31-1.38,0.48-2.87,2.42-4.55c2.7-2.34,5.98-3.74,9.15-5.1c0.76-0.33,1.52-0.65,2.27-0.99
						c1.82-0.82,3.86-1.46,5.82-2.08c6.88-2.18,12.81-4.06,10.22-12.31l0.93-0.29c2.89,9.18-4.1,11.39-10.85,13.53
						c-1.94,0.61-3.94,1.25-5.72,2.05c-0.76,0.34-1.52,0.66-2.29,0.99c-3.1,1.32-6.31,2.69-8.89,4.94c-1.62,1.4-2.33,2.62-2.11,3.61
						c0.47,2.08,5.01,3.36,8.33,4.29c0.42,0.12,0.83,0.23,1.22,0.35c12.36,3.58,43.2,9.59,63.54-11.51
						c-3.63-5.32-13.88-6.34-18.85-6.84c-0.51-0.05-1.24-0.09-2.1-0.13c-3.94-0.21-7.59-0.48-8.91-1.52
						c-2.42-1.91-1.73-10.18-1.72-10.26l0.97,0.09c-0.28,3.15-0.04,8.32,1.35,9.41c1.19,0.94,5.68,1.17,8.36,1.31
						c0.88,0.05,1.63,0.09,2.15,0.14c5.62,0.56,16.09,1.6,19.78,7.61l0.2,0.32l-0.26,0.27C79.89,104.58,65.89,109.95,49.63,109.95z"
						/>
				</g>
			</g>
			<g>
				<g>
					<g>
						<g>
							<g>
								<g>
									<g>
										<path class="st3" d="M23.1,48.99c1.43,8.54-4.16,20.68,2.55,27.34c2.75,2.73,5.81,2.87,9.21,3.97
											c-0.73-4.88-3.18-11.2,3.44-13.1c6.03-1.73,15.35-0.81,21.44,0.33c8.02,1.49,6.69,10.33,2.04,14.62
											c3.52,1.02,8.64-2.22,11.07-4.54c3.16-3,3.32-8.22,4-12.39c1.09-6.76,1.97-16.96-4.6-21.55"/>
									</g>
								</g>
							</g>
						</g>
						<g>
							<g>
								<g>
									<g>
										<g>
											<g>
												<path class="st2" d="M76.01,26.31c-1.73-4.67-4.87-8.74-9.99-11.68c-12.55-7.2-31.54-5.77-40.65,6.77
													C18,31.54,22.94,49.68,26.9,60.57c4.79,13.18,21.58,27.48,35.78,17.24c3.84-2.77,5.86-7.75,7.72-11.89
													C75.31,55,80.54,38.58,76.01,26.31z"/>
											</g>
										</g>
									</g>
								</g>
								<g>
									<g>
										<path class="st3" d="M52.28,81.72L52.28,81.72c-11.35,0-22.02-10.68-25.78-21c-4.6-12.65-8.58-29.78-1.48-39.55
											c5.21-7.17,14-11.28,24.12-11.28c6.07,0,12.13,1.56,17.07,4.4c4.86,2.79,8.28,6.79,10.17,11.89
											c4.84,13.09-1.45,30.63-5.62,39.92l-0.4,0.9c-1.78,3.99-3.8,8.52-7.45,11.16C59.64,80.52,56.06,81.72,52.28,81.72z
											 M49.15,10.72c-9.85,0-18.39,3.99-23.45,10.94c-6.89,9.47-2.94,26.31,1.59,38.77c3.58,9.84,14.15,20.45,24.99,20.45
											c3.6,0,7.02-1.15,10.15-3.41c3.47-2.5,5.44-6.92,7.18-10.82l0.4-0.9c4.13-9.18,10.34-26.48,5.6-39.29
											C73.8,21.55,70.5,17.69,65.81,15C61,12.24,55.08,10.72,49.15,10.72z"/>
									</g>
								</g>
							</g>
						</g>
						<g>
							<g>
								<g>
									<g>
										<g>
											<g>
												<path class="st2" d="M24.82,49.08c-4.51-3.9-8.21,1.88-6.54,6.22c1.21,3.15,7.11,7.49,8.38,2.02L24.82,49.08z"/>
											</g>
										</g>
									</g>
								</g>
								<g>
									<g>
										<path class="st3" d="M24.06,60.34c-2.38,0-5.33-2.68-6.18-4.9c-0.77-2.02-0.5-4.44,0.69-6.18c0.84-1.22,2.01-1.9,3.29-1.9
											c1.08,0,2.16,0.47,3.23,1.39l0.11,0.09l1.88,8.47l-0.02,0.09C26.47,59.96,24.92,60.34,24.06,60.34z M21.86,48.21
											c-1,0-1.92,0.55-2.6,1.54c-1.03,1.5-1.27,3.67-0.6,5.41c0.74,1.92,3.43,4.36,5.4,4.36c1.08,0,1.8-0.74,2.16-2.2
											l-1.78-8.01C23.56,48.58,22.7,48.21,21.86,48.21z"/>
									</g>
								</g>
							</g>
						</g>
						<g>
							<g>
								<g>
									<g>
										<g>
											<g>
												<path class="st2" d="M75.18,49.08c4.51-3.9,8.21,1.88,6.55,6.22c-1.21,3.15-7.11,7.49-8.38,2.02L75.18,49.08z"/>
											</g>
										</g>
									</g>
								</g>
								<g>
									<g>
										<path class="st3" d="M75.94,60.34c-0.87,0-2.41-0.38-3-2.93l-0.02-0.09l1.88-8.47l0.1-0.09c1.07-0.92,2.16-1.39,3.23-1.39
											c1.28,0,2.45,0.67,3.29,1.9c1.19,1.74,1.46,4.16,0.69,6.18C81.27,57.67,78.32,60.34,75.94,60.34z M73.78,57.31
											c0.36,1.46,1.09,2.2,2.16,2.2c1.97,0,4.66-2.44,5.4-4.36c0.67-1.74,0.43-3.91-0.6-5.4c-1.25-1.82-3.26-2.03-5.18-0.44
											L73.78,57.31z"/>
									</g>
								</g>
							</g>
						</g>
						<g>
							<g>
								<g>
									<g>
										<path class="st3" d="M76.01,26.31c-1.73-4.67-4.87-8.74-9.99-11.68c-12.55-7.2-31.54-5.77-40.65,6.77
											c-7.25,9.97-2.59,27.67,1.34,38.62c-0.05-0.75-0.09-1.5-0.15-2.24c-0.35-4.7-1.45-9.77-0.72-14.54
											c0.77-5.06,5.35-7.44,10.07-9.2c5.87-2.18,12.21-3.24,18.14-5.57c5.33-2.09,8.27-4.29,12.07-8.12
											c0.33,0.89-0.13,5.1-0.04,6.36c0.22,2.75,0.67,5.28,1.69,7.79c1.97,4.86,4.21,8.56,4.49,13.91
											c0.14,2.75-0.23,7.71,0.67,11.35C76.83,49.41,79.75,36.45,76.01,26.31z M65.94,20.38c0.04-0.05,0.08-0.11,0.11-0.16
											c0.01,0.01,0.02,0.04,0.03,0.05L65.94,20.38z"/>
									</g>
								</g>
							</g>
						</g>
						<g>
							<g>
								<g>
									<g>
										<path class="st4" d="M45.98,67.58c1.21-0.78,2.59-4.09,3.89-1.42c0.99-1.91,1.93-1.48,2.89,0.04
											c0.98,1.57,0.64,2.2-0.41,3.74c-2.68,3.93-3.69,0.98-5.61-0.85"/>
									</g>
								</g>
							</g>
						</g>
					</g>
					<g>
						<g>
							<g>
								<g>
									<path class="st3" d="M51.89,60.8c-0.18,0-0.34-0.12-0.39-0.3c-0.23-0.86-0.71-1.91-1.64-2.02
										c-0.94-0.11-2.08,0.76-2.82,2.11c-0.11,0.19-0.35,0.26-0.54,0.16c-0.2-0.11-0.27-0.35-0.16-0.54
										c0.9-1.66,2.34-2.67,3.61-2.52c0.76,0.09,1.77,0.61,2.31,2.61c0.06,0.21-0.07,0.43-0.28,0.49
										C51.96,60.8,51.92,60.8,51.89,60.8z"/>
								</g>
							</g>
						</g>
					</g>
				</g>
				<g>
					<g>
						<g>
							<g>
								<path class="st3" d="M42.97,51.33c0,1.08-0.88,1.96-1.96,1.96c-1.08,0-1.96-0.88-1.96-1.96c0-1.08,0.88-1.96,1.96-1.96
									C42.09,49.36,42.97,50.25,42.97,51.33z"/>
							</g>
						</g>
					</g>
				</g>
				<g>
					<g>
						<g>
							<g>
								<path class="st3" d="M60.84,51.33c0,1.08-0.88,1.96-1.96,1.96c-1.08,0-1.96-0.88-1.96-1.96c0-1.08,0.88-1.96,1.96-1.96
									C59.96,49.36,60.84,50.25,60.84,51.33z"/>
							</g>
						</g>
					</g>
				</g>
				<g>
					<g>
						<g>
							<g>
								<g>
									<path class="st3" d="M35.41,47.76c-0.15,0-0.3-0.09-0.37-0.24c-0.09-0.2,0.01-0.44,0.21-0.52
										c3.29-1.41,5.92-1.56,9.36-1.34c0.22,0.01,0.39,0.2,0.37,0.42c-0.01,0.22-0.19,0.39-0.42,0.37c-3.32-0.21-5.86-0.06-9,1.28
										C35.52,47.75,35.46,47.76,35.41,47.76z"/>
								</g>
							</g>
						</g>
					</g>
					<g>
						<g>
							<g>
								<g>
									<path class="st3" d="M63.46,47.76c-0.05,0-0.11-0.01-0.16-0.03c-3.14-1.34-5.68-1.49-9-1.28
										c-0.24,0.02-0.41-0.15-0.42-0.37c-0.01-0.22,0.15-0.41,0.37-0.42c3.44-0.22,6.07-0.06,9.36,1.34
										c0.2,0.09,0.3,0.32,0.21,0.52C63.77,47.67,63.62,47.76,63.46,47.76z"/>
								</g>
							</g>
						</g>
					</g>
				</g>
			</g>
		</g>
	</g>
</g>
</svg>
