<?xml version="1.0" encoding="utf-8"?>
<!-- Generator: Adobe Illustrator 27.8.0, SVG Export Plug-In . SVG Version: 6.00 Build 0)  -->
<svg version="1.1" id="Layer_1" xmlns="http://www.w3.org/2000/svg" xmlns:xlink="http://www.w3.org/1999/xlink" x="0px" y="0px"
	 viewBox="0 0 100 100" style="enable-background:new 0 0 100 100;" xml:space="preserve">
<style type="text/css">
	.st0{clip-path:url(#SVGID_00000180354343351260545340000015217431294555171515_);}
	.st1{fill:#E8E8E8;}
	.st2{fill:#FFFFFF;}
	.st3{fill:#011826;}
</style>
<g>
	<defs>
		<path id="SVGID_1_" d="M100,50.06C99.97,77.67,77.56,100.03,49.94,100C22.33,99.97-0.03,77.55,0,49.94
			C0.03,22.33,22.44-0.03,50.06,0C77.67,0.03,100.03,22.45,100,50.06z"/>
	</defs>
	<clipPath id="SVGID_00000015349333779486084590000016132114417888078736_">
		<use xlink:href="#SVGID_1_"  style="overflow:visible;"/>
	</clipPath>
	<g style="clip-path:url(#SVGID_00000015349333779486084590000016132114417888078736_);">
		<g>
			<g>
				<path class="st1" d="M100,50.06C99.97,77.67,77.56,100.03,49.94,100C22.33,99.97-0.03,77.55,0,49.94
					C0.03,22.33,22.44-0.03,50.06,0C77.67,0.03,100.03,22.45,100,50.06z"/>
			</g>
		</g>
		<g>
			<g>
				<g>
					<g>
						<path class="st2" d="M45.15,75.69c3.54,11.25-8.33,11.41-16.3,14.99c-3.87,1.73-8.01,3.16-11.3,6
							c-6.51,5.64,2.21,7.51,7.62,9.08c22.12,6.41,47.67,5.59,64.29-11.91c-3.47-5.64-13.41-6.78-19.41-7.38
							c-2.26-0.23-9.07-0.22-10.76-1.55c-1.8-1.42-1.74-7.52-1.54-9.84"/>
					</g>
				</g>
			</g>
			<g>
				<path class="st3" d="M49.69,109.94c-7.77,0-16.05-1.23-24.65-3.71c-0.39-0.11-0.8-0.23-1.21-0.35
					c-3.95-1.11-8.42-2.37-9.01-5.01c-0.31-1.38,0.48-2.87,2.42-4.55c2.7-2.34,5.98-3.74,9.15-5.1c0.76-0.32,1.52-0.65,2.27-0.98
					c1.82-0.82,3.86-1.46,5.82-2.08c6.87-2.18,12.81-4.06,10.21-12.31l0.93-0.29c2.89,9.18-4.09,11.39-10.85,13.53
					c-1.94,0.61-3.94,1.25-5.72,2.05c-0.75,0.34-1.52,0.66-2.28,0.99c-3.1,1.32-6.31,2.69-8.89,4.94c-1.62,1.4-2.33,2.62-2.11,3.61
					c0.46,2.08,5.01,3.36,8.33,4.29c0.42,0.12,0.83,0.23,1.22,0.35c12.36,3.58,43.2,9.59,63.53-11.5
					c-3.63-5.32-13.87-6.34-18.84-6.84c-0.51-0.05-1.24-0.09-2.1-0.13c-3.94-0.21-7.59-0.48-8.91-1.52
					c-2.43-1.91-1.73-10.18-1.72-10.26l0.97,0.09c-0.28,3.15-0.04,8.31,1.35,9.41c1.19,0.94,5.68,1.17,8.36,1.31
					c0.88,0.05,1.63,0.09,2.15,0.14c5.62,0.56,16.09,1.6,19.78,7.6l0.2,0.32l-0.26,0.27C79.95,104.57,65.95,109.94,49.69,109.94z"/>
			</g>
		</g>
		<g>
			<g>
				<g>
					<g>
						<g>
							<g>
								<g>
									<path class="st3" d="M88.07,67.14c1.26,0.68,2.52,1.67,3.93,2.13c-2.34-6.15-5.18-10.14-5.87-17.06
										c-0.58-5.82-2.18-11.32-3.8-16.9c-1.38-4.73-2.52-9.86-5.49-13.81c-2.75-3.66-13.62-12.48-17.21-5.63l-32.22,4
										c-2.54,5.25-5.72,9.69-7.68,15.26c-2.21,6.27-3.47,12.9-4.62,19.44c-1.08,6.14-3.45,12.08-7.08,17.22
										c2.07,1.07,4.41,0.91,6.39,1.88c0.46-0.76,1.45-1.56,1.79-2.37c0,1.01,0.4,2.02,0.44,3.05c3.69,1.53,4.36,0.72,6.05-2.68
										c0.43,1.04,0.64,2.38,0.72,3.59c2.48,1.21,5.11,0.99,7.8,1.27c0.26-1.12,0.64-2.28,0.82-3.41
										c2.89,4.59,13.33,3.06,18.44,3.62c4.69,0.51,9.37,1.38,14.14,1.41c1.63,0.01,4.03,0.4,5.45-0.5
										c1.34-0.86,1.2-2.8,2.15-3.68c0.18-0.17,0.63-1.25,0.81-1.56c1.17,0.92,1.63,2.58,2.72,3.4c0.31-1.59,0.71-3.38,1.49-4.84
										c1.18,0.6,1.72,2.14,2.21,3.58c3.85-1.14,7.52-0.39,6.02-5.59c1.18,0.61,2.34,1.44,3.46,2.27
										C89.02,69.81,88.67,68.42,88.07,67.14z"/>
								</g>
							</g>
						</g>
					</g>
					<g>
						<g>
							<g>
								<g>
									<g>
										<g>
											<path class="st2" d="M26.18,48.4c-4.51-3.86-8.21,1.87-6.54,6.17c1.21,3.12,7.11,7.43,8.38,2L26.18,48.4z"/>
										</g>
									</g>
								</g>
							</g>
							<g>
								<g>
									<path class="st3" d="M25.43,59.58L25.43,59.58c-2.38,0-5.32-2.66-6.18-4.86c-0.77-1.99-0.51-4.39,0.67-6.11
										c0.84-1.23,2.01-1.91,3.3-1.91c1.07,0,2.16,0.46,3.23,1.38l0.11,0.09l1.88,8.4l-0.02,0.09
										C27.83,59.2,26.29,59.58,25.43,59.58z M23.23,47.54c-1,0-1.93,0.55-2.61,1.54c-1.01,1.48-1.25,3.62-0.59,5.34
										c0.74,1.91,3.43,4.33,5.4,4.33h0c1.08,0,1.8-0.73,2.16-2.18l-1.78-7.94C24.93,47.9,24.06,47.54,23.23,47.54z"/>
								</g>
							</g>
						</g>
					</g>
					<g>
						<g>
							<g>
								<g>
									<g>
										<g>
											<path class="st2" d="M76.54,48.4c4.51-3.86,8.21,1.87,6.55,6.17c-1.21,3.12-7.11,7.43-8.38,2L76.54,48.4z"/>
										</g>
									</g>
								</g>
							</g>
							<g>
								<g>
									<path class="st3" d="M77.3,59.58c-0.87,0-2.41-0.38-3-2.91l-0.02-0.09l1.88-8.4l0.11-0.09c1.07-0.91,2.15-1.38,3.23-1.38
										c1.29,0,2.46,0.68,3.3,1.91c1.18,1.72,1.45,4.12,0.68,6.11C82.63,56.92,79.68,59.58,77.3,59.58z M75.14,56.57
										c0.36,1.44,1.08,2.18,2.16,2.18c1.97,0,4.66-2.42,5.4-4.33c0.66-1.71,0.43-3.86-0.59-5.34c-1.25-1.82-3.26-2.04-5.19-0.45
										L75.14,56.57z"/>
								</g>
							</g>
						</g>
					</g>
					<g>
						<g>
							<g>
								<g>
									<g>
										<g>
											<path class="st2" d="M77.37,25.81c-1.73-4.64-4.87-8.67-9.99-11.59C54.83,7.08,35.85,8.5,26.73,20.94
												C19.36,31,24.31,49,28.26,59.8c4.79,13.08,21.58,27.27,35.77,17.11c3.84-2.75,5.86-7.7,7.72-11.8
												C76.67,54.27,81.9,37.98,77.37,25.81z"/>
										</g>
									</g>
								</g>
							</g>
							<g>
								<g>
									<path class="st3" d="M53.65,80.79C53.65,80.79,53.64,80.79,53.65,80.79c-11.36,0-22.02-10.6-25.77-20.84
										c-4.6-12.55-8.58-29.55-1.48-39.25C31.61,13.58,40.4,9.5,50.52,9.5c6.07,0,12.13,1.55,17.07,4.36
										c4.86,2.77,8.28,6.74,10.17,11.8c4.84,12.99-1.44,30.4-5.62,39.62l-0.4,0.9c-1.78,3.96-3.8,8.46-7.45,11.07
										C61,79.59,57.42,80.79,53.65,80.79z M50.52,10.34c-9.85,0-18.39,3.96-23.45,10.85c-6.89,9.4-2.94,26.11,1.59,38.47
										c3.57,9.76,14.14,20.29,24.99,20.29h0c3.6,0,7.01-1.14,10.15-3.38c3.47-2.48,5.44-6.87,7.18-10.74l0.4-0.9
										c4.12-9.1,10.33-26.27,5.6-38.98c-1.82-4.88-5.11-8.7-9.8-11.37C62.36,11.85,56.44,10.34,50.52,10.34z"/>
								</g>
							</g>
						</g>
					</g>
					<g>
						<g>
							<g>
								<g>
									<path class="st3" d="M75.58,55.39c3.19-9.57,5.1-20.68,1.79-29.58c-1.73-4.64-4.87-8.67-9.99-11.59
										C54.83,7.08,35.85,8.5,26.73,20.94c-5.99,8.18-3.84,21.6-0.7,32.14c0.2-7.09,0.65-13.95,1.39-21
										c1.02,0.34,2.24,0.52,3.23,0.86c0.23-0.67,0.94-1.37,1.09-1.96c0.15,0.87,0.89,1.64,1.13,2.37
										c0.93-0.8,1.77-1.89,2.58-2.78c0.53,3.04,4.77,3.47,4.96,0.05c0.74,0.56,1.62,1.67,2.13,2.68c0.21-1.2,0.68-2.4,1.35-3.4
										c1.28,0.65,1.94,2.28,2.87,3.55c0.39-1.63,1.18-3.28,2.42-4.29c0.82,1.83,1.07,3.91,2.14,5.74
										c0.58-1.67,0.97-3.5,2.06-4.87c1.21,1.49,1.66,3.57,2.57,5.22c0.64-1.55,0.99-3.3,2.23-4.44c1.08,1.13,1.33,2.96,1.83,4.5
										c1-1.8,1.32-4.86,3.22-5.77c0.52,1.58,0.56,3.28,0.9,4.82c0.74-1.49,1.06-3.25,2.06-4.51c0.81,1.32,0.94,2.96,1.13,4.54
										c2.64,0.12,3.66-0.45,4.37-2.91C74.16,38.51,75.66,47.49,75.58,55.39z"/>
								</g>
							</g>
						</g>
					</g>
					<g>
						<g>
							<g>
								<g>
									<path class="st3" d="M43.83,62.66c1.27-0.15,2.56-0.47,3.73-0.92c0.49-0.19,1.14-0.65,1.64-0.73
										c0.67-0.1,1.06,0.33,1.6,0.29c1.32-0.1,1.69-1.19,3.29-0.66c0.87,0.28,2.61,1,3.34,1.53c0.16,0.12,0.61,0.22,0.79,0.32
										c-2.1,1.12-4.19,2.39-6.56,2.92c-2.47,0.55-4.46-0.71-6.39-1.98c-0.08-0.05-0.5-0.31-0.33-0.22"/>
								</g>
							</g>
						</g>
					</g>
				</g>
				<g>
					<g>
						<g>
							<g>
								<path class="st3" d="M52.81,56.95c-0.14,0-0.27-0.07-0.35-0.2c-0.56-0.99-1.36-1.62-2-1.62c-0.5,0.01-0.95,0.39-1.32,1.12
									c-0.1,0.2-0.34,0.28-0.54,0.17c-0.2-0.1-0.27-0.34-0.17-0.54c0.65-1.27,1.46-1.55,2.02-1.56c0.96,0.01,1.98,0.74,2.71,2.02
									c0.11,0.19,0.04,0.44-0.15,0.54C52.94,56.93,52.88,56.95,52.81,56.95z"/>
							</g>
						</g>
					</g>
				</g>
			</g>
			<g>
				<g>
					<g>
						<g>
							<path class="st3" d="M42.29,48.98c0,1.07-0.88,1.95-1.96,1.95c-1.08,0-1.96-0.87-1.96-1.95c0-1.08,0.88-1.95,1.96-1.95
								C41.41,47.03,42.29,47.9,42.29,48.98z"/>
						</g>
					</g>
				</g>
			</g>
			<g>
				<g>
					<g>
						<g>
							<path class="st3" d="M62.14,48.98c0,1.07-0.88,1.95-1.96,1.95c-1.08,0-1.96-0.87-1.96-1.95c0-1.08,0.88-1.95,1.96-1.95
								C61.26,47.03,62.14,47.9,62.14,48.98z"/>
						</g>
					</g>
				</g>
			</g>
			<g>
				<g>
					<g>
						<g>
							<path class="st3" d="M35.2,44.72c-0.13,0-0.26-0.07-0.34-0.19c-0.12-0.19-0.06-0.43,0.13-0.55c1.43-0.89,4.57-1.8,6.23-1.19
								c0.56,0.21,0.95,0.58,1.11,1.08c0.07,0.21-0.05,0.43-0.26,0.5c-0.21,0.07-0.43-0.05-0.5-0.26c-0.09-0.26-0.29-0.45-0.62-0.57
								c-1.37-0.5-4.25,0.32-5.53,1.12C35.34,44.7,35.27,44.72,35.2,44.72z"/>
						</g>
					</g>
				</g>
			</g>
			<g>
				<g>
					<g>
						<g>
							<path class="st3" d="M63.55,44.72c-0.07,0-0.14-0.02-0.21-0.06c-1.28-0.8-4.16-1.62-5.53-1.12
								c-0.33,0.12-0.54,0.31-0.62,0.57c-0.07,0.21-0.29,0.32-0.5,0.26c-0.21-0.07-0.32-0.29-0.26-0.5c0.16-0.5,0.54-0.87,1.11-1.08
								c1.66-0.61,4.8,0.3,6.23,1.19c0.19,0.12,0.24,0.36,0.13,0.55C63.81,44.65,63.68,44.72,63.55,44.72z"/>
						</g>
					</g>
				</g>
			</g>
		</g>
	</g>
</g>
</svg>
