<?xml version="1.0" encoding="utf-8"?>
<!-- Generator: Adobe Illustrator 27.8.0, SVG Export Plug-In . SVG Version: 6.00 Build 0)  -->
<svg version="1.1" id="Layer_1" xmlns="http://www.w3.org/2000/svg" xmlns:xlink="http://www.w3.org/1999/xlink" x="0px" y="0px"
	 viewBox="0 0 100 100" style="enable-background:new 0 0 100 100;" xml:space="preserve">
<style type="text/css">
	.st0{clip-path:url(#SVGID_00000142153836818716503510000017431875751205412515_);}
	.st1{fill:#E8E8E8;}
	.st2{fill:#FFFFFF;}
	.st3{fill:#011826;}
	.st4{fill:#B0B7BB;}
</style>
<g>
	<g>
		<defs>
			<path id="SVGID_1_" d="M100,50.06C99.97,77.67,77.56,100.03,49.94,100C22.33,99.97-0.03,77.55,0,49.94
				C0.03,22.33,22.44-0.03,50.06,0C77.67,0.03,100.03,22.45,100,50.06z"/>
		</defs>
		<clipPath id="SVGID_00000003062852708028272010000006392192445181171901_">
			<use xlink:href="#SVGID_1_"  style="overflow:visible;"/>
		</clipPath>
		<g style="clip-path:url(#SVGID_00000003062852708028272010000006392192445181171901_);">
			<g>
				<g>
					<path class="st1" d="M100,50.06C99.97,77.67,77.56,100.03,49.94,100C22.33,99.97-0.03,77.55,0,49.94
						C0.03,22.33,22.44-0.03,50.06,0C77.67,0.03,100.03,22.45,100,50.06z"/>
				</g>
			</g>
		</g>
		<g style="clip-path:url(#SVGID_00000003062852708028272010000006392192445181171901_);">
			<g>
				<g>
					<g>
						<g>
							<path class="st2" d="M44.71,76.44c3.54,11.25-8.33,11.41-16.3,14.98c-3.87,1.73-8.01,3.16-11.3,6
								c-6.51,5.64,2.21,7.51,7.62,9.08c22.12,6.41,47.67,5.59,64.29-11.91c-3.47-5.64-13.41-6.78-19.41-7.38
								c-2.26-0.23-9.07-0.22-10.76-1.55c-1.8-1.42-1.74-7.52-1.54-9.84"/>
						</g>
					</g>
				</g>
				<g>
					<path class="st3" d="M49.25,110.69c-7.77,0-16.05-1.23-24.65-3.72c-0.39-0.11-0.8-0.23-1.21-0.34
						c-3.95-1.11-8.42-2.37-9.01-5.01c-0.31-1.38,0.48-2.87,2.42-4.55c2.7-2.34,5.98-3.74,9.15-5.1c0.76-0.33,1.52-0.65,2.27-0.98
						c1.82-0.82,3.86-1.46,5.82-2.09c6.87-2.18,12.81-4.06,10.21-12.31l0.93-0.29c2.89,9.18-4.09,11.39-10.85,13.53
						c-1.94,0.61-3.94,1.25-5.72,2.05c-0.75,0.34-1.52,0.66-2.28,0.99c-3.1,1.32-6.31,2.69-8.9,4.94c-1.62,1.4-2.33,2.62-2.11,3.61
						c0.46,2.08,5.01,3.36,8.33,4.29c0.42,0.12,0.83,0.23,1.22,0.35c12.35,3.58,43.2,9.58,63.53-11.5
						c-3.63-5.32-13.87-6.34-18.84-6.84c-0.51-0.05-1.24-0.09-2.1-0.13c-3.94-0.21-7.59-0.48-8.91-1.52
						c-2.43-1.91-1.73-10.18-1.72-10.26l0.97,0.09c-0.28,3.15-0.04,8.32,1.35,9.41c1.19,0.94,5.68,1.17,8.36,1.32
						c0.88,0.05,1.63,0.09,2.15,0.14c5.62,0.56,16.09,1.6,19.78,7.61l0.2,0.32l-0.26,0.27C79.51,105.32,65.51,110.69,49.25,110.69z"
						/>
				</g>
			</g>
		</g>
		<g style="clip-path:url(#SVGID_00000003062852708028272010000006392192445181171901_);">
			<g>
				<g>
					<g>
						<g>
							<g>
								<g>
									<path class="st2" d="M27.92,54.1c-3.96-3.41-7.2,1.65-5.74,5.45c1.06,2.76,6.23,6.57,7.34,1.77L27.92,54.1z"/>
								</g>
							</g>
						</g>
					</g>
					<g>
						<g>
							<path class="st3" d="M27.26,63.98C27.26,63.98,27.26,63.98,27.26,63.98c-2.09,0-4.67-2.35-5.42-4.29
								c-0.68-1.77-0.44-3.89,0.6-5.41c0.74-1.07,1.76-1.67,2.88-1.67c0.94,0,1.89,0.41,2.83,1.22l0.09,0.08l1.65,7.42l-0.02,0.08
								C29.37,63.64,28.02,63.98,27.26,63.98z M25.33,53.34c-0.87,0-1.68,0.48-2.28,1.35c-0.9,1.31-1.11,3.21-0.53,4.74
								c0.65,1.69,3.01,3.82,4.73,3.82c0.94,0,1.58-0.65,1.89-1.92l-1.56-7.02C26.83,53.66,26.06,53.34,25.33,53.34z"/>
						</g>
					</g>
				</g>
			</g>
			<g>
				<g>
					<g>
						<g>
							<g>
								<g>
									<path class="st2" d="M72.08,54.1c3.96-3.41,7.2,1.65,5.74,5.45c-1.06,2.76-6.24,6.57-7.34,1.77L72.08,54.1z"/>
								</g>
							</g>
						</g>
					</g>
					<g>
						<g>
							<path class="st3" d="M72.74,63.98c-0.76,0-2.11-0.33-2.63-2.57l-0.02-0.08l1.65-7.42l0.09-0.08
								c0.94-0.81,1.89-1.22,2.83-1.22c1.12,0,2.15,0.59,2.88,1.67c1.05,1.52,1.28,3.65,0.61,5.41
								C77.41,61.63,74.83,63.98,72.74,63.98z M70.85,61.32c0.31,1.28,0.95,1.92,1.89,1.92c1.73,0,4.08-2.14,4.73-3.82
								c0.59-1.52,0.38-3.43-0.52-4.74c-1.1-1.6-2.86-1.79-4.54-0.38L70.85,61.32z"/>
						</g>
					</g>
				</g>
			</g>
			<g>
				<g>
					<g>
						<g>
							<g>
								<g>
									<path class="st2" d="M72.8,34.15c-1.51-4.09-4.27-7.66-8.76-10.24C53.04,17.6,36.4,18.86,28.4,29.85
										c-6.46,8.89-2.13,24.78,1.34,34.33c4.2,11.56,18.92,24.09,31.36,15.12c3.37-2.43,5.14-6.8,6.77-10.43
										C72.18,59.29,76.78,44.9,72.8,34.15z"/>
								</g>
							</g>
						</g>
					</g>
					<g>
						<g>
							<path class="st3" d="M52,82.71C52,82.71,52,82.71,52,82.71c-9.96,0-19.31-9.36-22.6-18.41c-4.03-11.09-7.52-26.1-1.29-34.67
								c4.57-6.29,12.28-9.89,21.15-9.89c5.32,0,10.64,1.37,14.97,3.85c4.26,2.45,7.26,5.95,8.92,10.43
								c4.24,11.47-1.27,26.85-4.93,35l-0.35,0.79c-1.56,3.5-3.33,7.47-6.54,9.78C58.45,81.66,55.31,82.71,52,82.71z M49.26,20.47
								c-8.63,0-16.13,3.5-20.56,9.59c-6.04,8.31-2.58,23.07,1.39,33.99c3.13,8.62,12.4,17.93,21.91,17.93c0,0,0,0,0,0
								c3.15,0,6.15-1,8.9-2.99c3.05-2.2,4.77-6.07,6.3-9.49l0.35-0.79c3.61-8.04,9.06-23.21,4.91-34.44
								c-1.59-4.31-4.49-7.69-8.6-10.05C59.64,21.81,54.45,20.47,49.26,20.47z"/>
						</g>
					</g>
				</g>
			</g>
			<g>
				<g>
					<g>
						<g>
							<path class="st3" d="M72.8,34.15c-1.51-4.09-4.27-7.66-8.76-10.24C53.04,17.6,36.4,18.86,28.4,29.85
								c-5.28,7.27-3.35,19.23-0.57,28.57c1.72-3.17,0.73-9.14,1.44-12.4c1.15-5.27,6.34-6.06,10.53-8.36
								c3.38-1.86,5.98-4.94,7.58-8.42c2.02,3.2,7.32,4.84,10.54,6.5c1.74,0.9,3.38,2.14,5.12,2.99c1.77,0.87,3.86,0.72,4.85,2.85
								c0.95,2.03,0.02,4.54-0.04,6.72c-0.06,2.39,0.87,3.56,1.56,5.69c0.43,1.32,0.29,5.56,1.74,6.26
								c0.03,0.01,0.06,0.01,0.09,0.02C74.03,51.81,75.71,42.01,72.8,34.15z"/>
						</g>
					</g>
				</g>
			</g>
			<g>
				<g>
					<g>
						<g>
							<path class="st3" d="M42.08,21.81c-7.14,0.65-6.28-8.58-2.14-11.68c4.46-3.34,11.36-4.6,16.66-2.56
								c3.99,1.54,7.79,6.54,5.38,10.93c-2.03,3.7-9.45,6.5-13.36,5.73"/>
						</g>
					</g>
				</g>
			</g>
			<g>
				<g>
					<g>
						<g>
							<path class="st4" d="M44.02,69.22c0.6-0.6,1.6-1.45,2.42-1.71c1.36-0.43,1.61,0.38,2.86,0.29c1.03-0.07,1.55-1.01,2.85-1.01
								c0.96,0,2.3,0.7,3.24,1.03c-1.1,4.45-7.75,2.81-9.94,2.39"/>
						</g>
					</g>
				</g>
			</g>
			<g>
				<g>
					<g>
						<g>
							<path class="st3" d="M46.22,61.46c-0.05,0-0.09-0.01-0.14-0.03c-0.18-0.08-0.26-0.28-0.18-0.46
								c0.56-1.28,1.56-2.08,2.74-2.18c1.3-0.11,2.66,0.63,3.52,1.94c0.11,0.16,0.06,0.38-0.1,0.49c-0.16,0.11-0.38,0.06-0.48-0.1
								c-0.72-1.1-1.82-1.71-2.87-1.63c-0.93,0.08-1.7,0.7-2.16,1.76C46.48,61.38,46.35,61.46,46.22,61.46z"/>
						</g>
					</g>
				</g>
			</g>
			<g>
				<g>
					<g>
						<g>
							<path class="st3" d="M42.14,52.03c0,0.95-0.77,1.72-1.72,1.72c-0.95,0-1.72-0.77-1.72-1.72c0-0.95,0.77-1.72,1.72-1.72
								C41.37,50.3,42.14,51.07,42.14,52.03z"/>
						</g>
					</g>
				</g>
			</g>
			<g>
				<g>
					<g>
						<g>
							<path class="st3" d="M59.09,52.03c0,0.95-0.77,1.72-1.72,1.72c-0.95,0-1.72-0.77-1.72-1.72c0-0.95,0.77-1.72,1.72-1.72
								C58.32,50.3,59.09,51.07,59.09,52.03z"/>
						</g>
					</g>
				</g>
			</g>
			<g>
				<g>
					<g>
						<g>
							<path class="st3" d="M35.34,49.04c-0.12,0-0.23-0.06-0.3-0.17c-0.1-0.17-0.05-0.38,0.12-0.48c4.7-2.84,4.25-2.48,9.26-1.25
								c0.19,0.05,0.3,0.24,0.26,0.43c-0.05,0.19-0.23,0.3-0.42,0.26c-3.02-0.74-6.28-0.31-8.73,1.17
								C35.46,49.02,35.4,49.04,35.34,49.04z"/>
						</g>
					</g>
				</g>
			</g>
			<g>
				<g>
					<g>
						<g>
							<path class="st3" d="M61.86,49.04c-0.06,0-0.12-0.02-0.18-0.05c-2.44-1.47-5.71-1.91-8.73-1.17
								c-0.19,0.05-0.38-0.07-0.42-0.26c-0.05-0.19,0.07-0.38,0.26-0.42c3.2-0.79,6.66-0.32,9.26,1.25c0.17,0.1,0.22,0.32,0.12,0.48
								C62.1,48.98,61.98,49.04,61.86,49.04z"/>
						</g>
					</g>
				</g>
			</g>
		</g>
	</g>
</g>
</svg>
