<?xml version="1.0" encoding="utf-8"?>
<!-- Generator: Adobe Illustrator 27.8.0, SVG Export Plug-In . SVG Version: 6.00 Build 0)  -->
<svg version="1.1" id="Layer_1" xmlns="http://www.w3.org/2000/svg" xmlns:xlink="http://www.w3.org/1999/xlink" x="0px" y="0px"
	 viewBox="0 0 100 100" style="enable-background:new 0 0 100 100;" xml:space="preserve">
<style type="text/css">
	.st0{clip-path:url(#SVGID_00000012458148367865238840000011578563946219227036_);}
	.st1{fill:#E8E8E8;}
	.st2{fill:#FFFFFF;}
	.st3{fill:#011826;}
	.st4{fill:#777776;}
</style>
<g>
	<defs>
		<path id="SVGID_1_" d="M100,50.06C99.97,77.67,77.56,100.03,49.94,100C22.33,99.97-0.03,77.55,0,49.94
			C0.03,22.33,22.44-0.03,50.06,0C77.67,0.03,100.03,22.45,100,50.06z"/>
	</defs>
	<clipPath id="SVGID_00000089550956553317542250000002745430334214626445_">
		<use xlink:href="#SVGID_1_"  style="overflow:visible;"/>
	</clipPath>
	<g style="clip-path:url(#SVGID_00000089550956553317542250000002745430334214626445_);">
		<g>
			<g>
				<path class="st1" d="M100,50.06C99.97,77.67,77.56,100.03,49.94,100C22.33,99.97-0.03,77.55,0,49.94
					C0.03,22.33,22.44-0.03,50.06,0C77.67,0.03,100.03,22.45,100,50.06z"/>
			</g>
		</g>
	</g>
	<g style="clip-path:url(#SVGID_00000089550956553317542250000002745430334214626445_);">
		<g>
			<g>
				<g>
					<g>
						<path class="st2" d="M44.71,75.7c3.54,11.25-8.33,11.41-16.3,14.99c-3.87,1.73-8.01,3.16-11.3,6
							c-6.51,5.64,2.21,7.51,7.62,9.08c22.12,6.41,47.67,5.59,64.29-11.91c-3.47-5.64-13.41-6.78-19.41-7.38
							c-2.26-0.23-9.07-0.22-10.76-1.55c-1.8-1.42-1.74-7.52-1.54-9.84"/>
					</g>
				</g>
			</g>
			<g>
				<path class="st3" d="M49.25,109.94c-7.77,0-16.05-1.23-24.65-3.71c-0.39-0.11-0.8-0.23-1.21-0.34
					c-3.95-1.11-8.42-2.37-9.01-5.01c-0.31-1.38,0.48-2.87,2.42-4.55c2.7-2.34,5.98-3.74,9.15-5.1c0.76-0.33,1.52-0.65,2.27-0.98
					c1.82-0.82,3.86-1.46,5.82-2.08c6.87-2.18,12.81-4.06,10.21-12.31l0.93-0.29c2.89,9.18-4.09,11.39-10.85,13.53
					c-1.94,0.61-3.94,1.25-5.72,2.05c-0.75,0.34-1.52,0.66-2.28,0.99c-3.1,1.32-6.31,2.69-8.9,4.94c-1.62,1.4-2.33,2.62-2.11,3.61
					c0.46,2.08,5.01,3.36,8.33,4.29c0.42,0.12,0.83,0.23,1.22,0.35c12.35,3.58,43.2,9.59,63.53-11.5
					c-3.63-5.32-13.87-6.34-18.84-6.84c-0.51-0.05-1.24-0.09-2.1-0.13c-3.94-0.21-7.59-0.48-8.91-1.52
					c-2.43-1.91-1.73-10.18-1.72-10.26l0.97,0.09c-0.28,3.15-0.04,8.32,1.35,9.41c1.19,0.94,5.68,1.17,8.36,1.31
					c0.88,0.05,1.63,0.09,2.15,0.14c5.62,0.56,16.09,1.6,19.78,7.6l0.2,0.32l-0.26,0.27C79.51,104.57,65.51,109.94,49.25,109.94z"/>
			</g>
		</g>
		<g>
			<g>
				<g>
					<g>
						<path class="st2" d="M69.61,86.47c-1.59-0.16-5.44-0.21-8.17-0.68c-5.45,3.6-15.41,5.31-20.79,0.39
							c-3.51,1.82-8.34,2.75-12.25,4.5c-3.87,1.73-8.01,3.16-11.3,6c-6.51,5.64,2.21,7.51,7.62,9.08
							c22.12,6.41,47.67,5.59,64.29-11.91C85.55,88.21,75.61,87.07,69.61,86.47z"/>
					</g>
				</g>
			</g>
			<g>
				<path class="st3" d="M49.31,109.92C49.31,109.92,49.31,109.92,49.31,109.92c-7.95,0-16.26-1.24-24.72-3.69
					c-0.39-0.11-0.8-0.23-1.21-0.34c-3.95-1.11-8.42-2.37-9.01-5.01c-0.31-1.38,0.48-2.87,2.42-4.55c2.7-2.34,5.98-3.74,9.15-5.1
					c0.76-0.33,1.52-0.65,2.27-0.98c1.82-0.82,3.85-1.46,5.81-2.08c2.34-0.74,4.55-1.44,6.41-2.41l0.3-0.16l0.25,0.23
					c2.64,2.41,6.17,2.92,8.67,2.92c3.97,0,8.39-1.29,11.52-3.36l0.16-0.11l0.19,0.03c1.82,0.32,4.13,0.44,5.98,0.54
					c0.88,0.05,1.63,0.09,2.15,0.14c5.62,0.56,16.09,1.6,19.78,7.6l0.2,0.32l-0.26,0.27C79.6,104.47,65.75,109.92,49.31,109.92z
					 M40.58,86.76c-1.87,0.93-4.1,1.63-6.26,2.32c-1.94,0.61-3.94,1.25-5.71,2.04c-0.75,0.34-1.52,0.66-2.28,0.99
					c-3.1,1.32-6.31,2.69-8.9,4.94c-1.62,1.4-2.33,2.62-2.11,3.61c0.46,2.08,5.01,3.36,8.33,4.29c0.42,0.12,0.83,0.23,1.22,0.35
					c8.36,2.42,16.59,3.65,24.44,3.65c16.01,0,29.52-5.24,39.09-15.15c-3.63-5.32-13.87-6.34-18.84-6.84
					c-0.51-0.05-1.24-0.09-2.1-0.13c-1.82-0.1-4.07-0.22-5.91-0.52c-3.27,2.11-7.81,3.41-11.9,3.41
					C45.96,89.71,42.83,88.69,40.58,86.76z"/>
			</g>
		</g>
	</g>
	<g style="clip-path:url(#SVGID_00000089550956553317542250000002745430334214626445_);">
		<g>
			<g>
				<g>
					<g>
						<g>
							<g>
								<g>
									<path class="st2" d="M74.65,48.41c4.36-3.76,7.93,1.82,6.32,6.01c-1.17,3.04-6.87,7.23-8.09,1.95L74.65,48.41z"/>
								</g>
							</g>
						</g>
					</g>
					<g>
						<g>
							<path class="st3" d="M75.39,59.29c-0.84,0-2.32-0.37-2.9-2.83l-0.02-0.09l1.82-8.18l0.1-0.09c1.03-0.89,2.08-1.34,3.12-1.34
								c1.24,0,2.36,0.65,3.18,1.83c1.15,1.68,1.41,4.02,0.67,5.97C80.53,56.71,77.68,59.29,75.39,59.29z M73.3,56.37
								c0.35,1.41,1.05,2.12,2.09,2.12c1.9,0,4.5-2.35,5.21-4.21c0.65-1.68,0.41-3.78-0.58-5.22c-1.21-1.76-3.15-1.97-5-0.42
								L73.3,56.37z"/>
						</g>
					</g>
				</g>
			</g>
			<g>
				<g>
					<g>
						<g>
							<g>
								<g>
									<path class="st2" d="M25.35,48.41c-4.36-3.76-7.93,1.82-6.32,6.01c1.17,3.04,6.87,7.23,8.09,1.95L25.35,48.41z"/>
								</g>
							</g>
						</g>
					</g>
					<g>
						<g>
							<path class="st3" d="M24.61,59.29L24.61,59.29c-2.3,0-5.14-2.59-5.97-4.73c-0.75-1.95-0.49-4.29,0.67-5.97
								c0.81-1.18,1.94-1.83,3.18-1.83c1.04,0,2.09,0.45,3.12,1.34l0.1,0.09l1.82,8.18l-0.02,0.09
								C26.94,58.93,25.45,59.29,24.61,59.29z M22.49,47.57c-0.96,0-1.85,0.53-2.51,1.48c-0.99,1.44-1.22,3.54-0.58,5.22
								c0.71,1.86,3.31,4.21,5.21,4.21c1.04,0,1.74-0.71,2.09-2.12l-1.72-7.73C24.14,47.93,23.3,47.57,22.49,47.57z"/>
						</g>
					</g>
				</g>
			</g>
			<g>
				<g>
					<g>
						<g>
							<g>
								<g>
									<path class="st2" d="M75.45,27.14c-1.67-4.8-4.7-8.99-9.65-12.01c-12.13-7.4-30.46-5.93-39.26,6.96
										c-7.12,10.42-2.34,29.06,1.48,40.26c4.63,13.55,20.84,28.25,34.56,17.73c3.71-2.85,5.66-7.97,7.46-12.22
										C74.77,56.63,79.83,39.75,75.45,27.14z"/>
								</g>
							</g>
						</g>
					</g>
					<g>
						<g>
							<path class="st3" d="M52.54,84.07L52.54,84.07c-10.97,0-21.27-10.97-24.9-21.58c-4.43-12.99-8.28-30.59-1.43-40.62
								c5.03-7.37,13.53-11.6,23.31-11.6c5.87,0,11.73,1.61,16.5,4.52c4.69,2.87,8,6.98,9.82,12.22c4.67,13.44-1.4,31.46-5.43,41.01
								l-0.39,0.93c-1.72,4.1-3.67,8.75-7.19,11.46C59.65,82.84,56.19,84.07,52.54,84.07z M49.51,11.08
								c-9.51,0-17.76,4.1-22.64,11.25c-6.66,9.76-2.85,27.08,1.53,39.9c3.45,10.12,13.66,21.04,24.13,21.04h0
								c3.47,0,6.77-1.18,9.79-3.5c3.36-2.58,5.26-7.12,6.94-11.13l0.39-0.93c3.99-9.44,9.99-27.25,5.41-40.43
								c-1.76-5.06-4.95-9.03-9.48-11.79C60.95,12.64,55.23,11.08,49.51,11.08z"/>
						</g>
					</g>
				</g>
			</g>
			<g>
				<g>
					<g>
						<g>
							<path class="st3" d="M75.45,27.14c-1.67-4.8-4.7-8.99-9.65-12.01c-12.13-7.4-30.46-5.93-39.26,6.96
								c-5.41,7.92-3.95,20.58-1.26,31.12c-0.24-2.51-1.1-5.07-0.76-7.65c0.36-2.75,1.7-3.41,2.63-5.97
								c0.83-2.28-0.01-5.19,0.98-7.39c0.86-1.9,3.01-2.88,4.12-4.67c0.88-1.41,1.3-3.26,1.57-4.89c4.64,2.19,9.96,2.51,15.05,1.56
								c4.21-0.78,9.09-4.12,13.62-2.8c3.77,1.09,8.65,6.3,10.2,9.74c1.63,3.59,1.05,9,1.3,13c0.23,3.71-1.77,7.73,0.43,11.29
								C77.06,46.09,78.41,35.65,75.45,27.14z"/>
						</g>
					</g>
				</g>
			</g>
			<g>
				<g>
					<g>
						<g>
							<path class="st3" d="M32.06,16.98c-7.58-4.16-13.82,20.73-8.79,23.86c-0.04-0.03,0.18,0.59,0.19,0.62
								c2.5-6.27,2.18-13.31,6.4-19.3"/>
						</g>
					</g>
				</g>
			</g>
			<g>
				<g>
					<g>
						<g>
							<path class="st3" d="M56.55,8.03c4.25,1.05,23.41,10.72,19.68,17.15c-2.76,4.77-7.39-1.95-9.51-3.63
								c-4.35-3.43-9.36-4.95-14.88-4.89c-5.39,0.06-12.62,5.1-17.88,2.75c-4.79-2.15-3.7-5.84-0.1-8.52
								C38.93,7.14,50.59,6.56,56.55,8.03z"/>
						</g>
					</g>
				</g>
			</g>
		</g>
		<g>
			<g>
				<g>
					<g>
						<path class="st3" d="M50.66,65.01c-3.82,0-7.85-0.43-9.12-1.06c-0.19-0.1-0.27-0.33-0.17-0.52c0.1-0.19,0.33-0.27,0.52-0.17
							c2.34,1.17,14.57,1.41,15.96-0.04c0.07-0.07,0.07-0.1,0.02-0.18c-0.1-0.19-0.04-0.42,0.15-0.53c0.19-0.1,0.42-0.04,0.53,0.15
							c0.21,0.38,0.16,0.78-0.14,1.09C57.54,64.64,54.19,65.01,50.66,65.01z"/>
					</g>
				</g>
			</g>
		</g>
		<g>
			<g>
				<g>
					<g>
						<g>
							<path class="st4" d="M38.37,55.98c-3.41,0-7.55-1.12-8.03-4.26c-0.42-2.81-0.58-5.52-0.48-8.08
								c0.14-0.36,2.17-1.42,9.27-1.42c2.32,0,4.34,0.13,5.06,0.25c2.73,0.45,2.88,3.75,2.73,5.67c-0.08,0.96-0.26,1.95-0.53,2.81
								c-0.94,3.04-3.28,4.73-6.95,5C39.1,55.96,38.74,55.98,38.37,55.98L38.37,55.98z"/>
						</g>
					</g>
				</g>
			</g>
			<g>
				<g>
					<g>
						<g>
							<path class="st3" d="M39.13,43.17c2.41,0,4.32,0.14,4.9,0.23c1.97,0.33,2.05,3.05,1.93,4.64c-0.07,0.89-0.24,1.81-0.49,2.6
								c-0.82,2.66-2.82,4.08-6.1,4.32c-0.32,0.02-0.66,0.04-1.01,0.04c-0.67,0-6.57-0.1-7.07-3.45c-0.39-2.58-0.55-5.08-0.48-7.44
								C31.55,43.78,33.9,43.17,39.13,43.17 M39.13,41.25c-4.51,0-10.16,0.47-10.24,2.35c-0.11,2.79,0.08,5.57,0.49,8.26
								c0.59,3.93,5.43,5.09,8.98,5.09c0.4,0,0.79-0.02,1.15-0.04c3.76-0.28,6.66-1.99,7.8-5.68c0.27-0.86,0.48-1.92,0.57-3.02
								c0.23-2.95-0.46-6.19-3.54-6.7C43.59,41.38,41.52,41.25,39.13,41.25L39.13,41.25z"/>
						</g>
					</g>
				</g>
			</g>
		</g>
		<g>
			<g>
				<g>
					<g>
						<g>
							<path class="st4" d="M61.4,55.98c-0.38,0-0.74-0.01-1.08-0.04c-3.67-0.28-6.01-1.96-6.95-5c-0.27-0.86-0.45-1.86-0.53-2.81
								c-0.15-1.92,0-5.21,2.73-5.67c0.72-0.12,2.73-0.25,5.06-0.25c7.11,0,9.13,1.06,9.27,1.43c0.1,2.54-0.06,5.26-0.48,8.07
								C68.96,54.86,64.81,55.98,61.4,55.98z"/>
						</g>
					</g>
				</g>
			</g>
			<g>
				<g>
					<g>
						<g>
							<path class="st3" d="M60.64,41.25v1.93c5.23,0,7.59,0.6,8.32,0.96c0.07,2.36-0.1,4.86-0.48,7.44
								c-0.5,3.35-6.4,3.45-7.07,3.45c-0.35,0-0.68-0.01-1.01-0.04c-3.28-0.25-5.28-1.66-6.1-4.33c-0.25-0.79-0.42-1.72-0.49-2.6
								c-0.12-1.59-0.04-4.32,1.93-4.64c0.58-0.1,2.49-0.23,4.9-0.23L60.64,41.25 M60.64,41.25c-2.38,0-4.45,0.13-5.22,0.26
								c-3.07,0.51-3.77,3.74-3.54,6.7c0.09,1.1,0.3,2.16,0.57,3.02c1.14,3.68,4.05,5.4,7.8,5.68c0.36,0.03,0.75,0.04,1.15,0.04
								c3.55,0,8.39-1.15,8.98-5.09c0.4-2.69,0.6-5.47,0.49-8.26C70.8,41.72,65.15,41.25,60.64,41.25L60.64,41.25z"/>
						</g>
					</g>
				</g>
			</g>
		</g>
		<g>
			<g>
				<g>
					<g>
						<path class="st3" d="M52.95,58.61c-0.19,0-0.36-0.14-0.38-0.34c-0.24-1.93-1.84-2.18-2.33-2.22c-1.14-0.08-2.49,0.52-2.83,1.8
							c-0.05,0.21-0.27,0.33-0.47,0.27c-0.21-0.06-0.33-0.27-0.28-0.47c0.45-1.69,2.16-2.47,3.62-2.37
							c1.31,0.09,2.79,0.89,3.04,2.89c0.03,0.21-0.12,0.4-0.34,0.43C52.98,58.61,52.97,58.61,52.95,58.61z"/>
					</g>
				</g>
			</g>
		</g>
		<g>
			<g>
				<g>
					<g>
						<path class="st3" d="M46.6,47.29c1.47-0.63,4.21-0.53,5.74-0.13c0.12,0.55,0.05,1.47-0.15,1.97c-1.56,0.1-3.71-0.13-4.96-0.13
							"/>
					</g>
				</g>
			</g>
		</g>
		<g>
			<g>
				<g>
					<g>
						<path class="st3" d="M69.97,46.83c1.53-0.12,2.99-0.57,4.4-0.9c0.95-0.23,4.17-1.33,2.97,0.48c-0.83,1.26-7.06,2.32-7.68,2.61
							"/>
					</g>
				</g>
			</g>
		</g>
		<g>
			<g>
				<g>
					<g>
						<path class="st3" d="M29.08,46.83c-1.53-0.12-2.99-0.57-4.4-0.9c-0.95-0.23-4.17-1.33-2.97,0.48
							c0.83,1.26,7.06,2.32,7.68,2.61"/>
					</g>
				</g>
			</g>
		</g>
	</g>
</g>
</svg>
