<?xml version="1.0" encoding="utf-8"?>
<!-- Generator: Adobe Illustrator 27.8.0, SVG Export Plug-In . SVG Version: 6.00 Build 0)  -->
<svg version="1.1" id="Layer_1" xmlns="http://www.w3.org/2000/svg" xmlns:xlink="http://www.w3.org/1999/xlink" x="0px" y="0px"
	 viewBox="0 0 100 100" style="enable-background:new 0 0 100 100;" xml:space="preserve">
<style type="text/css">
	.st0{clip-path:url(#SVGID_00000095337689092072206540000012361028831025588145_);}
	.st1{fill:#E8E8E8;}
	.st2{fill:#FFFFFF;}
	.st3{fill:#011826;}
</style>
<g>
	<defs>
		<path id="SVGID_1_" d="M100,50.62c-0.34,27.53-23,49.57-50.61,49.23C21.77,99.51-0.34,76.91,0,49.38
			c0.34-27.53,23-49.57,50.62-49.23C78.23,0.49,100.34,23.09,100,50.62z"/>
	</defs>
	<clipPath id="SVGID_00000041277794610063773250000015556571019855035294_">
		<use xlink:href="#SVGID_1_"  style="overflow:visible;"/>
	</clipPath>
	<g style="clip-path:url(#SVGID_00000041277794610063773250000015556571019855035294_);">
		<g>
			<g>
				<path class="st1" d="M100,50.62c-0.34,27.53-23,49.57-50.61,49.23C21.77,99.51-0.34,76.91,0,49.38
					c0.34-27.53,23-49.57,50.62-49.23C78.23,0.49,100.34,23.09,100,50.62z"/>
			</g>
		</g>
		<g>
			<g>
				<g>
					<g>
						<g>
							<path class="st2" d="M42.39,81.44c3.41,11.29-8.46,11.32-16.47,14.8c-3.88,1.69-8.05,3.07-11.36,5.88
								c-6.57,5.57,2.12,7.53,7.52,9.16c22.05,6.66,47.61,6.12,64.43-11.19c-3.4-5.68-13.33-6.93-19.33-7.6
								c-2.26-0.25-9.06-0.32-10.74-1.67c-1.79-1.44-1.66-7.54-1.43-9.85"/>
						</g>
					</g>
				</g>
				<g>
					<path class="st3" d="M47.37,115.74c-8.01,0-16.56-1.32-25.43-4c-0.39-0.12-0.79-0.24-1.21-0.36c-3.94-1.15-8.39-2.46-8.96-5.11
						c-0.29-1.39,0.51-2.87,2.47-4.53c2.73-2.31,6.02-3.68,9.21-4.99c0.76-0.32,1.53-0.63,2.28-0.96c1.83-0.8,3.87-1.42,5.84-2.02
						c6.9-2.1,12.86-3.92,10.35-12.2l0.93-0.28c2.78,9.21-4.22,11.34-11,13.41c-1.95,0.59-3.96,1.21-5.74,1.98
						c-0.76,0.33-1.53,0.65-2.29,0.97c-3.12,1.29-6.34,2.62-8.95,4.84c-1.64,1.39-2.36,2.59-2.15,3.58
						c0.44,2.09,4.97,3.41,8.28,4.38c0.42,0.12,0.83,0.24,1.22,0.36c12.32,3.72,43.09,10.07,63.67-10.79
						c-3.57-5.36-13.8-6.5-18.77-7.05c-0.51-0.06-1.24-0.1-2.09-0.16c-3.94-0.25-7.59-0.56-8.9-1.62c-2.4-1.94-1.61-10.2-1.61-10.28
						l0.97,0.1c-0.31,3.14-0.13,8.32,1.25,9.43c1.18,0.95,5.67,1.24,8.35,1.41c0.87,0.06,1.62,0.1,2.14,0.16
						c5.62,0.62,16.07,1.78,19.7,7.83l0.19,0.32l-0.26,0.27C77.04,110.53,63.28,115.74,47.37,115.74z"/>
				</g>
			</g>
			<g>
				<g>
					<g>
						<g>
							<path class="st2" d="M67.17,92.49c-1.59-0.18-5.44-0.27-8.16-0.78c-5.49,3.54-15.47,5.14-20.79,0.16
								c-3.53,1.78-8.37,2.66-12.3,4.37c-3.88,1.69-8.05,3.07-11.36,5.88c-6.57,5.57,2.12,7.53,7.52,9.16
								c22.05,6.66,47.61,6.12,64.43-11.19C83.1,94.41,73.17,93.16,67.17,92.49z"/>
						</g>
					</g>
				</g>
				<g>
					<path class="st3" d="M47.45,115.72C47.45,115.72,47.45,115.72,47.45,115.72c-8.2,0-16.79-1.34-25.52-3.97
						c-0.39-0.12-0.79-0.24-1.21-0.36c-3.94-1.15-8.39-2.46-8.96-5.11c-0.29-1.39,0.51-2.87,2.47-4.53
						c2.73-2.31,6.02-3.68,9.21-4.99c0.76-0.32,1.53-0.63,2.28-0.96c1.83-0.8,3.87-1.42,5.84-2.02c2.35-0.72,4.57-1.39,6.43-2.33
						l0.3-0.15l0.25,0.23c2.67,2.5,6.28,3.02,8.85,3.02c3.91,0,8.26-1.24,11.35-3.23l0.16-0.11l0.19,0.04
						c1.82,0.34,4.13,0.49,5.99,0.61c0.87,0.06,1.62,0.1,2.13,0.16c5.62,0.62,16.07,1.78,19.7,7.83l0.19,0.32l-0.26,0.27
						C77.14,110.43,63.51,115.72,47.45,115.72z M38.13,92.46c-1.88,0.9-4.12,1.59-6.29,2.25c-1.94,0.59-3.95,1.21-5.74,1.98
						c-0.76,0.33-1.53,0.65-2.29,0.97c-3.12,1.29-6.34,2.62-8.95,4.84c-1.64,1.39-2.36,2.59-2.15,3.58
						c0.44,2.09,4.97,3.41,8.28,4.38c0.42,0.12,0.83,0.24,1.22,0.36c8.64,2.61,17.13,3.93,25.23,3.93
						c15.65,0,28.93-5.09,38.44-14.72c-3.57-5.36-13.8-6.5-18.77-7.05c-0.5-0.06-1.24-0.1-2.09-0.16c-1.82-0.12-4.07-0.26-5.92-0.59
						c-3.23,2.03-7.69,3.28-11.71,3.28C43.61,95.51,40.42,94.46,38.13,92.46z"/>
				</g>
			</g>
		</g>
		<g>
			<g>
				<g>
					<g>
						<g>
							<g>
								<g>
									<path class="st2" d="M17.84,57.15c1.17,3.16,7.03,7.57,8.35,2.11L24.46,51C19.99,47.05,16.23,52.79,17.84,57.15"/>
								</g>
							</g>
						</g>
					</g>
					<g>
						<g>
							<path class="st3" d="M23.57,62.26L23.57,62.26c-2.38-0.03-5.29-2.74-6.12-4.97c-0.75-2.02-0.46-4.45,0.76-6.17
								c0.85-1.21,2.03-1.88,3.31-1.86c1.08,0.01,2.16,0.49,3.21,1.43l0.1,0.09l1.79,8.49l-0.02,0.09
								C25.99,61.9,24.44,62.27,23.57,62.26z M21.51,50.1c-1-0.01-1.92,0.52-2.62,1.51c-1.04,1.48-1.31,3.65-0.66,5.4
								c0.72,1.93,3.38,4.4,5.35,4.42c1.08,0.01,1.81-0.72,2.19-2.17l-1.69-8.03C23.21,50.49,22.35,50.11,21.51,50.1z"/>
						</g>
					</g>
				</g>
			</g>
			<g>
				<g>
					<g>
						<g>
							<g>
								<g>
									<path class="st2" d="M75.51,51.57c4.56-3.84,8.19,1.98,6.48,6.29c-1.24,3.13-7.2,7.41-8.4,1.92L75.51,51.57z"/>
								</g>
							</g>
						</g>
					</g>
					<g>
						<g>
							<path class="st3" d="M76.14,62.85c-0.87-0.01-2.4-0.41-2.96-2.97l-0.02-0.09l1.98-8.44l0.11-0.09
								c1.08-0.91,2.17-1.36,3.24-1.35c1.28,0.02,2.44,0.7,3.27,1.94c1.17,1.75,1.42,4.18,0.62,6.18
								C81.5,60.23,78.52,62.87,76.14,62.85z M74.01,59.79c0.34,1.46,1.06,2.21,2.14,2.22c1.97,0.02,4.69-2.39,5.45-4.3
								c0.69-1.73,0.47-3.91-0.54-5.41c-1.23-1.83-3.23-2.07-5.18-0.5L74.01,59.79z"/>
						</g>
					</g>
				</g>
			</g>
			<g>
				<g>
					<g>
						<g>
							<g>
								<g>
									<g>
										<path class="st2" d="M23.88,28.96c1.78-4.95,4.97-9.25,10.13-12.32c12.64-7.52,31.61-5.78,40.57,7.67
											c7.25,10.87,2.09,30.12-2,41.67C67.63,79.96,50.67,94.99,36.6,83.93c-3.81-2.99-5.77-8.32-7.58-12.74
											C24.24,59.5,19.2,41.97,23.88,28.96z"/>
									</g>
								</g>
							</g>
						</g>
						<g>
							<g>
								<path class="st3" d="M46.95,88.18c-3.78-0.04-7.35-1.36-10.61-3.92c-3.62-2.84-5.58-7.68-7.32-11.95l-0.39-0.96
									c-4.06-9.93-10.13-28.66-5.14-42.52c1.94-5.4,5.41-9.62,10.31-12.53c4.97-2.96,11.06-4.56,17.13-4.49
									c10.12,0.11,18.87,4.59,23.99,12.28c6.98,10.47,2.79,28.64-1.95,42.04C69.1,77.06,58.3,88.3,46.95,88.18z M50.92,12.64
									c-5.92-0.07-11.85,1.49-16.7,4.37c-4.73,2.81-8.07,6.88-9.95,12.1c-4.9,13.6,1.11,32.1,5.13,41.92l0.39,0.96
									c1.69,4.17,3.61,8.9,7.06,11.61c3.11,2.44,6.5,3.7,10.1,3.74c10.84,0.12,21.54-11.06,25.23-21.5
									c4.68-13.22,8.83-31.12,2.05-41.3C69.26,17.09,60.77,12.75,50.92,12.64z"/>
							</g>
						</g>
					</g>
				</g>
				<g>
					<g>
						<g>
							<g>
								<path class="st3" d="M74.58,24.31c-8.96-13.45-27.93-15.19-40.57-7.67c-5.15,3.07-8.35,7.36-10.13,12.32
									c-2.88,8-2.08,17.71,0.07,26.72c3.35-3.08-2.08-9.45,1.79-13.18c2.11-2.03,3.42-2.5,3.96-5.57
									c0.43-2.47-0.11-5.32,0.53-7.74c1.43-5.34,7.61-6.28,12.16-7.37c5.25-1.26,11.54-1.88,17.03-0.94
									c6.55,1.13,8.64,4.34,8.39,10.69c-0.12,3.03-0.94,5.27,1.16,7.76c1.87,2.22,4.23,3.33,4.82,6.24
									c0.34,1.7-1.61,12.09,0.93,13.84C78.07,48.06,80.58,33.32,74.58,24.31z"/>
							</g>
						</g>
					</g>
				</g>
				<g>
					<g>
						<g>
							<g>
								<g>
									<path class="st3" d="M42.69,45.48c1.46,0.02,2.31,0.1,2.78,0.17c0.16,3.04-0.47,6.94-1.93,8.71
										c-1.95,2.38-5.5,2.69-7.45,2.67c-0.47-0.01-0.94-0.03-1.4-0.08c-3.12-0.3-4.57-1.74-5.36-5.3
										c-0.43-1.95-0.35-3.43,0.23-4.29c0.44-0.66,1.26-1.08,2.49-1.28C33.09,45.91,38.68,45.44,42.69,45.48 M42.71,43.51
										c-4.14-0.05-9.83,0.43-10.98,0.63c-4.38,0.73-5.22,3.88-4.32,7.94c0.89,4.03,2.82,6.43,7.09,6.84
										c0.51,0.05,1.03,0.08,1.57,0.09c3.23,0.04,6.85-0.78,8.99-3.39c2.09-2.54,2.63-7.56,2.32-10.8l-0.19-0.39
										C47.3,43.78,45.3,43.54,42.71,43.51L42.71,43.51z"/>
								</g>
							</g>
						</g>
					</g>
					<g>
						<g>
							<g>
								<g>
									<path class="st3" d="M55.99,45.63c4.01,0.05,9.58,0.64,10.61,0.84c1.23,0.23,2.03,0.67,2.46,1.34
										c0.56,0.87,0.61,2.36,0.13,4.29c-0.86,3.54-2.35,4.95-5.47,5.18c-0.47,0.04-0.94,0.05-1.4,0.04
										c-1.94-0.02-5.49-0.42-7.39-2.84c-1.41-1.81-1.96-5.72-1.73-8.75C53.69,45.68,54.53,45.61,55.99,45.63 M56.02,43.66
										c-2.59-0.03-4.59,0.16-4.5,0.81l-0.2,0.38c-0.39,3.23,0.05,8.27,2.08,10.85c2.09,2.66,5.68,3.55,8.91,3.59
										c0.54,0.01,1.06-0.01,1.57-0.05c4.28-0.32,6.27-2.67,7.24-6.68c0.99-4.04,0.21-7.2-4.14-8.04
										C65.84,44.32,60.16,43.71,56.02,43.66L56.02,43.66z"/>
								</g>
							</g>
						</g>
					</g>
				</g>
				<g>
					<g>
						<g>
							<g>
								<path class="st3" d="M52.02,61.15c-0.16,0-0.3-0.09-0.36-0.25c-0.51-1.22-1.53-1.97-2.82-2.07
									c-1.4-0.11-2.81,0.61-3.57,1.85c-0.12,0.19-0.36,0.25-0.55,0.13c-0.19-0.12-0.25-0.36-0.13-0.55
									c0.92-1.49,2.6-2.37,4.32-2.22c1.57,0.12,2.88,1.08,3.49,2.56c0.08,0.2-0.01,0.44-0.22,0.52
									C52.12,61.14,52.07,61.15,52.02,61.15z"/>
							</g>
						</g>
					</g>
				</g>
				<g>
					<g>
						<g>
							<g>
								<path class="st3" d="M46.43,47.48c1.74,0.05,3.6,0.67,5.28,0.33c0.03,0.68,0,1.39-0.03,2.07c-1.27-0.57-4.32-0.92-5.03-0.54
									"/>
							</g>
						</g>
					</g>
				</g>
				<g>
					<g>
						<g>
							<g>
								<path class="st3" d="M39.2,51.25c-0.01,1.08-0.9,1.95-1.98,1.94c-1.09-0.01-1.95-0.9-1.94-1.98
									c0.01-1.08,0.9-1.95,1.99-1.94C38.35,49.28,39.22,50.17,39.2,51.25z"/>
							</g>
						</g>
					</g>
				</g>
				<g>
					<g>
						<g>
							<g>
								<path class="st3" d="M62.84,51.52c-0.01,1.08-0.9,1.95-1.98,1.94c-1.08-0.01-1.95-0.9-1.94-1.98
									c0.01-1.08,0.9-1.95,1.98-1.94C61.98,49.55,62.85,50.44,62.84,51.52z"/>
							</g>
						</g>
					</g>
				</g>
				<g>
					<g>
						<g>
							<g>
								<path class="st3" d="M50.56,72.76c-1.07-0.01-2.12-0.12-3.15-0.26c-2.71-0.37-8.18-1.94-9.52-5.25
									c-0.09-0.2,0.01-0.44,0.22-0.52c0.21-0.08,0.44,0.02,0.52,0.22c1.2,2.97,6.34,4.41,8.89,4.76c3.13,0.42,6.49,0.53,9.89-1.56
									c1.23-0.76,2.64-1.89,2.79-2.56c0.03-0.12,0-0.18-0.02-0.22c-0.12-0.19-0.07-0.43,0.12-0.55c0.19-0.12,0.43-0.07,0.55,0.12
									c0.16,0.24,0.2,0.53,0.13,0.83c-0.28,1.22-2.48,2.65-3.15,3.07C55.35,72.36,52.91,72.79,50.56,72.76z"/>
							</g>
						</g>
					</g>
				</g>
			</g>
			<g>
				<g>
					<g>
						<g>
							<path class="st3" d="M28.37,49.48c-1.21-0.29-2.69-0.29-3.94-0.42c-0.67-0.07-3.89-0.69-2.57,0.56
								c0.74,0.7,7.01,1.02,7.11,0.97"/>
						</g>
					</g>
				</g>
			</g>
			<g>
				<g>
					<g>
						<g>
							<path class="st3" d="M70.83,50.23c1.21-0.26,2.69-0.23,3.95-0.33c0.67-0.06,3.91-0.61,2.56,0.62
								c-0.76,0.69-7.03,0.86-7.14,0.81"/>
						</g>
					</g>
				</g>
			</g>
		</g>
	</g>
</g>
</svg>
