<?xml version="1.0" encoding="utf-8"?>
<!-- Generator: Adobe Illustrator 27.8.0, SVG Export Plug-In . SVG Version: 6.00 Build 0)  -->
<svg version="1.1" id="Layer_1" xmlns="http://www.w3.org/2000/svg" xmlns:xlink="http://www.w3.org/1999/xlink" x="0px" y="0px"
	 viewBox="0 0 100 100" style="enable-background:new 0 0 100 100;" xml:space="preserve">
<style type="text/css">
	.st0{clip-path:url(#SVGID_00000022531627998553367320000006795387429530791306_);}
	.st1{fill:#E8E8E8;}
	.st2{fill:#FFFFFF;}
	.st3{fill:#011826;}
	.st4{fill:#B0B7BB;}
</style>
<g>
	<g>
		<defs>
			<path id="SVGID_1_" d="M100,50.06C99.97,77.67,77.56,100.03,49.94,100C22.33,99.97-0.03,77.55,0,49.94
				C0.03,22.33,22.44-0.03,50.06,0C77.67,0.03,100.03,22.45,100,50.06z"/>
		</defs>
		<clipPath id="SVGID_00000099626717848190946740000016575660257265623479_">
			<use xlink:href="#SVGID_1_"  style="overflow:visible;"/>
		</clipPath>
		<g style="clip-path:url(#SVGID_00000099626717848190946740000016575660257265623479_);">
			<g>
				<g>
					<path class="st1" d="M100,50.06C99.97,77.67,77.56,100.03,49.94,100C22.33,99.97-0.03,77.55,0,49.94
						C0.03,22.33,22.44-0.03,50.06,0C77.67,0.03,100.03,22.45,100,50.06z"/>
				</g>
			</g>
		</g>
		<g style="clip-path:url(#SVGID_00000099626717848190946740000016575660257265623479_);">
			<g>
				<g>
					<g>
						<g>
							<path class="st2" d="M46.01,76.44c3.54,11.25-8.33,11.41-16.3,14.98c-3.87,1.73-8.01,3.16-11.3,6
								c-6.51,5.64,2.21,7.51,7.62,9.08c22.12,6.41,47.67,5.59,64.29-11.91c-3.47-5.64-13.41-6.78-19.41-7.38
								c-2.26-0.23-9.07-0.22-10.76-1.55c-1.8-1.42-1.74-7.52-1.54-9.84"/>
						</g>
					</g>
				</g>
				<g>
					<path class="st3" d="M50.55,110.69c-7.77,0-16.05-1.23-24.65-3.72c-0.39-0.11-0.8-0.23-1.21-0.34
						c-3.95-1.11-8.42-2.37-9.01-5.01c-0.31-1.38,0.48-2.87,2.42-4.55c2.7-2.34,5.98-3.74,9.15-5.1c0.76-0.33,1.52-0.65,2.27-0.98
						c1.82-0.82,3.86-1.46,5.82-2.09c6.87-2.18,12.81-4.06,10.21-12.31l0.93-0.29c2.89,9.18-4.09,11.39-10.85,13.53
						c-1.94,0.61-3.94,1.25-5.72,2.05c-0.75,0.34-1.52,0.66-2.28,0.99c-3.1,1.32-6.31,2.69-8.9,4.94c-1.62,1.4-2.33,2.62-2.11,3.61
						c0.46,2.08,5.01,3.36,8.33,4.29c0.42,0.12,0.83,0.23,1.22,0.35c12.35,3.58,43.2,9.58,63.53-11.5
						c-3.63-5.32-13.87-6.34-18.84-6.84c-0.51-0.05-1.24-0.09-2.1-0.13c-3.94-0.21-7.59-0.48-8.91-1.52
						c-2.43-1.91-1.73-10.18-1.72-10.26l0.97,0.09c-0.28,3.15-0.04,8.32,1.35,9.41c1.19,0.94,5.68,1.17,8.36,1.32
						c0.88,0.05,1.63,0.09,2.15,0.14c5.62,0.56,16.09,1.6,19.78,7.61l0.2,0.32l-0.26,0.27C80.81,105.32,66.81,110.69,50.55,110.69z"
						/>
				</g>
			</g>
			<g>
				<g>
					<g>
						<g>
							<path class="st2" d="M70.91,87.22c-1.59-0.16-5.44-0.2-8.17-0.68c-5.45,3.6-15.41,5.31-20.79,0.39
								c-3.51,1.82-8.34,2.75-12.25,4.5c-3.87,1.73-8.01,3.16-11.3,6c-6.51,5.64,2.21,7.51,7.62,9.08
								c22.12,6.41,47.67,5.59,64.29-11.91C86.86,88.96,76.92,87.81,70.91,87.22z"/>
						</g>
					</g>
				</g>
				<g>
					<path class="st3" d="M50.62,110.66C50.62,110.66,50.62,110.66,50.62,110.66c-7.95,0-16.26-1.24-24.72-3.69
						c-0.39-0.11-0.8-0.23-1.21-0.34c-3.95-1.11-8.42-2.37-9.01-5.01c-0.31-1.38,0.48-2.87,2.42-4.55c2.7-2.34,5.98-3.74,9.15-5.1
						c0.76-0.33,1.52-0.65,2.27-0.98c1.82-0.82,3.85-1.46,5.81-2.08c2.34-0.74,4.55-1.44,6.41-2.41l0.3-0.16l0.25,0.23
						c2.64,2.42,6.17,2.92,8.67,2.92c3.97,0,8.39-1.29,11.52-3.36l0.16-0.11l0.19,0.03c1.82,0.32,4.13,0.44,5.98,0.54
						c0.88,0.05,1.63,0.09,2.15,0.14c5.62,0.56,16.09,1.6,19.78,7.61l0.2,0.32l-0.26,0.27C80.9,105.22,67.05,110.66,50.62,110.66z
						 M41.88,87.51c-1.87,0.93-4.1,1.63-6.26,2.32c-1.94,0.61-3.94,1.25-5.71,2.04c-0.75,0.34-1.52,0.66-2.28,0.99
						c-3.1,1.32-6.31,2.69-8.9,4.94c-1.62,1.4-2.33,2.62-2.11,3.61c0.46,2.08,5.01,3.36,8.33,4.29c0.42,0.12,0.83,0.23,1.22,0.35
						c8.36,2.42,16.59,3.65,24.44,3.65c16.02,0,29.52-5.24,39.09-15.15c-3.63-5.32-13.87-6.34-18.84-6.84
						c-0.51-0.05-1.24-0.09-2.1-0.13c-1.82-0.1-4.07-0.22-5.91-0.52c-3.27,2.11-7.81,3.41-11.9,3.41
						C47.27,90.46,44.14,89.44,41.88,87.51z"/>
				</g>
			</g>
		</g>
		<g style="clip-path:url(#SVGID_00000099626717848190946740000016575660257265623479_);">
			<g>
				<g>
					<g>
						<g>
							<g>
								<g>
									<g>
										<g>
											<path class="st2" d="M73.82,48.95c4.22-3.62,7.66,1.77,6.1,5.81c-1.13,2.93-6.65,6.98-7.82,1.87L73.82,48.95z"/>
										</g>
									</g>
								</g>
							</g>
							<g>
								<g>
									<path class="st3" d="M74.52,59.46c-0.81,0-2.25-0.36-2.8-2.74l-0.02-0.09l1.77-7.89l0.1-0.08c1-0.86,2.01-1.29,3.01-1.29
										c1.19,0,2.28,0.63,3.07,1.77c1.11,1.62,1.36,3.89,0.64,5.77C79.48,56.97,76.73,59.46,74.52,59.46z M72.5,56.63
										c0.33,1.36,1.01,2.05,2.02,2.05c1.84,0,4.35-2.27,5.04-4.06c0.63-1.62,0.41-3.65-0.55-5.05c-1.16-1.7-3.04-1.9-4.83-0.41
										L72.5,56.63z"/>
								</g>
							</g>
						</g>
					</g>
					<g>
						<g>
							<g>
								<g>
									<g>
										<g>
											<path class="st2" d="M26.19,48.86c-4.2-3.64-7.67,1.74-6.12,5.79c1.12,2.94,6.62,7,7.81,1.9L26.19,48.86z"/>
										</g>
									</g>
								</g>
							</g>
							<g>
								<g>
									<path class="st3" d="M25.47,59.37L25.47,59.37c-2.22,0-4.97-2.51-5.76-4.58c-0.72-1.88-0.46-4.14,0.65-5.76
										c0.79-1.14,1.88-1.77,3.07-1.77c1.01,0,2.02,0.44,3.02,1.3l0.1,0.08l1.74,7.9l-0.02,0.09
										C27.71,59.02,26.28,59.37,25.47,59.37z M23.43,48.05c-0.93,0-1.79,0.51-2.43,1.43c-0.96,1.39-1.18,3.42-0.56,5.04
										c0.69,1.8,3.19,4.08,5.03,4.08h0c1,0,1.68-0.69,2.02-2.05l-1.65-7.47C25.02,48.39,24.21,48.05,23.43,48.05z"/>
								</g>
							</g>
						</g>
					</g>
					<g>
						<g>
							<g>
								<g>
									<g>
										<g>
											<path class="st2" d="M74.63,28.4c-1.6-4.64-4.53-8.69-9.3-11.61c-11.7-7.17-29.42-5.78-37.94,6.66
												c-6.89,10.05-2.31,28.08,1.36,38.9c4.45,13.1,20.09,27.33,33.35,17.18c3.59-2.74,5.48-7.69,7.22-11.8
												C73.92,56.88,78.84,40.59,74.63,28.4z"/>
										</g>
									</g>
								</g>
							</g>
							<g>
								<g>
									<g>
										<g>
											<path class="st4" d="M74.33,52.95c-0.61-0.41-1.36-0.78-1.65-0.62c-0.51,0.28-0.96,3.83-1.18,4.52
												c-0.48,1.49-1.43,2.86-2.05,4.3c-1.13,2.65-4.81,4.97-7.68,3.41c-1.77-0.96-1.52-2.61-1.91-4.26
												c-0.37-1.57-1.04-2.95-2.34-4.01c-2.56-2.08-6.54-2.06-9.61-1.13c-4.09,1.23-4.57,5.17-7.23,7.97
												c-2.1,2.21-6.73,1.47-8.88-0.65c-2.11-2.09-2.8-5.33-3.89-7.84l-0.83,2.41c0.55,1.9,1.12,3.68,1.67,5.3
												c4.45,13.1,20.09,27.33,33.35,17.18c3.59-2.74,5.48-7.69,7.22-11.8C71.14,63.45,73,58.33,74.33,52.95z"/>
										</g>
									</g>
								</g>
							</g>
							<g>
								<g>
									<path class="st3" d="M52.42,83.35C52.42,83.35,52.42,83.35,52.42,83.35c-10.61,0-20.56-10.62-24.04-20.89
										c-4.26-12.56-7.95-29.56-1.31-39.24c4.87-7.09,13.06-11.16,22.48-11.16c5.69,0,11.36,1.56,15.99,4.39
										c4.53,2.78,7.71,6.75,9.46,11.82c4.49,12.99-1.4,30.39-5.31,39.61l-0.38,0.9c-1.67,3.96-3.56,8.45-6.97,11.06
										C59.28,82.17,55.94,83.35,52.42,83.35z M49.55,12.83c-9.16,0-17.12,3.95-21.84,10.83c-6.45,9.41-2.8,26.16,1.41,38.55
										C32.44,72,42.3,82.57,52.42,82.58c0,0,0,0,0,0c3.34,0,6.52-1.13,9.44-3.37c3.25-2.48,5.09-6.87,6.72-10.74l0.38-0.9
										c3.87-9.11,9.7-26.3,5.29-39.05c-1.69-4.89-4.76-8.73-9.13-11.41C60.62,14.36,55.09,12.83,49.55,12.83z"/>
								</g>
							</g>
						</g>
					</g>
					<g>
						<g>
							<g>
								<g>
									<path class="st3" d="M67.37,20.35c2.07-4.78-4.04-10.44-7.9-12.44c-4.82-2.49-10.56-1.73-15.36,0.45
										c-2.15,0.98-4.32,2.82-6.55,3.39c-2.49,0.64-3.51-0.84-5.36-1.88c-0.41,1.91-0.38,3.91,0.08,5.74
										c-1.2-0.43-2.37-1.26-3.28-2.26c0.52,8.93,6.22,16.15,15.6,17.32c-1.18,0.52-2.51,0.61-3.81,0.7
										c0.45,0.05,0.89,0.5,1.32,0.6c4.89,1.14,8.95-0.37,13.56-1.93c2.06-0.7,5.83-1.68,8.14-3.52c1.25,2.95,2.98,7.95,6.64,5.72
										c1.22,2.17,0.77,5.69,4.29,5.5C83.33,37.3,73.83,13.54,67.37,20.35z"/>
								</g>
							</g>
						</g>
					</g>
					<g>
						<g>
							<g>
								<g>
									<g>
										<g>
											<path class="st2" d="M48.22,60.35l0.91-0.15c3.42,0.57,7.71-0.82,8.78,3.34c0.62,2.42,1.45,6.68,0.25,9.05
												c-1.26,2.5-6.91,3.21-9.52,2.37c-3.33-1.07-2.99-4.27-2.99-6.9C45.64,66.25,45.04,59.94,48.22,60.35z"/>
										</g>
									</g>
								</g>
							</g>
						</g>
					</g>
					<g>
						<g>
							<g>
								<g>
									<path class="st3" d="M74.63,28.4c-1.6-4.64-4.53-8.69-9.3-11.61c-11.7-7.17-29.42-5.78-37.94,6.66
										c-6.25,9.11-3.07,24.77,0.31,35.68c1.35-0.82,0.53-2.64,0.24-4.38c-0.33-2.06-0.68-4.14-1.07-6.18
										c-0.53-2.74-0.06-2.85,1.33-5.27c1.05-1.82,1.46-3.84,1.65-5.88c0.34-3.57-0.49-9.7,1.9-12.49
										c3.13-3.65,11.46-2.4,15.63-2.26c5.51,0.18,10.35,0.21,15.7,1.23c2.48,0.47,4.33,0.41,4.96,3.11
										c0.47,2.01,0.45,4.38,0.53,6.45c0.08,2.12-0.05,4.34,0.96,6.18c0.97,1.77,2.55,2.11,3.05,4.04
										c0.53,2.01-0.01,4.6-0.01,6.72c0,1.79-0.98,4.79,0.26,5.78c0.13,0.1,0.33,0.17,0.57,0.24
										C76.09,47.21,77.54,36.82,74.63,28.4z"/>
								</g>
							</g>
						</g>
					</g>
				</g>
				<g>
					<g>
						<g>
							<g>
								<path class="st3" d="M47.88,53.78c-0.05,0-0.1-0.01-0.15-0.03c-0.19-0.08-0.28-0.3-0.19-0.49c0.58-1.33,1.9-2.19,3.38-2.2
									c0,0,0.01,0,0.01,0c1.46,0,2.7,0.82,3.3,2.2c0.08,0.19,0,0.41-0.19,0.49c-0.19,0.08-0.41,0-0.49-0.19
									c-0.48-1.1-1.46-1.75-2.62-1.75c0,0,0,0-0.01,0c-1.18,0-2.23,0.69-2.69,1.75C48.16,53.7,48.02,53.78,47.88,53.78z"/>
							</g>
						</g>
					</g>
				</g>
			</g>
			<g>
				<g>
					<g>
						<g>
							<path class="st3" d="M40.97,48.32c0,1.01-0.82,1.83-1.83,1.83c-1.01,0-1.83-0.82-1.83-1.83c0-1.01,0.82-1.83,1.83-1.83
								C40.15,46.49,40.97,47.31,40.97,48.32z"/>
						</g>
					</g>
				</g>
			</g>
			<g>
				<g>
					<g>
						<g>
							<path class="st3" d="M43.29,40.91c-1.54-0.51-9-1.9-9.65,0.89c-0.55,2.37,7.82,1.87,9.21,1.5c1.3-0.35,3.01-1.91,0.65-2.39"
								/>
						</g>
					</g>
				</g>
			</g>
			<g>
				<g>
					<g>
						<g>
							<path class="st3" d="M56.84,40.91c1.54-0.51,9-1.9,9.65,0.89c0.55,2.37-7.82,1.87-9.21,1.5c-1.3-0.35-3.01-1.91-0.65-2.39"/>
						</g>
					</g>
				</g>
			</g>
			<g>
				<g>
					<g>
						<g>
							<path class="st3" d="M40.97,48.32c0,1.01-0.82,1.83-1.83,1.83c-1.01,0-1.83-0.82-1.83-1.83c0-1.01,0.82-1.83,1.83-1.83
								C40.15,46.49,40.97,47.31,40.97,48.32z"/>
						</g>
					</g>
				</g>
			</g>
			<g>
				<g>
					<g>
						<g>
							<path class="st3" d="M62.81,48.32c0,1.01-0.82,1.83-1.83,1.83c-1.01,0-1.83-0.82-1.83-1.83c0-1.01,0.82-1.83,1.83-1.83
								C61.99,46.49,62.81,47.31,62.81,48.32z"/>
						</g>
					</g>
				</g>
			</g>
			<g>
				<g>
					<g>
						<g>
							<path class="st3" d="M52.16,68.43c-1.8,0-3.77-0.81-5.15-2.16c-0.15-0.14-0.15-0.38,0-0.53c0.14-0.15,0.38-0.15,0.53,0
								c1.47,1.44,3.67,2.19,5.47,1.88c0.88-0.16,2.07-0.64,2.75-2.09c0.09-0.19,0.31-0.26,0.5-0.18c0.19,0.09,0.27,0.31,0.18,0.5
								c-0.65,1.37-1.79,2.24-3.3,2.51C52.81,68.4,52.49,68.43,52.16,68.43z"/>
						</g>
					</g>
				</g>
			</g>
		</g>
	</g>
</g>
</svg>
