<?xml version="1.0" encoding="utf-8"?>
<!-- Generator: Adobe Illustrator 27.8.0, SVG Export Plug-In . SVG Version: 6.00 Build 0)  -->
<svg version="1.1" id="Layer_1" xmlns="http://www.w3.org/2000/svg" xmlns:xlink="http://www.w3.org/1999/xlink" x="0px" y="0px"
	 viewBox="0 0 100 100" style="enable-background:new 0 0 100 100;" xml:space="preserve">
<style type="text/css">
	.st0{clip-path:url(#SVGID_00000104702247446283586150000012845637851474235042_);}
	.st1{fill:#E8E8E8;}
	.st2{fill:#FFFFFF;}
	.st3{fill:#011826;}
</style>
<g>
	<g>
		<defs>
			<path id="SVGID_1_" d="M100,50.06C99.97,77.67,77.56,100.03,49.94,100C22.33,99.97-0.03,77.55,0,49.94
				C0.03,22.33,22.44-0.03,50.06,0C77.67,0.03,100.03,22.45,100,50.06z"/>
		</defs>
		<clipPath id="SVGID_00000055675165764384047830000011001891471745508516_">
			<use xlink:href="#SVGID_1_"  style="overflow:visible;"/>
		</clipPath>
		<g style="clip-path:url(#SVGID_00000055675165764384047830000011001891471745508516_);">
			<g>
				<g>
					<path class="st1" d="M100,50.06C99.97,77.67,77.56,100.03,49.94,100C22.33,99.97-0.03,77.55,0,49.94
						C0.03,22.33,22.44-0.03,50.06,0C77.67,0.03,100.03,22.45,100,50.06z"/>
				</g>
			</g>
			<g>
				<g>
					<g>
						<g>
							<path class="st2" d="M43.96,75.92c3.54,11.25-8.33,11.41-16.3,14.98c-3.87,1.73-8.01,3.16-11.3,6
								c-6.51,5.64,2.2,7.51,7.62,9.08c22.12,6.41,47.67,5.59,64.29-11.91c-3.47-5.64-13.41-6.78-19.41-7.38
								c-2.26-0.23-9.07-0.22-10.76-1.55c-1.8-1.42-1.74-7.52-1.54-9.84"/>
						</g>
					</g>
				</g>
				<g>
					<path class="st3" d="M48.5,110.16c-7.77,0-16.05-1.23-24.65-3.71c-0.39-0.11-0.8-0.23-1.22-0.35
						c-3.95-1.11-8.42-2.37-9.01-5.01c-0.31-1.38,0.48-2.87,2.42-4.55c2.7-2.34,5.98-3.74,9.15-5.1c0.76-0.32,1.52-0.65,2.27-0.98
						c1.82-0.82,3.86-1.46,5.82-2.09c6.87-2.18,12.81-4.06,10.21-12.31l0.93-0.29c2.89,9.18-4.1,11.39-10.85,13.53
						c-1.94,0.61-3.94,1.25-5.72,2.05c-0.75,0.34-1.52,0.66-2.28,0.99c-3.1,1.32-6.31,2.69-8.89,4.94
						c-1.62,1.41-2.33,2.62-2.11,3.61c0.47,2.08,5.01,3.36,8.33,4.29c0.42,0.12,0.83,0.23,1.22,0.35
						c12.35,3.58,43.2,9.58,63.54-11.5c-3.63-5.32-13.87-6.34-18.84-6.84c-0.51-0.05-1.24-0.09-2.1-0.13
						c-3.94-0.21-7.59-0.48-8.91-1.52c-2.43-1.91-1.73-10.18-1.72-10.26l0.97,0.09c-0.28,3.15-0.04,8.31,1.35,9.41
						c1.19,0.94,5.68,1.17,8.36,1.32c0.88,0.05,1.63,0.09,2.15,0.14c5.62,0.56,16.09,1.6,19.78,7.61l0.2,0.32l-0.26,0.27
						C78.76,104.79,64.76,110.16,48.5,110.16z"/>
				</g>
			</g>
			<g>
				<g>
					<g>
						<g>
							<g>
								<g>
									<path class="st3" d="M33.67,66.62c-0.11,1.73-1.23,1.46-1.89,2.43c-0.49,0.72-0.79,2.23-1.55,3.02
										c-2.12,2.2-5.04-0.39-2.51-2.19c-1.12-0.38-1.6-1.37-1.26-2.52c0.27-0.11,0.54-0.23,0.83-0.33c-0.19-4-3.25,1.21-4.45,1.03
										c3.4,5.69-7.12,2.39-2.02,0.61c0.4-1.54-0.82-4.9-2.47-3.16c-0.5-3.55-2.58,0.47-3.09,0.63c-2.12,0.67-3.9-2.28-1.47-3.2
										c-1.18-1.96,1.39-3.07,3.01-2.36c0.23-2.8,3.15-0.29,3.59-1.99c0.49-1.89-2.99-1.74-3.76-0.54
										c-1.29-0.36-2.66-2.46-0.42-2.61c-0.87-1.16-1.2-3.59,0.82-3.51c0.52-1.54-0.35-2.77-1.89-3.02
										c-0.08,0.6-0.71,1.27-0.75,1.93c-1.36,0.09-3.07-0.52-2.53-2.05c-1.66-1.03,0.21-3.06,1.93-2.62
										c0.02-2.07,2.96-0.71,2.68-2.98c-0.21-1.72-2.65-1.33-3.4-0.11c-0.59-0.43-2.5-0.65-2.82-1.12c-1-1.5,0.07-2.55,1.68-2.11
										c-0.86-1.99,0.59-3.63,2.69-3c-0.57-2.09,1.23-2.08,2.9-1.79c0.09-1.74-2.29-3.97-3.43-1.84c-2.7,0.3-2.69-3.98,0.46-2.56
										c-0.93-1.67,1.2-2.81,2.55-1.95c0.72-0.71,0.83-0.98,1.87-0.34c0.78-0.65,0.23-0.43,1.44-0.73
										c-0.05-1.92,1.61-2.25,3.04-1.44c-0.18-2.14-2.59-3.63-3.36-0.83c-0.58-0.18-1.4-0.47-2.1-0.67
										c0.25-1.45,1.41-2.44,2.78-1.45c-1.29-2.24,0.6-3.14,2.46-2.34c0.04-1.66,1.19-1.59,2.08-0.35
										c0.17-2.58,2.18-3.33,3.93-1.85c-0.9-0.82-2.79-1.02-3.01-2.46c-0.32-2.07,1.81-2.48,3.16-1.62
										c-0.97-2.2,1.96-2.81,3.23-1.41c0.14-2.47,1.8-2.78,3.73-1.55c0.46-3.6,2.98-1.09,4.74-1.1c2.1-0.01,3.17-2.02,5.23,0.29
										c0.26-1.85,2.04-2.81,3.56-1.73c0.24-1.94,0.96-1.67,2.26-1.88c0.51-0.08,1.04,1.06,1.61,1.07
										c0.44,0.01,0.81-1.19,1.28-1.11c1.36,0.23,4.42,1.29,4.69,2.95c1.23-1.48,3.81-3.11,4.33-0.09
										c1.42-2.42,2.93-0.4,3.27,1.47c1.29,0.07,5.13-0.88,3.71,1.85c1.58-2.14,4.05,0.56,2.77,2.32
										c1.37,0.38,2.46,1.74,2.12,3.11c1.51-0.57,4.06,0.43,2.84,2.2c-0.07,0.06-0.07,0.06-0.01,0c1.54-0.42,2.02,1.28,1.82,2.61
										c2.6-0.45,4.18,4.32,0.49,3.9c1.57,0.47,3.99,2.43,2.69,4.27c2.69-0.57,3.32,2.89,2.15,4.64c1.77,0.51,3.11,2.35,2.02,4.11
										c0.92,0.08,2.71,0.84,2.66,2.01c-0.06,1.68-1.78,0.29-2.72,0.27c-0.89-0.02-3.34-0.84-2.12,1.27
										c0.46,0.8,2.23,0.17,2.93,1.32c-0.16,0.21-0.4,0.41-0.57,0.59c1.97,1.12-0.09,2.58-1.6,2.46c-1.35-0.1-2.71-2.68-3.5-0.49
										c-1.09,3,6.11,1.55,3.14,4.7c1.13-0.31,2.36,0.52,1.7,1.89c-0.51,1.06-2.72,0.31-3.04,0.86c-1,1.74,5.91,3.22,1.8,4.99
										c1.52,1.19,2.08,2.85,1.65,4.74c-1.28-0.02-2.5-0.6-3.66-0.97c0.4,2.01-0.97,3.19-2.78,2.01c0.08,0.28,0.15,0.74,0.25,0.96
										c-0.44-0.12-1.03-0.02-1.48-0.08c0,2.12,1.4,5.87-2.27,2.87c0.1,0.36,0.09,0.68,0.16,0.99c-0.67-0.26-1.46-0.18-2.11-0.66
										c-0.04,0.87-0.26,1.79-0.29,2.66c-0.64-0.27-1.66-0.32-2.28-0.66c0.13,0.67-0.18,1.47-0.08,2.16c-1,0-1.55,0.08-2.12-0.96
										c-0.01,0.36-0.13,0.77-0.12,1.11c-0.53-0.11-1.02,0.13-1.49,0.09c0.18,0.8,0.06,1.32,0.79,1.95
										c-1.96,2.89-3.47-1.74-4.17-3.14c-1.37-2.76-4.25-4.22-6.44-6.34c-2.25-2.19-4.41-1.9-7.56-2.3
										c-2.57-0.33-9.75-2.35-11.53-1.34"/>
								</g>
							</g>
						</g>
					</g>
					<g>
						<g>
							<g>
								<g>
									<g>
										<g>
											<g>
												<path class="st2" d="M77.8,35.79c-1.17-4.32-3.66-8.22-8-11.27c-10.66-7.46-27.78-7.71-36.96,2.78
													c-7.42,8.49-4.45,25.13-1.79,35.2c3.23,12.2,17.11,26.36,30.65,18.33c3.66-2.17,5.88-6.47,7.88-10.03
													C74.85,61.42,80.87,47.14,77.8,35.79z"/>
											</g>
										</g>
									</g>
								</g>
								<g>
									<g>
										<path class="st3" d="M52.07,83.5L52.07,83.5C41.9,82.58,33.21,72.15,30.68,62.6c-3.09-11.7-5.28-27.36,1.87-35.55
											c5.25-6,13.45-8.97,22.52-8.16c5.44,0.49,10.74,2.38,14.94,5.31c4.13,2.89,6.87,6.75,8.15,11.47
											C81.44,47.81,74.39,63.01,69.9,71l-0.43,0.78c-1.92,3.43-4.09,7.33-7.58,9.39C58.76,83.02,55.45,83.8,52.07,83.5z
											 M55,19.65c-8.82-0.8-16.8,2.09-21.89,7.9c-6.94,7.93-4.76,23.33-1.71,34.86c2.41,9.1,11.02,19.46,20.73,20.34
											c0,0,0,0,0,0c3.22,0.29,6.38-0.46,9.37-2.23c3.32-1.96,5.43-5.76,7.31-9.11l0.43-0.78c4.44-7.89,11.4-22.88,8.19-34.74
											c-1.23-4.55-3.87-8.27-7.85-11.06C65.49,21.97,60.31,20.13,55,19.65z"/>
									</g>
								</g>
							</g>
						</g>
						<g>
							<g>
								<g>
									<g>
										<g>
											<g>
												<path class="st2" d="M30.11,52.04c-3.73-3.85-7.51,1.02-6.36,5.04c0.83,2.92,5.77,7.28,7.34,2.49L30.11,52.04z"/>
											</g>
										</g>
									</g>
								</g>
								<g>
									<g>
										<path class="st3" d="M28.52,62.08C28.52,62.08,28.52,62.08,28.52,62.08c-2.13-0.19-4.55-2.83-5.14-4.89
											c-0.53-1.87-0.09-4.02,1.12-5.48c0.85-1.03,1.95-1.54,3.1-1.43c0.96,0.09,1.9,0.59,2.78,1.51l0.09,0.09l1,7.74l-0.03,0.08
											C30.7,61.93,29.29,62.15,28.52,62.08z M27.53,51.03c-0.89-0.08-1.76,0.33-2.45,1.17c-1.04,1.25-1.43,3.18-0.97,4.79
											c0.51,1.78,2.72,4.18,4.48,4.34h0c0.96,0.09,1.67-0.52,2.11-1.79l-0.95-7.32C29.02,51.49,28.28,51.09,27.53,51.03z"/>
									</g>
								</g>
							</g>
						</g>
						<g>
							<g>
								<g>
									<g>
										<g>
											<g>
												<path class="st2" d="M75.22,56.11c4.36-3.12,7.2,2.35,5.36,6.1c-1.34,2.72-6.97,6.13-7.67,1.13L75.22,56.11z"/>
											</g>
										</g>
									</g>
								</g>
								<g>
									<g>
										<path class="st3" d="M74.99,66.26c-0.78-0.07-2.13-0.54-2.45-2.87l-0.01-0.08l2.37-7.43l0.1-0.07
											c1.03-0.74,2.04-1.07,3-0.98c1.15,0.1,2.14,0.8,2.79,1.97c0.93,1.65,0.98,3.84,0.12,5.59
											C79.98,64.29,77.12,66.46,74.99,66.26z M73.3,63.37c0.21,1.33,0.8,2.05,1.76,2.14c1.76,0.16,4.37-1.81,5.18-3.47
											c0.74-1.5,0.7-3.47-0.1-4.89c-0.97-1.73-2.75-2.09-4.6-0.81L73.3,63.37z"/>
									</g>
								</g>
							</g>
						</g>
					</g>
					<g>
						<g>
							<g>
								<g>
									<path class="st3" d="M77.8,35.79c-1.17-4.32-3.66-8.22-8-11.27c-10.66-7.46-27.78-7.71-36.96,2.78
										c-6.15,7.04-5.16,19.67-3.13,29.53c1.25-0.45,1.13-3.67,1.52-4.78c0.74-2.13,2.69-3.13,1.93-6.11
										c2.2-0.78,2.71-2.16,2.79-4.37c2.84-0.44,3.28-2.62,3.54-5.14c1.83-0.6,1.85-3.18,1.24-4.7c1.49-0.94,2.47-3.03,1.84-4.72
										c2.06,1.65,3.66,4.53,6.69,3.33c0.08,3.37,3.83,4.83,6.34,3.04c0.66-1.38-1.13-2.7-1.14-4.27
										c0.82,1.06,2.11,1.49,3.33,0.81c0.63,2.12,2.67,2.22,3.75,0.43c1,1.53,2.78,1.01,3.01-0.72c1.05,1.5,1.7,3.18,3.99,2.8
										c-1.53,2.88,1.58,3.95,3.76,3.2c-0.57,1.97-0.17,3.59,1.3,5.04c-1.41,1.94-2.72,5.38-0.93,7.44
										c-1.65,0.67-2.25,3.17-0.31,3.93c-0.63,2.01,0.16,2.48,0.7,3.96c0.45,1.23,0.56,2.9,1.79,3.84
										C77.9,52.04,79.82,43.28,77.8,35.79z"/>
								</g>
							</g>
						</g>
					</g>
					<g>
						<g>
							<g>
								<g>
									<path class="st3" d="M46.97,66.55c0.91-0.34,1.91-1.14,2.84-1.33c1.41-0.3,1.5,0.58,2.48,0.48c1.49-0.15,1.06-1.7,2.87-0.7
										c0.83,0.46,1.4,1.85,1.99,2.56c-1.58,1.19-2.98,3.04-5.3,2.72C50.63,70.11,46.94,66.61,46.97,66.55"/>
								</g>
							</g>
						</g>
					</g>
					<g>
						<g>
							<g>
								<g>
									<path class="st3" d="M49.41,61.18c-0.07-0.01-0.14-0.03-0.19-0.08c-0.16-0.13-0.18-0.35-0.06-0.51
										c1.14-1.41,3.46-2.61,4.97-2.05c0.68,0.25,1.48,0.94,1.43,2.81c0,0.2-0.17,0.36-0.37,0.35c-0.18,0-0.35-0.17-0.35-0.37
										c0.03-1.16-0.29-1.87-0.96-2.12c-1.17-0.43-3.2,0.63-4.17,1.83C49.64,61.14,49.53,61.19,49.41,61.18z"/>
								</g>
							</g>
						</g>
					</g>
				</g>
				<g>
					<g>
						<g>
							<g>
								<path class="st3" d="M62.9,53.1c-0.09,0.97-0.94,1.69-1.92,1.6c-0.97-0.09-1.69-0.94-1.6-1.92c0.09-0.97,0.95-1.69,1.92-1.6
									C62.28,51.27,62.99,52.13,62.9,53.1z"/>
							</g>
						</g>
					</g>
				</g>
				<g>
					<g>
						<g>
							<g>
								<path class="st3" d="M44.89,51.48c-0.09,0.97-0.95,1.69-1.92,1.6c-0.97-0.09-1.69-0.94-1.6-1.92
									c0.09-0.97,0.94-1.69,1.92-1.6C44.26,49.65,44.97,50.51,44.89,51.48z"/>
							</g>
						</g>
					</g>
				</g>
				<g>
					<g>
						<g>
							<g>
								<g>
									<path class="st3" d="M38.81,47.28c-0.1-0.01-0.2-0.06-0.26-0.15c-0.12-0.16-0.08-0.39,0.08-0.5
										c2.24-1.61,5.04-1.64,6.66-0.07c0.14,0.14,0.15,0.37,0.01,0.51c-0.14,0.14-0.37,0.15-0.51,0.01
										c-1.37-1.33-3.78-1.27-5.73,0.13C38.98,47.27,38.9,47.29,38.81,47.28z"/>
								</g>
							</g>
						</g>
					</g>
				</g>
				<g>
					<g>
						<g>
							<g>
								<g>
									<path class="st3" d="M64.54,49.6c-0.08-0.01-0.16-0.04-0.23-0.11c-1.67-1.73-4.04-2.22-5.62-1.16
										c-0.17,0.11-0.39,0.07-0.5-0.1c-0.11-0.17-0.07-0.39,0.1-0.5c1.87-1.26,4.62-0.73,6.54,1.25c0.14,0.14,0.13,0.37-0.01,0.51
										C64.74,49.58,64.64,49.61,64.54,49.6z"/>
								</g>
							</g>
						</g>
					</g>
				</g>
			</g>
		</g>
	</g>
</g>
</svg>
