<?xml version="1.0" encoding="utf-8"?>
<!-- Generator: Adobe Illustrator 27.8.0, SVG Export Plug-In . SVG Version: 6.00 Build 0)  -->
<svg version="1.1" id="Layer_1" xmlns="http://www.w3.org/2000/svg" xmlns:xlink="http://www.w3.org/1999/xlink" x="0px" y="0px"
	 viewBox="0 0 100 100" style="enable-background:new 0 0 100 100;" xml:space="preserve">
<style type="text/css">
	.st0{clip-path:url(#SVGID_00000157299504641176804710000007025516473662991786_);}
	.st1{fill:#E8E8E8;}
	.st2{fill:#FFFFFF;}
	.st3{fill:#011826;}
</style>
<g>
	<g>
		<defs>
			<path id="SVGID_1_" d="M100,50.06C99.97,77.67,77.56,100.03,49.94,100C22.33,99.97-0.03,77.55,0,49.94
				C0.03,22.33,22.44-0.03,50.06,0C77.67,0.03,100.03,22.45,100,50.06z"/>
		</defs>
		<clipPath id="SVGID_00000115500386742201295830000003935589458497932684_">
			<use xlink:href="#SVGID_1_"  style="overflow:visible;"/>
		</clipPath>
		<g style="clip-path:url(#SVGID_00000115500386742201295830000003935589458497932684_);">
			<g>
				<g>
					<path class="st1" d="M100,50.06C99.97,77.67,77.56,100.03,49.94,100C22.33,99.97-0.03,77.55,0,49.94
						C0.03,22.33,22.44-0.03,50.06,0C77.67,0.03,100.03,22.45,100,50.06z"/>
				</g>
			</g>
		</g>
		<g style="clip-path:url(#SVGID_00000115500386742201295830000003935589458497932684_);">
			<g>
				<g>
					<g>
						<g>
							<path class="st2" d="M42.8,75.7c3.54,11.25-8.33,11.41-16.3,14.99c-3.87,1.73-8.01,3.16-11.3,6
								c-6.51,5.64,2.2,7.51,7.62,9.08c22.12,6.41,47.67,5.59,64.29-11.91c-3.47-5.64-13.41-6.78-19.41-7.38
								c-2.26-0.23-9.07-0.22-10.76-1.55c-1.8-1.42-1.74-7.52-1.53-9.84"/>
						</g>
					</g>
				</g>
				<g>
					<path class="st3" d="M47.34,109.94c-7.77,0-16.05-1.23-24.65-3.71c-0.39-0.11-0.8-0.23-1.21-0.34
						c-3.95-1.11-8.42-2.37-9.01-5.01c-0.31-1.38,0.48-2.87,2.42-4.55c2.7-2.34,5.98-3.74,9.15-5.1c0.76-0.32,1.52-0.65,2.26-0.98
						c1.82-0.82,3.86-1.46,5.82-2.08c6.87-2.18,12.81-4.06,10.21-12.31l0.93-0.29c2.89,9.18-4.1,11.39-10.85,13.53
						c-1.94,0.61-3.94,1.25-5.72,2.05c-0.75,0.34-1.52,0.66-2.28,0.99c-3.1,1.32-6.31,2.69-8.9,4.94c-1.62,1.4-2.33,2.62-2.11,3.61
						c0.47,2.08,5.01,3.36,8.33,4.29c0.42,0.12,0.83,0.23,1.22,0.35c12.36,3.58,43.2,9.59,63.54-11.5
						c-3.63-5.32-13.87-6.34-18.84-6.84c-0.51-0.05-1.24-0.09-2.1-0.13c-3.94-0.21-7.59-0.48-8.91-1.52
						c-2.43-1.91-1.73-10.18-1.72-10.26l0.97,0.09c-0.28,3.15-0.04,8.31,1.35,9.41c1.19,0.94,5.68,1.17,8.36,1.31
						c0.88,0.05,1.63,0.09,2.15,0.14c5.62,0.56,16.09,1.6,19.78,7.6l0.2,0.32l-0.26,0.27C77.6,104.57,63.6,109.94,47.34,109.94z"/>
				</g>
			</g>
			<g>
				<g>
					<g>
						<g>
							<path class="st2" d="M67.7,86.47c-1.59-0.16-5.44-0.21-8.17-0.68c-5.45,3.6-15.41,5.31-20.79,0.39
								c-3.5,1.82-8.34,2.75-12.25,4.5c-3.87,1.73-8.01,3.16-11.3,6c-6.51,5.64,2.2,7.51,7.62,9.08
								c22.12,6.41,47.67,5.59,64.29-11.91C83.65,88.21,73.71,87.07,67.7,86.47z"/>
						</g>
					</g>
				</g>
				<g>
					<path class="st3" d="M47.41,109.92C47.41,109.92,47.41,109.92,47.41,109.92c-7.95,0-16.26-1.24-24.72-3.69
						c-0.39-0.11-0.8-0.23-1.21-0.34c-3.95-1.11-8.42-2.37-9.01-5.01c-0.31-1.38,0.48-2.87,2.42-4.55c2.7-2.34,5.98-3.74,9.15-5.1
						c0.76-0.32,1.52-0.65,2.26-0.98c1.82-0.82,3.85-1.46,5.81-2.08c2.34-0.74,4.55-1.44,6.41-2.41l0.3-0.16l0.25,0.23
						c2.64,2.41,6.17,2.92,8.67,2.92c3.97,0,8.39-1.29,11.52-3.36l0.16-0.11l0.19,0.03c1.82,0.32,4.13,0.44,5.98,0.54
						c0.88,0.05,1.63,0.09,2.15,0.14c5.62,0.56,16.09,1.6,19.78,7.6l0.2,0.32l-0.26,0.27C77.7,104.47,63.84,109.92,47.41,109.92z
						 M38.67,86.76c-1.87,0.93-4.1,1.63-6.26,2.32c-1.94,0.61-3.94,1.25-5.71,2.04c-0.75,0.34-1.52,0.66-2.28,0.99
						c-3.1,1.32-6.31,2.69-8.9,4.94c-1.62,1.4-2.33,2.62-2.11,3.61c0.47,2.08,5.01,3.36,8.33,4.29c0.42,0.12,0.83,0.23,1.22,0.35
						c8.36,2.42,16.59,3.65,24.45,3.65c16.02,0,29.52-5.24,39.09-15.15c-3.63-5.32-13.87-6.34-18.84-6.84
						c-0.51-0.05-1.24-0.09-2.1-0.13c-1.82-0.1-4.06-0.22-5.91-0.52c-3.27,2.11-7.81,3.41-11.9,3.41
						C44.06,89.71,40.93,88.69,38.67,86.76z"/>
				</g>
			</g>
		</g>
	</g>
	<g>
		<g>
			<g>
				<g>
					<g>
						<g>
							<g>
								<path class="st3" d="M43.43,19.68c-5.62,0.25-6.29-8.05-3.42-11.22c3.27-3.6,9.38-3.3,13.86-2.61
									c4.18,0.64,7.84,3.23,7.54,7.98c-0.18,2.84-5.58,7.57-7.53,5.99"/>
							</g>
						</g>
					</g>
				</g>
				<g>
					<g>
						<g>
							<g>
								<g>
									<g>
										<path class="st2" d="M27.36,51.75c-4-3.45-7.28,1.67-5.8,5.52c1.07,2.79,6.31,6.64,7.43,1.79L27.36,51.75z"/>
									</g>
								</g>
							</g>
						</g>
						<g>
							<g>
								<path class="st3" d="M26.69,61.74L26.69,61.74c-2.11,0-4.72-2.37-5.48-4.34c-0.69-1.79-0.45-3.94,0.61-5.48
									c0.75-1.09,1.78-1.68,2.92-1.68c0.95,0,1.92,0.41,2.86,1.23l0.09,0.08l1.67,7.51l-0.02,0.08
									C28.83,61.4,27.46,61.74,26.69,61.74z M24.74,50.98c-0.88,0-1.7,0.48-2.31,1.36c-0.91,1.32-1.12,3.25-0.53,4.79
									c0.65,1.71,3.04,3.87,4.79,3.87c0.95,0,1.6-0.66,1.92-1.95l-1.58-7.1C26.25,51.3,25.48,50.98,24.74,50.98z"/>
							</g>
						</g>
					</g>
				</g>
				<g>
					<g>
						<g>
							<g>
								<g>
									<g>
										<path class="st2" d="M26.63,32.22c1.53-4.41,4.32-8.25,8.86-11.02c11.13-6.8,27.96-5.44,36.05,6.39
											c6.53,9.57,2.15,26.68-1.36,36.96c-4.25,12.44-19.14,25.94-31.73,16.27c-3.4-2.61-5.2-7.32-6.84-11.22
											C27.25,59.29,22.61,43.79,26.63,32.22z"/>
									</g>
								</g>
							</g>
						</g>
						<g>
							<g>
								<path class="st3" d="M47.67,84.49c-3.36,0-6.53-1.13-9.44-3.37c-3.24-2.49-5.03-6.75-6.6-10.52l-0.36-0.85
									c-3.7-8.77-9.27-25.31-4.98-37.65c1.67-4.81,4.7-8.58,9.01-11.22c4.38-2.68,9.76-4.15,15.15-4.15
									c8.98,0,16.78,3.88,21.4,10.65c6.29,9.21,2.76,25.36-1.31,37.29C67.2,74.41,57.75,84.49,47.67,84.49z M50.45,17.47
									c-5.25,0-10.49,1.44-14.76,4.04c-4.16,2.54-7.09,6.18-8.7,10.83c-4.21,12.11,1.3,28.45,4.97,37.12l0.36,0.86
									c1.54,3.68,3.29,7.85,6.37,10.22c2.78,2.13,5.81,3.21,8.99,3.21c9.61,0,18.99-10.03,22.16-19.31
									c4.02-11.77,7.52-27.68,1.4-36.64C66.75,21.23,59.17,17.47,50.45,17.47z"/>
							</g>
						</g>
					</g>
				</g>
				<g>
					<g>
						<g>
							<g>
								<g>
									<g>
										<path class="st2" d="M72.63,51.75c4-3.45,7.28,1.67,5.8,5.52c-1.07,2.79-6.31,6.64-7.43,1.79L72.63,51.75z"/>
									</g>
								</g>
							</g>
						</g>
						<g>
							<g>
								<path class="st3" d="M73.31,61.74c-0.77,0-2.13-0.34-2.66-2.6l-0.02-0.08l1.67-7.51l0.09-0.08
									c0.95-0.82,1.91-1.23,2.86-1.23c1.13,0,2.17,0.6,2.92,1.68c1.06,1.54,1.3,3.69,0.61,5.48
									C78.03,59.36,75.41,61.74,73.31,61.74z M71.39,59.05c0.32,1.29,0.96,1.95,1.92,1.95c1.75,0,4.13-2.16,4.79-3.87
									c0.59-1.54,0.38-3.47-0.53-4.79c-1.11-1.62-2.89-1.81-4.59-0.39L71.39,59.05z"/>
							</g>
						</g>
					</g>
				</g>
				<g>
					<g>
						<g>
							<g>
								<path class="st3" d="M71.54,27.59c-8.08-11.83-24.92-13.19-36.05-6.39c-4.54,2.77-7.33,6.61-8.86,11.02
									c-2.56,7.36-1.61,16.31,0.54,24.5c2-1-0.06-6.46-0.29-8.2c-0.58-4.24,0.76-5.41,2.29-9.05c1.34-3.2,0.56-7.38,2.78-10.15
									c2.29-2.85,6.25-2.53,9.26-1.22c2.99,1.3,5.21,3.52,8.55,3.8c2.21,0.19,4.54-0.27,6.56-1.12c1.57-0.66,3.16-2.74,4.68-3.08
									c7.48-1.71,7.24,10.62,8.16,14.55c0.84,3.6,3.5,4.37,2.89,8.46c-0.18,1.18-1.41,3.43-0.8,4.68
									c0.41,0.83,0.86,1.21,1.31,1.29C75.11,46.9,76.59,34.99,71.54,27.59z"/>
							</g>
						</g>
					</g>
				</g>
				<g>
					<g>
						<g>
							<g>
								<path class="st3" d="M73.01,54.9c-0.78-0.61-0.91-3.21-1.68-1.81c-0.68,1.25-2.02,6.42-2.59,7.4
									c-1.82,3.1-3.83,5.36-7.89,3.95c-3.18-1.11-4.21-5.17-7.8-5.93c-4.19-0.89-7.55-0.2-10.51,3.82
									c-1.82,2.47-7.04,2.55-9.96,0.69c-2.8-1.79-3.5-8.63-5-11.44l-0.73,3.91c1.26,5.14,3.02,10.03,4.75,14.11
									c1.65,3.9,3.44,8.61,6.84,11.22c12.59,9.67,27.48-3.83,31.73-16.27C71.14,61.74,72.16,58.43,73.01,54.9z"/>
							</g>
						</g>
					</g>
				</g>
				<g>
					<g>
						<g>
							<g>
								<g>
									<g>
										<path class="st2" d="M52.6,63.38l-0.87-0.14c-3.25,0.54-7.33-0.78-8.34,3.18c-0.59,2.3-1.38,6.35-0.24,8.6
											c1.2,2.37,6.57,3.06,9.05,2.25c3.17-1.02,2.84-4.06,2.84-6.56C55.05,68.99,55.62,62.99,52.6,63.38z"/>
									</g>
								</g>
							</g>
						</g>
						<g>
							<g>
								<path class="st3" d="M49.76,77.96L49.76,77.96c-2.66,0-5.97-0.87-6.93-2.78c-1.13-2.23-0.51-6.05,0.21-8.86
									c0.82-3.2,3.48-3.24,6.05-3.28c0.87-0.01,1.77-0.03,2.59-0.17l0.06-0.01l0.88,0.14c0.69-0.08,1.25,0.13,1.69,0.59
									c1.28,1.32,1.19,4.49,1.13,6.38c-0.01,0.29-0.02,0.55-0.02,0.74l0,0.64c0.03,2.34,0.06,5.25-3.1,6.27
									C51.64,77.84,50.75,77.96,49.76,77.96z M51.74,63.61c-0.86,0.14-1.76,0.15-2.64,0.17c-2.5,0.04-4.67,0.08-5.35,2.73
									c-0.56,2.2-1.35,6.21-0.27,8.34c0.78,1.56,3.75,2.37,6.27,2.37l0,0c0.92,0,1.72-0.11,2.34-0.3
									c2.64-0.85,2.61-3.24,2.59-5.56l0-0.65c0-0.2,0.01-0.46,0.02-0.76c0.05-1.66,0.14-4.75-0.92-5.84
									c-0.3-0.3-0.66-0.42-1.12-0.36l-0.05,0.01L51.74,63.61z"/>
							</g>
						</g>
					</g>
				</g>
			</g>
			<g>
				<g>
					<g>
						<g>
							<path class="st3" d="M46.6,77.38c0.38-1.65-0.26-3.32,0-5.01c0.18-1.18,0.15-1.48,1.27-1.85c0.4-0.13,2.2-0.22,2.56,0
								c1.21,0.74,0.53,3.19,0.57,4.46c0.07,2.07,0.15,3.31-2.32,3.34c-0.59,0.01-1.1,0.01-1.46-0.21"/>
						</g>
					</g>
				</g>
			</g>
			<g>
				<g>
					<g>
						<g>
							<path class="st3" d="M48.99,69.17C48.99,69.17,48.98,69.17,48.99,69.17c-1.7,0-3.21-0.12-4.53-1.53
								c-0.13-0.14-0.13-0.37,0.02-0.5c0.14-0.13,0.37-0.12,0.5,0.02c1.13,1.21,2.43,1.31,4,1.31c0,0,0,0,0.01,0
								c0.86,0,2.45-0.44,3.21-0.65c0.52-0.15,0.55-0.15,0.67-0.12c0.19,0.05,0.3,0.25,0.25,0.44c-0.04,0.15-0.17,0.25-0.32,0.26
								c-0.07,0.01-0.21,0.06-0.41,0.11C51.54,68.72,49.95,69.17,48.99,69.17z"/>
						</g>
					</g>
				</g>
			</g>
			<g>
				<g>
					<g>
						<g>
							<path class="st3" d="M53.12,56.58c-0.17,0-0.32-0.12-0.35-0.29c-0.36-2-2.12-3.28-3.61-3.35c-1.36-0.07-2.37,0.78-2.84,2.39
								c-0.05,0.19-0.25,0.3-0.44,0.24c-0.19-0.05-0.3-0.25-0.24-0.44c0.56-1.93,1.86-2.99,3.56-2.9c2.02,0.11,3.89,1.84,4.27,3.94
								c0.03,0.19-0.09,0.38-0.29,0.41C53.16,56.58,53.14,56.58,53.12,56.58z"/>
						</g>
					</g>
				</g>
			</g>
		</g>
		<g>
			<g>
				<g>
					<g>
						<g>
							<path class="st3" d="M42,50.84c0,0.95-0.78,1.73-1.74,1.73s-1.74-0.77-1.74-1.73c0-0.96,0.78-1.73,1.74-1.73
								S42,49.89,42,50.84z"/>
						</g>
					</g>
				</g>
			</g>
			<g>
				<g>
					<g>
						<g>
							<path class="st3" d="M61.83,50.84c0,0.95-0.78,1.73-1.74,1.73c-0.96,0-1.74-0.77-1.74-1.73c0-0.96,0.78-1.73,1.74-1.73
								C61.05,49.12,61.83,49.89,61.83,50.84z"/>
						</g>
					</g>
				</g>
			</g>
		</g>
		<g>
			<g>
				<g>
					<g>
						<path class="st3" d="M44.2,43.33c-1.46-0.49-8.55-1.81-9.17,0.85c-0.52,2.25,7.43,1.77,8.76,1.42
							c1.23-0.33,2.86-1.82,0.62-2.27"/>
					</g>
				</g>
			</g>
		</g>
		<g>
			<g>
				<g>
					<g>
						<path class="st3" d="M56.15,42.49c1.47-0.49,8.55-1.81,9.17,0.85c0.53,2.26-7.43,1.78-8.75,1.42
							c-1.24-0.33-2.86-1.82-0.62-2.27"/>
					</g>
				</g>
			</g>
		</g>
	</g>
</g>
</svg>
