<?xml version="1.0" encoding="utf-8"?>
<!-- Generator: Adobe Illustrator 27.8.0, SVG Export Plug-In . SVG Version: 6.00 Build 0)  -->
<svg version="1.1" id="Layer_1" xmlns="http://www.w3.org/2000/svg" xmlns:xlink="http://www.w3.org/1999/xlink" x="0px" y="0px"
	 viewBox="0 0 100 100" style="enable-background:new 0 0 100 100;" xml:space="preserve">
<style type="text/css">
	.st0{fill:#E8E8E8;}
	.st1{clip-path:url(#SVGID_00000162332387546128167640000010082866164107568287_);}
	.st2{fill:#FFFFFF;}
	.st3{fill:#011826;}
	.st4{clip-path:url(#SVGID_00000148655694752976251550000001469224077498665397_);}
</style>
<g>
	<g>
		<path id="SVGID_1_" class="st0" d="M100,50.06c-0.03,27.53-22.44,49.83-50.06,49.8C22.33,99.82-0.03,77.47,0,49.94
			S22.44,0.11,50.06,0.15C77.67,0.18,100.03,22.52,100,50.06z"/>
	</g>
	<g>
		<defs>
			<path id="SVGID_00000165928188549375766750000004379072740362864557_" d="M100,50.06c-0.03,27.53-22.44,49.83-50.06,49.8
				C22.33,99.82-0.03,77.47,0,49.94S22.44,0.11,50.06,0.15C77.67,0.18,100.03,22.52,100,50.06z"/>
		</defs>
		<clipPath id="SVGID_00000082332692841716861550000001234972578448448438_">
			<use xlink:href="#SVGID_00000165928188549375766750000004379072740362864557_"  style="overflow:visible;"/>
		</clipPath>
		<g style="clip-path:url(#SVGID_00000082332692841716861550000001234972578448448438_);">
			<g>
				<g>
					<g>
						<g>
							<path class="st2" d="M69.99,87.22c-1.6-0.16-5.44-0.2-8.17-0.68c-5.45,3.61-15.41,5.31-20.79,0.39
								c-3.51,1.82-8.34,2.75-12.25,4.5c-3.87,1.73-8.01,3.16-11.3,6c-6.51,5.64,2.21,7.51,7.62,9.08
								c22.13,6.41,47.68,5.59,64.29-11.91C85.94,88.96,76,87.82,69.99,87.22z"/>
						</g>
					</g>
				</g>
			</g>
			<g>
				<g>
					<g>
						<g>
							<path class="st2" d="M45.09,76.44c3.54,11.25-8.33,11.41-16.3,14.99c-3.87,1.73-8.01,3.16-11.3,6
								c-6.51,5.64,2.21,7.51,7.62,9.08c22.13,6.41,47.68,5.59,64.29-11.91c-3.46-5.64-13.41-6.78-19.41-7.38
								C67.73,87,60.93,87,59.23,85.67c-1.8-1.42-1.74-7.52-1.54-9.84"/>
						</g>
					</g>
				</g>
				<g>
					<path class="st3" d="M49.63,110.7c-7.77,0-16.06-1.23-24.65-3.72c-0.39-0.11-0.8-0.23-1.21-0.34
						c-3.95-1.11-8.42-2.37-9.01-5.01c-0.31-1.38,0.48-2.87,2.42-4.55c2.7-2.34,5.98-3.74,9.15-5.1c0.76-0.33,1.52-0.65,2.27-0.98
						c1.82-0.82,3.86-1.46,5.82-2.09c6.88-2.18,12.81-4.06,10.22-12.31l0.93-0.29c2.89,9.18-4.1,11.39-10.85,13.53
						c-1.94,0.61-3.94,1.25-5.72,2.05c-0.76,0.34-1.52,0.66-2.29,0.99c-3.1,1.32-6.31,2.69-8.89,4.94
						c-1.62,1.41-2.33,2.62-2.11,3.61c0.47,2.08,5.01,3.36,8.33,4.29c0.42,0.12,0.83,0.23,1.22,0.35
						c12.36,3.58,43.2,9.59,63.54-11.51c-3.63-5.32-13.88-6.34-18.85-6.84c-0.51-0.05-1.24-0.09-2.1-0.13
						c-3.94-0.21-7.59-0.48-8.91-1.52c-2.42-1.91-1.73-10.18-1.72-10.26l0.97,0.09c-0.28,3.15-0.04,8.32,1.35,9.41
						c1.19,0.94,5.68,1.17,8.36,1.32c0.88,0.05,1.63,0.09,2.15,0.14c5.62,0.56,16.09,1.6,19.78,7.61l0.2,0.32l-0.26,0.27
						C79.89,105.32,65.89,110.7,49.63,110.7z"/>
				</g>
			</g>
		</g>
	</g>
	<g>
		<defs>
			<path id="SVGID_00000148640084434976880350000015633032659103258247_" d="M100,50.06c-0.03,27.53-22.44,49.83-50.06,49.8
				C22.33,99.82-0.03,77.47,0,49.94S22.44,0.11,50.06,0.15C77.67,0.18,100.03,22.52,100,50.06z"/>
		</defs>
		<clipPath id="SVGID_00000011016034892452162310000017587033789752118421_">
			<use xlink:href="#SVGID_00000148640084434976880350000015633032659103258247_"  style="overflow:visible;"/>
		</clipPath>
		<g style="clip-path:url(#SVGID_00000011016034892452162310000017587033789752118421_);">
			<g>
				<g>
					<g>
						<g>
							<g>
								<g>
									<g>
										<path class="st2" d="M73.79,49.6c4.21-3.63,7.65,1.75,6.1,5.8c-1.13,2.93-6.63,6.98-7.81,1.88L73.79,49.6z"/>
									</g>
								</g>
							</g>
						</g>
						<g>
							<g>
								<path class="st3" d="M74.5,60.1c-0.81,0-2.24-0.36-2.79-2.73l-0.02-0.09l1.75-7.89l0.1-0.09c0.99-0.86,2.01-1.29,3.01-1.29
									c1.19,0,2.28,0.63,3.07,1.77c1.11,1.62,1.36,3.88,0.64,5.76C79.46,57.6,76.71,60.1,74.5,60.1z M72.48,57.27
									c0.33,1.36,1.01,2.05,2.01,2.05c1.84,0,4.34-2.27,5.03-4.06c0.62-1.62,0.4-3.64-0.56-5.03c-1.17-1.7-3.04-1.9-4.83-0.41
									L72.48,57.27z"/>
							</g>
						</g>
					</g>
				</g>
				<g>
					<g>
						<g>
							<g>
								<g>
									<g>
										<path class="st2" d="M26.21,49.6c-4.21-3.63-7.65,1.75-6.1,5.8c1.13,2.93,6.63,6.98,7.81,1.88L26.21,49.6z"/>
									</g>
								</g>
							</g>
						</g>
						<g>
							<g>
								<path class="st3" d="M25.5,60.1L25.5,60.1c-2.22,0-4.96-2.5-5.76-4.56c-0.72-1.88-0.47-4.14,0.64-5.76
									c0.78-1.14,1.87-1.77,3.07-1.77c1,0,2.01,0.44,3.01,1.29l0.1,0.09l1.75,7.89l-0.02,0.09C27.75,59.74,26.31,60.1,25.5,60.1z
									 M23.45,48.79c-0.93,0-1.79,0.51-2.43,1.43c-0.96,1.39-1.18,3.42-0.56,5.04c0.69,1.79,3.19,4.06,5.03,4.06
									c1,0,1.68-0.69,2.02-2.05l-1.66-7.46C25.04,49.13,24.23,48.79,23.45,48.79z"/>
							</g>
						</g>
					</g>
				</g>
				<g>
					<g>
						<g>
							<g>
								<g>
									<g>
										<path class="st2" d="M74.56,29.07c-1.61-4.63-4.54-8.67-9.31-11.58c-11.7-7.14-29.39-5.72-37.89,6.72
											c-6.87,10.06-2.26,28.05,1.43,38.85c4.47,13.08,20.11,27.26,33.35,17.1c3.58-2.75,5.46-7.69,7.2-11.8
											C73.91,57.52,78.79,41.24,74.56,29.07z"/>
									</g>
								</g>
							</g>
						</g>
						<g>
							<g>
								<path class="st3" d="M52.45,84.01L52.45,84.01c-10.59,0-20.53-10.59-24.03-20.83c-4.28-12.54-7.99-29.51-1.38-39.2
									c4.86-7.11,13.06-11.19,22.49-11.19c5.66,0,11.32,1.55,15.92,4.36c4.53,2.77,7.72,6.73,9.47,11.79
									c4.5,12.97-1.35,30.36-5.24,39.57l-0.38,0.9c-1.66,3.96-3.54,8.45-6.94,11.06C59.31,82.82,55.97,84.01,52.45,84.01z
									 M49.53,13.57c-9.17,0-17.14,3.96-21.85,10.85c-6.43,9.42-2.75,26.14,1.47,38.51c3.33,9.76,13.18,20.3,23.29,20.3
									c3.35,0,6.53-1.14,9.45-3.38c3.24-2.49,5.08-6.87,6.7-10.74l0.38-0.9c3.84-9.11,9.64-26.29,5.22-39.01
									c-1.69-4.88-4.77-8.71-9.14-11.38C60.56,15.08,55.05,13.57,49.53,13.57z"/>
							</g>
						</g>
					</g>
				</g>
			</g>
		</g>
	</g>
</g>
</svg>
