<?xml version="1.0" encoding="UTF-8"?>
<svg id="svg2" xmlns="http://www.w3.org/2000/svg" version="1.1" xmlns:cc="http://creativecommons.org/ns#" xmlns:dc="http://purl.org/dc/elements/1.1/" xmlns:inkscape="http://www.inkscape.org/namespaces/inkscape" xmlns:rdf="http://www.w3.org/1999/02/22-rdf-syntax-ns#" xmlns:sodipodi="http://sodipodi.sourceforge.net/DTD/sodipodi-0.dtd" xmlns:svg="http://www.w3.org/2000/svg" viewBox="0 0 200 90">
  <!-- Generator: Adobe Illustrator 29.0.1, SVG Export Plug-In . SVG Version: 2.1.0 Build 192)  -->
  <defs>
    <style>
      .st0 {
        fill: #016fd0;
      }

      .st1 {
        fill: #fff;
      }
    </style>
  </defs>
  <sodipodi:namedview id="base" bordercolor="#666666" borderopacity="1.0" fit-margin-bottom="0" fit-margin-left="0" fit-margin-right="0" fit-margin-top="0" inkscape:current-layer="layer1" inkscape:cx="850.2929" inkscape:cy="357.59411" inkscape:document-units="px" inkscape:pageopacity="0.0" inkscape:pageshadow="2" inkscape:window-height="931" inkscape:window-maximized="1" inkscape:window-width="1680" inkscape:window-x="0" inkscape:window-y="1" inkscape:zoom="0.125" pagecolor="#ffffff" showgrid="true">
    <inkscape:grid id="grid2996" empspacing="5" enabled="true" originx="-55.5px" originy="947.50002px" snapvisiblegridlinesonly="true" type="xygrid" visible="true"/>
  </sodipodi:namedview>
  <g id="layer1" inkscape:groupmode="layer" inkscape:label="Layer 1">
    <path id="path3082" class="st1" d="M38.7,81.2v-31.3h33.2l3.6,4.6,3.7-4.6h120.9v28.8l-.5.3s-3.1,2.1-6.8,2.2h-66.7l-4-4.9v4.9h-13.1v-8.4s-1.8,1.2-5.7,1.2h-4.5v7.3h-19.9l-3.6-4.7-3.6,4.7h-33Z" inkscape:connector-curvature="0" sodipodi:nodetypes="cccccccccccccccccccc"/>
    <path id="path3080" class="st1" d="M0,26.3L7.5,8.8h12.9l4.2,9.8v-9.8h16.1l2.5,7.1,2.4-7.1h72.2v3.5s3.8-3.5,10-3.5h23.4c0,0,4.2,9.7,4.2,9.7v-9.7h13.5l3.7,5.5v-5.5h13.6v31.3h-13.6l-3.5-5.6v5.6h-19.8l-2-4.9h-5.3l-2,4.9h-13.4c-5.4,0-8.8-3.5-8.8-3.5v3.5h-20.2l-4-4.9v4.9H18.5l-2-4.9h-5.3l-2,4.9H0v-13.9Z" inkscape:connector-curvature="0" sodipodi:nodetypes="cccccccccccccccccccccccccccccccccccccc"/>
    <path id="path3046" class="st0" d="M10.1,12.7L0,36.1h6.6l1.9-4.7h10.8l1.9,4.7h6.7l-10.1-23.5h-7.6ZM13.9,18.1l3.3,8.2h-6.6l3.3-8.2Z" inkscape:connector-curvature="0"/>
    <path id="path3048" class="st0" d="M28.5,36.1V12.7h9.3s5.4,15.2,5.4,15.2l5.3-15.2h9.3v23.5h-5.9v-17.3l-6.2,17.3h-5.1l-6.2-17.3v17.3h-5.9Z" inkscape:connector-curvature="0" sodipodi:nodetypes="cccccccccccccc"/>
    <path id="path3050" class="st0" d="M61.9,36.1V12.7h19.1v5.2h-13.2v4h12.9v4.9h-12.9v4.2h13.2v5.1h-19.1Z" inkscape:connector-curvature="0" sodipodi:nodetypes="ccccccccccccc"/>
    <path id="path3052" class="st0" d="M84.4,12.7v23.5h5.9v-8.3h2.5l7,8.3h7.2l-7.7-8.6c3.2-.3,6.4-3,6.4-7.2s-3.9-7.6-8.2-7.6h-13ZM90.3,17.9h6.7c1.6,0,2.8,1.3,2.8,2.5s-1.5,2.5-2.7,2.5h-6.8v-4.9h0Z" inkscape:connector-curvature="0"/>
    <path id="path3054" class="st0" d="M114,36.1h-6V12.7h6v23.5Z" inkscape:connector-curvature="0" sodipodi:nodetypes="ccccc"/>
    <path id="path3056" class="st0" d="M128.2,36.1h-1.3c-6.3,0-10-4.9-10-11.6s3.8-11.8,11.6-11.8h6.5v5.6h-6.7c-3.2,0-5.5,2.5-5.5,6.3s2.6,6.4,6.3,6.4h1.5l-2.5,5.1Z" inkscape:connector-curvature="0" sodipodi:nodetypes="ccccccccccc"/>
    <path id="path3058" class="st0" d="M141,12.7l-10.1,23.5h6.6l1.9-4.7h10.8l1.9,4.7h6.7l-10.1-23.5h-7.6ZM144.7,18.1l3.3,8.2h-6.6l3.3-8.2h0Z" inkscape:connector-curvature="0"/>
    <path id="path3060" class="st0" d="M159.4,36.1V12.7h7.5l9.5,14.7v-14.7h5.9v23.5h-7.2l-9.8-15.1v15.1h-5.9Z" inkscape:connector-curvature="0" sodipodi:nodetypes="ccccccccccc"/>
    <path id="path3062" class="st0" d="M42.7,77.2v-23.5h19.1v5.2h-13.2v4h12.9v4.9h-12.9v4.2h13.2v5.1h-19.1Z" inkscape:connector-curvature="0" sodipodi:nodetypes="ccccccccccccc"/>
    <path id="path3064" class="st0" d="M136.5,77.2v-23.5h19.1v5.2h-13.2v4h12.8v4.9h-12.8v4.2h13.2v5.1h-19.1Z" inkscape:connector-curvature="0" sodipodi:nodetypes="ccccccccccccc"/>
    <path id="path3066" class="st0" d="M62.6,77.2l9.3-11.6-9.5-11.9h7.4l5.7,7.3,5.7-7.3h7.1l-9.4,11.7,9.3,11.7h-7.4l-5.5-7.2-5.4,7.2h-7.3Z" inkscape:connector-curvature="0" sodipodi:nodetypes="ccccccccccccc"/>
    <path id="path3068" class="st0" d="M88.9,53.7v23.5h6v-7.4h6.2c5.2,0,9.2-2.8,9.2-8.2s-3.1-7.9-8.4-7.9h-13ZM94.9,59h6.5c1.7,0,2.9,1,2.9,2.7s-1.2,2.7-2.9,2.7h-6.5v-5.4h0Z" inkscape:connector-curvature="0"/>
    <path id="path3072" class="st0" d="M112.8,53.7v23.5h5.9v-8.3h2.5l7,8.3h7.2l-7.7-8.6c3.2-.3,6.4-3,6.4-7.2s-3.9-7.6-8.2-7.6h-13,0ZM118.7,59h6.7c1.6,0,2.8,1.3,2.8,2.5s-1.5,2.5-2.7,2.5h-6.8v-4.9Z" inkscape:connector-curvature="0"/>
    <path id="path3074" class="st0" d="M158.3,77.2v-5.1h11.7c1.7,0,2.5-.9,2.5-2s-.7-2-2.5-2h-5.3c-4.6,0-7.2-2.8-7.2-7s2.4-7.4,9.2-7.4h11.4l-2.5,5.3h-9.9c-1.9,0-2.5,1-2.5,1.9s.7,2,2.2,2h5.6c5.1,0,7.4,2.9,7.4,6.7s-2.5,7.5-7.6,7.5h-12.5Z" inkscape:connector-curvature="0" sodipodi:nodetypes="ccccccccccccccccc"/>
    <path id="path3076" class="st0" d="M179.9,77.2v-5.1h11.7c1.7,0,2.5-.9,2.5-2s-.7-2-2.5-2h-5.3c-4.6,0-7.2-2.8-7.2-7s2.4-7.4,9.2-7.4h11.4l-2.5,5.3h-9.9c-1.9,0-2.5,1-2.5,1.9s.7,2,2.2,2h5.6c5.1,0,7.4,2.9,7.4,6.7s-2.5,7.5-7.6,7.5h-12.5Z" inkscape:connector-curvature="0" sodipodi:nodetypes="ccccccccccccccccc"/>
  </g>
</svg>