<?xml version="1.0" encoding="UTF-8"?>
<svg id="Layer_1" xmlns="http://www.w3.org/2000/svg" version="1.1" xmlns:cc="http://creativecommons.org/ns#" xmlns:dc="http://purl.org/dc/elements/1.1/" xmlns:inkscape="http://www.inkscape.org/namespaces/inkscape" xmlns:rdf="http://www.w3.org/1999/02/22-rdf-syntax-ns#" xmlns:sodipodi="http://sodipodi.sourceforge.net/DTD/sodipodi-0.dtd" xmlns:svg="http://www.w3.org/2000/svg" viewBox="0 0 100 90">
  <!-- Generator: Adobe Illustrator 29.0.1, SVG Export Plug-In . SVG Version: 2.1.0 Build 192)  -->
  <defs>
    <style>
      .st0 {
        fill: #014b98;
      }

      .st1 {
        fill: #fdfdfe;
      }
    </style>
  </defs>
  <path class="st0" d="M97.3,42c.1,1.8.2,4.9,0,6.7-1.8,19.8-20.6,36.2-40,37.2-13.6.7-26.2.5-37.5-7.6C-8.4,58.1-.4,13.3,33.4,5.2c7.5-1.8,22.3-1.8,29.8-.4,18,3.5,32.6,18.6,34,37.2ZM41.8,7.5C13.8,9.1-2.7,40.1,11.9,64.3s46.8,24.3,62.4,2.6c18.5-25.6-1.2-61.3-32.5-59.4Z"/>
  <path class="st1" d="M41.8,7.5c31.4-1.9,51,33.8,32.5,59.4-15.7,21.7-48.6,20.3-62.4-2.6S13.8,9.1,41.8,7.5ZM35.5,22.8c-12.1,4.5-18.2,17.9-13.9,30.1s7.5,11.9,13.9,14.1V22.8ZM52.5,67c6.9-2.5,12.6-8.9,14.4-16,3-11.8-3.1-23.8-14.4-28.2v44.2Z"/>
  <path class="st0" d="M35.5,22.8v44.2c-6.4-2.2-11.6-7.7-13.9-14.1-4.3-12.2,1.9-25.6,13.9-30.1Z"/>
  <path class="st0" d="M52.5,67V22.8c11.3,4.4,17.4,16.4,14.4,28.2-1.8,7.1-7.5,13.5-14.4,16Z"/>
</svg>