<?xml version="1.0" encoding="UTF-8"?>
<svg id="svg2" xmlns="http://www.w3.org/2000/svg" version="1.1" xmlns:cc="http://creativecommons.org/ns#" xmlns:dc="http://purl.org/dc/elements/1.1/" xmlns:inkscape="http://www.inkscape.org/namespaces/inkscape" xmlns:rdf="http://www.w3.org/1999/02/22-rdf-syntax-ns#" xmlns:sodipodi="http://sodipodi.sourceforge.net/DTD/sodipodi-0.dtd" xmlns:svg="http://www.w3.org/2000/svg" viewBox="0 0 140 90">
  <!-- Generator: Adobe Illustrator 29.0.1, SVG Export Plug-In . SVG Version: 2.1.0 Build 192)  -->
  <defs>
    <style>
      .st0 {
        fill: #ee2d24;
      }

      .st1 {
        fill: #352aff;
      }
    </style>
  </defs>
  <path id="path478" class="st0" d="M6.1,39.4c-3.1,3.1-3.1,8.2,0,11.3l35.1,35.1c3.1,3.1,8.2,3.1,11.3,0l35.1-35.1c3.1-3.1,3.1-8.2,0-11.3L52.5,4.3c-3.1-3.1-8.2-3.1-11.3,0L6.1,39.4Z" inkscape:connector-curvature="0"/>
  <path id="path482" class="st1" d="M52.4,39.4c-3.1,3.1-3.1,8.2,0,11.3l35.1,35.1c3.1,3.1,8.2,3.1,11.3,0l35.1-35.1c3.1-3.1,3.1-8.2,0-11.3L98.8,4.3c-3.1-3.1-8.2-3.1-11.3,0l-35.1,35.1Z" inkscape:connector-curvature="0"/>
</svg>