<?xml version="1.0" encoding="UTF-8"?>
<svg id="svg3409" xmlns="http://www.w3.org/2000/svg" version="1.1" xmlns:cc="http://creativecommons.org/ns#" xmlns:dc="http://purl.org/dc/elements/1.1/" xmlns:inkscape="http://www.inkscape.org/namespaces/inkscape" xmlns:rdf="http://www.w3.org/1999/02/22-rdf-syntax-ns#" xmlns:sodipodi="http://sodipodi.sourceforge.net/DTD/sodipodi-0.dtd" xmlns:svg="http://www.w3.org/2000/svg" viewBox="0 0 140 90">
  <!-- Generator: Adobe Illustrator 29.0.1, SVG Export Plug-In . SVG Version: 2.1.0 Build 192)  -->
  <defs>
    <style>
      .st0 {
        fill: #eb001b;
      }

      .st1 {
        fill: #ff5a00;
      }

      .st2 {
        fill: #f79e1b;
      }
    </style>
  </defs>
  <rect id="rect19" class="st1" x="52" y="12.7" width="35.9" height="64.6"/>
  <path class="st0" d="M54.4,45c0-13.1,6.2-24.8,15.6-32.3-7-5.5-15.7-8.8-25.3-8.8C22,3.9,3.6,22.3,3.6,45s18.4,41.1,41.1,41.1,18.4-3.3,25.3-8.8c-9.5-7.4-15.6-19.2-15.6-32.3Z" inkscape:connector-curvature="0"/>
  <path id="path22" class="st2" d="M136.4,45c0,22.7-18.4,41.1-41.1,41.1s-18.4-3.3-25.3-8.8c9.6-7.5,15.6-19.2,15.6-32.3s-6.2-24.8-15.6-32.3c7-5.5,15.7-8.8,25.3-8.8,22.7,0,41.1,18.5,41.1,41.1Z" inkscape:connector-curvature="0"/>
</svg>