<?xml version="1.0" encoding="UTF-8"?>
<svg id="Layer_1" xmlns="http://www.w3.org/2000/svg" version="1.1" xmlns:v="https://vecta.io/nano" viewBox="0 0 140 90">
  <!-- Generator: Adobe Illustrator 29.0.1, SVG Export Plug-In . SVG Version: 2.1.0 Build 192)  -->
  <defs>
    <style>
      .st0 {
        fill: #003087;
      }

      .st1 {
        fill: #0070e0;
      }

      .st2 {
        fill: #001c64;
      }
    </style>
  </defs>
  <path class="st2" d="M62.8,20.4c-1.2,0-2.2.8-2.3,2l-3.9,24.6c.2-1.1,1.2-2,2.3-2h11.4c11.4,0,21.2-8.3,22.9-19.7.1-.8.2-1.7.2-2.6-2.9-1.5-6.3-2.4-10.1-2.4h-20.6Z"/>
  <path class="st1" d="M93.4,22.8c0,.9,0,1.7-.2,2.6-1.8,11.3-11.5,19.7-22.9,19.7h-11.4c-1.2,0-2.2.8-2.3,2l-3.6,22.6-2.2,14.2c-.2,1,.5,2,1.6,2.2.1,0,.2,0,.3,0h12.3c1.2,0,2.2-.8,2.3-2l3.3-20.6c.2-1.1,1.2-2,2.3-2h7.3c11.4,0,21.2-8.3,22.9-19.7,1.3-8-2.8-15.3-9.7-19h0Z"/>
  <path class="st0" d="M48.7,4c-1.2,0-2.2.8-2.3,2l-9.7,61.4c-.2,1.2.7,2.2,1.9,2.2h14.4l3.6-22.6,3.9-24.6c.2-1.1,1.2-2,2.3-2h20.6c3.7,0,7.2.9,10.1,2.4.2-10.3-8.3-18.8-20-18.8h-24.7Z"/>
</svg>