<?xml version="1.0" encoding="UTF-8"?>
<svg id="Layer_1" xmlns="http://www.w3.org/2000/svg" version="1.1" xmlns:cc="http://creativecommons.org/ns#" xmlns:dc="http://purl.org/dc/elements/1.1/" xmlns:inkscape="http://www.inkscape.org/namespaces/inkscape" xmlns:rdf="http://www.w3.org/1999/02/22-rdf-syntax-ns#" xmlns:sodipodi="http://sodipodi.sourceforge.net/DTD/sodipodi-0.dtd" xmlns:svg="http://www.w3.org/2000/svg" viewBox="0 0 200 90">
  <!-- Generator: Adobe Illustrator 29.0.1, SVG Export Plug-In . SVG Version: 2.1.0 Build 192)  -->
  <defs>
    <style>
      .st0 {
        fill: #faa61a;
      }

      .st1 {
        fill: #00579f;
      }
    </style>
  </defs>
  <sodipodi:namedview id="namedview19" bordercolor="#666666" borderopacity="1" gridtolerance="10" guidetolerance="10" inkscape:current-layer="Layer_1" inkscape:cx="34.690897" inkscape:cy="131.15483" inkscape:pageopacity="0" inkscape:pageshadow="2" inkscape:window-height="705" inkscape:window-maximized="1" inkscape:window-width="1366" inkscape:window-x="-8" inkscape:window-y="-8" inkscape:zoom="0.35355339" objecttolerance="10" pagecolor="#ffffff" showgrid="false"/>
  <g id="g4158">
    <polygon id="polygon9" class="st1" points="86.9 75.8 71 75.8 81 14.4 96.9 14.4 86.9 75.8"/>
    <path id="path11" class="st1" d="M144.5,15.9c-3.1-1.2-8.1-2.6-14.3-2.6-15.7,0-26.7,8.4-26.8,20.3-.1,8.8,7.9,13.7,13.9,16.7,6.1,3,8.2,5,8.2,7.7,0,4.1-5,6-9.5,6s-9.7-1-14.9-3.3l-2.1-1-2.2,13.8c3.7,1.7,10.6,3.2,17.7,3.3,16.7,0,27.5-8.2,27.7-21,0-7-4.2-12.4-13.3-16.7-5.6-2.8-9-4.7-9-7.6,0-2.6,2.9-5.3,9.2-5.3,5.2-.1,9,1.1,11.8,2.4l1.4.7,2.2-13.3h0Z" inkscape:connector-curvature="0"/>
    <path id="path13" class="st1" d="M165.6,54.1c1.3-3.5,6.3-17.2,6.3-17.2,0,.1,1.3-3.6,2.1-5.9l1.1,5.3s3,14.7,3.7,17.8h-13.2ZM185.3,14.4h-12.3c-3.8,0-6.7,1.1-8.3,5.1l-23.6,56.4h16.7s2.7-7.6,3.3-9.2h20.4c.5,2.2,1.9,9.2,1.9,9.2h14.7l-12.8-61.5h0Z" inkscape:connector-curvature="0"/>
    <path id="path15" class="st1" d="M57.8,14.4l-15.6,41.9-1.7-8.5c-2.9-9.8-11.9-20.5-22-25.8l14.3,53.7h16.8l25-61.4h-16.8Z" inkscape:connector-curvature="0"/>
    <path id="path17" class="st0" d="M27.7,14.4H2.2l-.3,1.2c19.9,5.1,33.2,17.4,38.6,32.2l-5.6-28.2c-.9-3.9-3.7-5-7.2-5.2h0Z" inkscape:connector-curvature="0"/>
  </g>
</svg>