<?xml version="1.0" encoding="UTF-8"?>
<svg id="Layer_1" xmlns="http://www.w3.org/2000/svg" version="1.1" xmlns:xlink="http://www.w3.org/1999/xlink" viewBox="0 0 671.43 370.21">
  <!-- Generator: Adobe Illustrator 29.0.1, SVG Export Plug-In . SVG Version: 2.1.0 Build 192)  -->
  <defs>
    <style>
      .st0 {
        fill: #f3f4f6;
      }

      .st1 {
        fill: none;
      }

      .st2 {
        fill: #e5e5e5;
      }

      .st3 {
        fill: #d3d3d3;
      }

      .st4 {
        clip-path: url(#clippath);
      }
    </style>
    <clipPath id="clippath">
      <rect class="st1" width="671.43" height="370.21"/>
    </clipPath>
  </defs>
  <g class="st4">
    <path class="st0" d="M671.42,185.11C668.8,277.41,0,370.21,0,370.21V0s674.04,92.81,671.42,185.11Z"/>
    <polygon class="st2" points="242.95 39.7 576.31 -574.51 630.06 -574.51 495.45 95.25 242.95 39.7"/>
    <polygon class="st2" points="242.95 330.21 576.31 944.42 630.06 944.42 495.45 274.66 242.95 330.21"/>
    <path class="st2" d="M76.89,200.69c139.33,22.68,433.49,1.36,505.85-12.41,3.51-.67,3.51-5.68,0-6.35-72.36-13.77-366.52-35.09-505.85-12.41-17.66,2.88-17.66,28.29,0,31.17Z"/>
    <path class="st3" d="M269.72,201.64c-83.94,0-149.55-3.95-194.01-11.56-4.96-.85-4.96-9.1,0-9.95,44.46-7.61,110.07-11.56,194.01-11.56,115.99,0,236.15,7.32,311.84,14.71,1.93.19,1.93,3.46,0,3.65-75.68,7.39-195.83,14.71-311.8,14.71h-.04Z"/>
  </g>
</svg>