<?xml version="1.0" encoding="UTF-8"?>
<svg id="Layer_1" xmlns="http://www.w3.org/2000/svg" version="1.1" viewBox="0 0 394.38 370.21">
  <!-- Generator: Adobe Illustrator 29.0.1, SVG Export Plug-In . SVG Version: 2.1.0 Build 192)  -->
  <defs>
    <style>
      .st0 {
        fill: #f3f4f6;
      }

      .st1 {
        fill: #d8d8d8;
      }

      .st2 {
        fill: none;
        stroke: #f3f4f6;
        stroke-miterlimit: 10;
        stroke-width: 4px;
      }
    </style>
  </defs>
  <path class="st0" d="M350.08,0c-34.33,0-68.56,3.63-102.09,10.98C158,30.71,0,80.29,0,185.11s158,154.39,247.98,174.12c33.53,7.35,67.76,10.98,102.09,10.98h44.31V0h-44.31Z"/>
  <g>
    <g>
      <g>
        <polygon class="st1" points="262.81 298.69 261.09 319.26 177.95 301.69 208.34 274.68 262.81 298.69"/>
        <polygon class="st1" points="177.91 301.68 208.34 274.68 165.66 185.11 112.34 185.11 177.91 301.68"/>
      </g>
      <line class="st2" x1="209.44" y1="273.65" x2="174.87" y2="304.36"/>
    </g>
    <g>
      <g>
        <polygon class="st1" points="262.81 71.52 261.09 50.95 177.95 68.52 208.34 95.53 262.81 71.52"/>
        <polygon class="st1" points="177.91 68.53 208.34 95.53 165.66 185.11 112.34 185.11 177.91 68.53"/>
      </g>
      <line class="st2" x1="209.44" y1="96.56" x2="174.87" y2="65.85"/>
    </g>
    <line class="st2" x1="170.44" y1="185.11" x2="98.61" y2="185.11"/>
  </g>
</svg>