<?xml version="1.0" encoding="UTF-8"?>
<svg id="Layer_1" xmlns="http://www.w3.org/2000/svg" version="1.1" viewBox="0 0 424.5 136.1">
  <!-- Generator: Adobe Illustrator 29.0.1, SVG Export Plug-In . SVG Version: 2.1.0 Build 192)  -->
  <path d="M12,83.6c-1-.5-2.3-.4-3.2.4l-7.8,6.6c-1.3,1.1-1.4,3.1-.1,4.3l30.4,28.2,34.8-11.8-54.1-27.6Z"/>
  <path d="M376.4,15.1l-120,38.9c-3.2,1-6.7.9-9.9-.4L114.6.2c-1-.4-2.1-.2-2.9.4l-12.2,9.6c-1.3,1-1.5,2.9-.4,4.1l50.9,60.7,4,4.7h0c1.9,2.3.9,5.8-1.9,6.8l-73.7,25-43.3,14.7,4.8,4.4c3.8,3.5,8.7,5.4,13.8,5.4h73.6c5.7,0,11.4-.9,16.8-2.8l246.4-84.1c46.6-15,48.6-51.1-14-34.2Z"/>
</svg>