<?xml version="1.0" encoding="UTF-8"?>
<svg id="svg2" xmlns="http://www.w3.org/2000/svg" version="1.1" xmlns:cc="http://creativecommons.org/ns#" xmlns:dc="http://purl.org/dc/elements/1.1/" xmlns:inkscape="http://www.inkscape.org/namespaces/inkscape" xmlns:rdf="http://www.w3.org/1999/02/22-rdf-syntax-ns#" xmlns:sodipodi="http://sodipodi.sourceforge.net/DTD/sodipodi-0.dtd" xmlns:svg="http://www.w3.org/2000/svg" viewBox="0 0 100 80">
  <!-- Generator: Adobe Illustrator 29.0.1, SVG Export Plug-In . SVG Version: 2.1.0 Build 192)  -->
  <defs>
    <style>
      .st0 {
        fill: #575757;
      }
    </style>
  </defs>
  <g id="layer1" inkscape:groupmode="layer" inkscape:label="Layer 1">
    <g>
      <polygon class="st0" points="70.9 30.6 74.2 30.6 72.5 26.5 70.9 30.6"/>
      <path class="st0" d="M48.6,26.4h-3.4v2.5h3.4c.6,0,1.4-.5,1.4-1.2s-.6-1.2-1.4-1.2h0Z"/>
      <path class="st0" d="M86.5,21.9v2.8l-1.9-2.8h-6.7v4.9l-2.1-4.8h-11.7c-3.1,0-5,1.7-5,1.7v-1.8H22.9l-1.2,3.5-1.3-3.5h-8.1v4.9l-2.1-4.9H3.7L0,30.6v7h4.6l1-2.5h2.7l1,2.5h37.7v-2.5l2,2.5h10.1v-1.7s1.7,1.7,4.4,1.7h6.7l1-2.5h2.7l1,2.5h9.9v-2.8l1.8,2.8h6.8v-15.7h-6.8ZM10.6,35.5l-.9-2.4h-5.4l-.9,2.4H0l5.1-11.8h3.8l5.1,11.8h-3.4,0ZM29,35.5h-2.9v-8.7l-3.1,8.7h-2.6l-3.1-8.7v8.7h-2.9v-11.8h4.7s2.7,7.6,2.7,7.6l2.7-7.6h4.6v11.8ZM40.6,26.4h-6.6v2h6.5v2.5h-6.5v2.1h6.6v2.6h-9.6v-11.8h9.6v2.6ZM50,35.5l-3.5-4.2h-1.2v4.2h-2.9v-11.8h6.5c2.2,0,4.1,1.3,4.1,3.8s-1.6,3.5-3.2,3.6l3.9,4.3h-3.6ZM57.1,35.5h-3v-11.8h3v11.8ZM64.3,35.5h-.7c-3.1,0-5-2.5-5-5.8s1.9-5.9,5.8-5.9h3.2v2.8h-3.4c-1.6,0-2.7,1.3-2.7,3.2s1.3,3.2,3.2,3.2h.8l-1.2,2.6h0ZM76.2,35.5l-.9-2.4h-5.4l-.9,2.4h-3.3l5.1-11.8h3.8l5.1,11.8h-3.4,0ZM91.3,35.5h-3.6l-4.9-7.6v7.6h-2.9v-11.8h3.7l4.8,7.4v-7.4h2.9v11.8Z"/>
      <polygon class="st0" points="5.3 30.6 8.6 30.6 6.9 26.5 5.3 30.6"/>
    </g>
    <g>
      <path class="st0" d="M50.8,47h-3.3v2.7h3.2c.9,0,1.5-.6,1.5-1.4s-.6-1.4-1.5-1.4Z"/>
      <path class="st0" d="M62.8,47h-3.4v2.5h3.4c.6,0,1.4-.5,1.4-1.2s-.6-1.2-1.4-1.2h0Z"/>
      <path class="st0" d="M93.9,47c-.9,0-1.2.5-1.2,1s.4,1,1.1,1h2.8c1.9,0,3,.8,3.4,2v-6.3l-1.1,2.4h-5Z"/>
      <path class="st0" d="M96.4,56.1h-6.3v-2.6h5.9c.9,0,1.2-.5,1.2-1s-.4-1-1.2-1h-2.7c-2.3,0-3.6-1.4-3.6-3.5s1.2-3.7,4.6-3.7h5.6v-1.9h-60.3l-1.8,2.3-1.8-2.3h-16.6v15.7h16.5l1.8-2.4,1.8,2.4h10v-3.6h2.2c1.9,0,2.8-.6,2.8-.6v4.2h6.6v-2.5l2,2.5h33.4c1.8,0,3.4-1.1,3.4-1.1v-3.2c-.5,1.3-1.7,2.3-3.6,2.3h0ZM31,47h-6.6v2h6.5v2.5h-6.5v2.1h6.6v2.6h-9.6v-11.8h9.6v2.6ZM44.2,56.1h-3.7l-2.8-3.6-2.7,3.6h-3.6l4.7-5.8-4.8-6h3.7l2.8,3.7,2.9-3.7h3.6l-4.7,5.9,4.7,5.9h0ZM50.7,52.4h-3.1v3.7h-3v-11.8h6.5c2.7,0,4.2,1.7,4.2,3.9s-2,4.1-4.6,4.1h0ZM64.2,56.1l-3.5-4.2h-1.2v4.2h-2.9v-11.8h6.5c2.2,0,4.1,1.3,4.1,3.8s-1.6,3.5-3.2,3.6l3.9,4.3h-3.6ZM78,47h-6.6v2h6.4v2.5h-6.4v2.1h6.6v2.6h-9.6v-11.8h9.6v2.6ZM85.6,56.1h-6.3v-2.6h5.9c.9,0,1.2-.5,1.2-1s-.4-1-1.2-1h-2.7c-2.3,0-3.6-1.4-3.6-3.5s1.2-3.7,4.6-3.7h5.7l-1.2,2.6h-5c-.9,0-1.2.5-1.2,1s.4,1,1.1,1h2.8c2.6,0,3.7,1.5,3.7,3.4s-1.2,3.7-3.8,3.7h0Z"/>
    </g>
  </g>
</svg>