<?xml version="1.0" encoding="UTF-8"?>
<svg id="svg2" xmlns="http://www.w3.org/2000/svg" version="1.1" xmlns:cc="http://creativecommons.org/ns#" xmlns:dc="http://purl.org/dc/elements/1.1/" xmlns:inkscape="http://www.inkscape.org/namespaces/inkscape" xmlns:rdf="http://www.w3.org/1999/02/22-rdf-syntax-ns#" xmlns:sodipodi="http://sodipodi.sourceforge.net/DTD/sodipodi-0.dtd" xmlns:svg="http://www.w3.org/2000/svg" viewBox="0 0 200 80">
  <!-- Generator: Adobe Illustrator 29.0.1, SVG Export Plug-In . SVG Version: 2.1.0 Build 192)  -->
  <defs>
    <style>
      .st0 {
        fill: #7c7c7c;
      }

      .st1 {
        fill: #575757;
      }
    </style>
  </defs>
  <g id="g470">
    <path id="path478" class="st0" d="M7.7,37.5c-1.4,1.4-1.4,3.6,0,4.9l15.3,15.3c1.4,1.4,3.6,1.4,4.9,0l15.3-15.3c1.4-1.4,1.4-3.6,0-4.9l-15.3-15.3c-1.4-1.4-3.6-1.4-4.9,0,0,0-15.3,15.3-15.3,15.3Z" inkscape:connector-curvature="0"/>
    <path id="path482" class="st1" d="M27.9,37.5c-1.4,1.4-1.4,3.6,0,4.9l15.3,15.3c1.4,1.4,3.6,1.4,4.9,0l15.3-15.3c1.4-1.4,1.4-3.6,0-4.9l-15.3-15.3c-1.4-1.4-3.6-1.4-4.9,0,0,0-15.3,15.3-15.3,15.3Z" inkscape:connector-curvature="0"/>
  </g>
  <g>
    <path class="st1" d="M193.3,42.5v1c-.2,2.8-2.9,6-5.8,6h-8.3v-18.8h8.4c2,0,4.4,2.1,5.1,3.8s.5,6,.5,8h.1ZM183.9,45.4c1.7.3,4.3.2,4.7-1.9s.3-5.8-.1-7.2-1.4-1.5-2.1-1.5h-2.4v10.6h0Z"/>
    <path class="st1" d="M102.7,30.7c5.5.6,7.3,8.3,2.3,10.9l3.9,7.9h-5.3l-3.2-6.9h-1.8v6.9h-3.8s-.6-.2-.7-.3v-18.5h8.7,0ZM98.8,34.9l-.2.2v3.5l.2.2h2.6c.2,0,1.1-.4,1.3-.5.8-.7.8-2.3,0-3s-.6-.4-.7-.4h-3.3,0Z"/>
    <path class="st1" d="M170.7,30.7c.8.1,2.3.8,2.9,1.4,3.2,2.5,2.8,7.6-.7,9.5v.2l3.8,7.7-5.4-.2-3.2-6.8h-1.7v6.9h-4.6v-18.8h8.9ZM166.5,38.8h2.7c.2,0,1.1-.4,1.3-.5.9-.7.9-2.2.1-3s-.6-.4-.7-.4h-3.4v3.9h0Z"/>
    <path class="st1" d="M142.7,49.5l6.6-18.8h3.6l6.8,18.8h-4.5l-1-2.7c0-.2-.3-.2-.4-.2-1.7-.2-3.8,0-5.5.2l-1.1,2.7h-4.6,0ZM152.9,42.9c-.6-1.3-.8-3.1-1.3-4.3s0-.4-.3-.3c-.2,0-1.6,4.1-1.6,4.7h3.3,0Z"/>
    <path class="st1" d="M126.7,49.5h-4.6l-1-2.8h-6l-.8,2.8h-4.7l6.8-18.8h3.5c0,.1,6.7,18.8,6.7,18.8h0ZM119.8,42.9v-.5c-.2-.9-.9-3.2-1.2-4s0-.3-.3-.3l-1.7,4.8c1.1,0,2.2.3,3.3,0h-.1Z"/>
    <path class="st1" d="M85.9,42.7c-.7-.6-4.3-.8-5.6-1.3-4.1-1.7-3.9-7.6-.3-9.8,2.5-1.5,7.6-1.4,9.9.5,2.3,1.9.8.5.5.9s-2.5,2.5-2.7,2.5c-1.4-.8-3-1.3-4.6-.8s-1.9,2.2-.5,2.9c2.5,1.1,6,0,7.7,3.1,1.6,3.1.4,6.9-2.8,8.3s-8.6,1-11-1.7l2.8-2.9c1.6,1.1,4.5,1.8,6.3.9s1.1-1.9.4-2.6c0,0,0,0-.1,0Z"/>
    <path class="st1" d="M142.3,36.6h-4.8c-.2-2.1-3.5-2.7-4.5-.9s-.7,5.1-.5,6.6.3,2.9,1.9,3.3c1.8.4,2.3-.6,3.2-1.9h4.6c-.7,3.1-2.7,5.6-6.1,5.9-5.4.5-8.1-2.4-8.3-7.6s-.5-9.7,4.8-11.2,8.7,1,9.6,5.7h.1Z"/>
    <rect class="st1" x="69.7" y="30.7" width="4.6" height="18.8"/>
  </g>
</svg>