<?xml version="1.0" encoding="UTF-8"?>
<svg id="svg3409" xmlns="http://www.w3.org/2000/svg" version="1.1" xmlns:cc="http://creativecommons.org/ns#" xmlns:dc="http://purl.org/dc/elements/1.1/" xmlns:inkscape="http://www.inkscape.org/namespaces/inkscape" xmlns:rdf="http://www.w3.org/1999/02/22-rdf-syntax-ns#" xmlns:sodipodi="http://sodipodi.sourceforge.net/DTD/sodipodi-0.dtd" xmlns:svg="http://www.w3.org/2000/svg" viewBox="0 0 100 80">
  <!-- Generator: Adobe Illustrator 29.0.1, SVG Export Plug-In . SVG Version: 2.1.0 Build 192)  -->
  <defs>
    <style>
      .st0 {
        fill: #7c7c7c;
      }

      .st1 {
        fill: #606060;
      }

      .st2 {
        fill: #575757;
      }
    </style>
  </defs>
  <path class="st2" d="M21.4,74.7v-4.6c0-1.8-1.1-2.9-2.9-2.9s-1.9.3-2.6,1.3c-.5-.8-1.3-1.3-2.5-1.3s-1.5.2-2.2,1.1v-.9h-1.6v7.4h1.6v-4.1c0-1.3.7-1.9,1.8-1.9s1.6.7,1.6,1.9v4.1h1.6v-4.1c0-1.3.8-1.9,1.8-1.9s1.6.7,1.6,1.9v4.1h1.8ZM45.4,67.3h-2.6v-2.2h-1.6v2.2h-1.5v1.5h1.5v3.4c0,1.7.7,2.7,2.5,2.7s1.5-.2,2-.5l-.5-1.4c-.5.3-1,.4-1.4.4-.8,0-1.1-.5-1.1-1.2v-3.3h2.6v-1.5h0ZM59.1,67.1c-.9,0-1.5.5-1.9,1.1v-.9h-1.6v7.4h1.6v-4.2c0-1.2.5-1.9,1.5-1.9s.7,0,1,.2l.5-1.5h-1.1v-.2ZM38.4,67.9c-.8-.5-1.8-.8-3-.8-1.8,0-3.1.9-3.1,2.4s.9,1.9,2.5,2.2h.8c.8.2,1.3.5,1.3.9s-.6.9-1.7.9-1.9-.4-2.5-.8l-.8,1.2c.8.6,2,.9,3.2.9,2.2,0,3.4-1,3.4-2.4s-1-2-2.5-2.2h-.8c-.7-.2-1.2-.3-1.2-.8s.5-.8,1.4-.8,1.8.4,2.3.6l.7-1.3h0ZM81.4,67.1c-.9,0-1.5.5-1.9,1.1v-.9h-1.6v7.4h1.6v-4.2c0-1.2.5-1.9,1.5-1.9s.7,0,1,.2l.5-1.5h-1.1v-.2ZM60.7,71c0,2.2,1.5,3.9,3.9,3.9s1.8-.2,2.6-.8l-.8-1.3c-.6.5-1.2.7-1.9.7-1.3,0-2.2-.9-2.2-2.4s.9-2.3,2.2-2.4c.7,0,1.3.2,1.9.7l.8-1.3c-.8-.6-1.5-.8-2.6-.8-2.4,0-3.9,1.6-3.9,3.9h0v-.2h0ZM75.7,71v-3.7h-1.6v.9c-.5-.7-1.3-1.1-2.3-1.1-2.1,0-3.7,1.6-3.7,3.9s1.6,3.9,3.7,3.9,1.8-.4,2.3-1.1v.9h1.6v-3.7h0ZM69.7,71c0-1.3.8-2.4,2.2-2.4s2.2,1,2.2,2.4-.9,2.4-2.2,2.4-2.2-1.1-2.2-2.4h0ZM50.4,67.1c-2.2,0-3.7,1.5-3.7,3.9s1.5,3.9,3.8,3.9,2.2-.3,3-1l-.8-1.2c-.6.5-1.4.8-2.2.8s-2-.5-2.2-1.8h5.5v-.6c0-2.4-1.3-3.9-3.4-3.9h0ZM50.4,68.5c1,0,1.7.6,1.8,1.8h-3.9c.2-1,.8-1.8,2-1.8h.1ZM90.5,71v-6.6h-1.6v3.9c-.5-.7-1.3-1.1-2.3-1.1-2.1,0-3.7,1.6-3.7,3.9s1.6,3.9,3.7,3.9,1.8-.4,2.3-1.1v.9h1.6v-3.7h0ZM84.6,71c0-1.3.8-2.4,2.2-2.4s2.2,1,2.2,2.4-.9,2.4-2.2,2.4-2.2-1.1-2.2-2.4h0ZM30.5,71v-3.7h-1.6v.9c-.5-.7-1.3-1.1-2.3-1.1-2.1,0-3.7,1.6-3.7,3.9s1.6,3.9,3.7,3.9,1.8-.4,2.3-1.1v.9h1.6v-3.7h0ZM24.5,71c0-1.3.8-2.4,2.2-2.4s2.2,1,2.2,2.4-.9,2.4-2.2,2.4-2.2-1.1-2.2-2.4Z" inkscape:connector-curvature="0"/>
  <g>
    <rect id="rect19" class="st1" x="37.9" y="11.1" width="24.3" height="43.7"/>
    <path class="st2" d="M39.5,32.9c0-8.9,4.2-16.7,10.6-21.8-4.7-3.7-10.6-5.9-17.1-5.9-15.4,0-27.8,12.4-27.8,27.8s12.4,27.8,27.8,27.8c8-.3,12.4-2.2,17.1-5.9-6.4-5-10.6-13-10.6-21.8v-.2Z" inkscape:connector-curvature="0"/>
    <path id="path22" class="st0" d="M95,32.9c0,15.4-12.4,27.8-27.8,27.8-10.1,0-12.4-2.2-17.1-5.9,6.5-5.1,10.6-13,10.6-21.8s-4.2-16.7-10.6-21.8c4.7-3.7,10.6-5.9,17.1-5.9,15.4,0,27.8,12.5,27.8,27.8v-.2Z" inkscape:connector-curvature="0"/>
  </g>
</svg>