<?xml version="1.0" encoding="UTF-8"?>
<svg id="Layer_1" xmlns="http://www.w3.org/2000/svg" version="1.1" xmlns:v="https://vecta.io/nano" viewBox="0 0 200 80">
  <!-- Generator: Adobe Illustrator 29.0.1, SVG Export Plug-In . SVG Version: 2.1.0 Build 192)  -->
  <defs>
    <style>
      .st0 {
        fill: #7c7c7c;
      }

      .st1 {
        fill: #575757;
      }
    </style>
  </defs>
  <path class="st1" d="M17.1,15.8c-.5,0-1,.4-1,.9l-6.1,38.4c0,.5.3,1,.8,1.1h7.4c.5,0,1-.4,1-.9l1.8-11.3c0-.5.5-.9,1-.9h6.5c7.6,0,14.1-5.6,15.3-13.1,1.2-7.6-4.7-14.2-13.2-14.3h-13.6.1ZM24.1,24.3h5.2c4.3,0,5.7,2.5,5.3,5.3s-2.6,4.9-6.8,4.9h-5.3l1.6-10.2ZM58.5,26.9c-1.8,0-3.9.4-6.2,1.4-5.4,2.2-8,6.9-9,10.2,0,0-3.5,10.3,4.4,15.9,0,0,7.3,5.4,15.5-.3v.9c-.2.5,0,1,.7,1.1h7c.5,0,1-.4,1-.9l4.1-26.3c0-.5-.3-1-.8-1.1h-7c-.5,0-1,.4-1,.9l-.2,1.4s-3-3.3-8.4-3.2h0ZM58.7,35.2c.8,0,1.5,0,2.1.3,2.9.9,4.6,3.8,4.1,6.8-.6,3.8-3.7,6.5-7.7,6.5s-1.5,0-2.1-.3c-2.9-.9-4.6-3.8-4.1-6.8.6-3.8,3.7-6.5,7.7-6.5h0Z"/>
  <path class="st0" d="M115.3,15.8c-.5,0-1,.4-1,.9l-6.1,38.4c0,.5.3,1,.8,1.1h7.4c.5,0,1-.4,1-.9l1.8-11.3c0-.5.5-.9,1-.9h6.5c7.6,0,14.1-5.6,15.3-13.1,1.2-7.6-4.7-14.2-13.2-14.3h-13.6,0ZM122.3,24.3h5.2c4.3,0,5.7,2.5,5.3,5.3s-2.6,4.9-6.8,4.9h-5.3s1.6-10.2,1.6-10.2ZM156.6,26.9c-1.8,0-3.9.4-6.2,1.4-5.4,2.2-8,6.9-9,10.2,0,0-3.5,10.3,4.4,15.9,0,0,7.3,5.4,15.5-.3v.9c-.2.5.1,1,.7,1.1h7c.5,0,1-.4,1-.9l4.1-26.3c0-.5-.3-1-.8-1.1h-7c-.5,0-1,.4-1,.9l-.2,1.4s-3-3.3-8.4-3.2h-.1ZM156.8,35.2c.8,0,1.5,0,2.1.3,2.9.9,4.6,3.8,4.1,6.8-.6,3.8-3.7,6.5-7.7,6.5s-1.5,0-2.1-.3c-2.9-.9-4.6-3.8-4.1-6.8.6-3.8,3.7-6.5,7.7-6.5h0Z"/>
  <path class="st1" d="M79.2,27.9c-.5,0-.9.5-.8,1l7.5,23.2-6.8,10.9c-.3.5,0,1.2.7,1.2h8c.5,0,.9-.2,1.1-.6l20.9-34.5c.3-.5,0-1.2-.7-1.2h-8c-.5,0-.9.2-1.1.7l-8.2,13.9-4.2-13.8c0-.4-.5-.8-1-.8,0,0-7.4,0-7.4,0Z"/>
  <path class="st0" d="M181.8,15.8c-.5,0-1,.4-1,.9l-6.1,38.4c0,.5.3,1,.8,1.1h7.4c.5,0,1-.4,1-.9l6.1-38.4c0-.5-.3-1-.8-1.1h-.2s-7.2,0-7.2,0Z"/>
</svg>