<?xml version="1.0" encoding="UTF-8"?>
<svg id="Layer_1" xmlns="http://www.w3.org/2000/svg" version="1.1" xmlns:cc="http://creativecommons.org/ns#" xmlns:dc="http://purl.org/dc/elements/1.1/" xmlns:inkscape="http://www.inkscape.org/namespaces/inkscape" xmlns:rdf="http://www.w3.org/1999/02/22-rdf-syntax-ns#" xmlns:sodipodi="http://sodipodi.sourceforge.net/DTD/sodipodi-0.dtd" xmlns:svg="http://www.w3.org/2000/svg" viewBox="0 0 200 80">
  <!-- Generator: Adobe Illustrator 29.0.1, SVG Export Plug-In . SVG Version: 2.1.0 Build 192)  -->
  <defs>
    <style>
      .st0 {
        fill: #7c7c7c;
      }

      .st1 {
        fill: #575757;
      }
    </style>
  </defs>
  <sodipodi:namedview id="namedview19" bordercolor="#666666" borderopacity="1" gridtolerance="10" guidetolerance="10" inkscape:current-layer="Layer_1" inkscape:cx="34.690897" inkscape:cy="131.15483" inkscape:pageopacity="0" inkscape:pageshadow="2" inkscape:window-height="705" inkscape:window-maximized="1" inkscape:window-width="1366" inkscape:window-x="-8" inkscape:window-y="-8" inkscape:zoom="0.35355339" objecttolerance="10" pagecolor="#ffffff" showgrid="false"/>
  <g id="g4158">
    <polygon id="polygon9" class="st1" points="87.9 68.6 73.1 68.6 82.3 11.6 97.1 11.6 87.9 68.6"/>
    <path id="path11" class="st1" d="M141.3,13c-2.9-1.2-7.5-2.4-13.2-2.4-14.6,0-24.8,7.8-24.9,18.9,0,8.2,7.3,12.7,12.9,15.5,5.7,2.8,7.6,4.6,7.6,7.1,0,3.8-4.6,5.6-8.9,5.6s-9-.9-13.8-3l-1.9-.9-2.1,12.8c3.5,1.6,9.8,3,16.4,3,15.5,0,25.5-7.6,25.7-19.5,0-6.5-3.9-11.5-12.4-15.5-5.2-2.6-8.3-4.4-8.3-7s2.7-4.9,8.5-4.9c4.8-.1,8.3,1,11,2.2l1.3.6,2-12.3h0v-.2Z" inkscape:connector-curvature="0"/>
    <path id="path13" class="st1" d="M160.9,48.4c1.2-3.3,5.9-15.9,5.9-15.9,0,0,1.2-3.3,1.9-5.5l1,4.9s2.8,13.6,3.4,16.5h-12.3.1ZM179.1,11.6h-11.4c-3.5,0-6.2,1-7.7,4.7l-21.9,52.3h15.5s2.5-7,3.1-8.6h18.9c.4,2,1.8,8.6,1.8,8.6h13.6l-11.9-57h0Z" inkscape:connector-curvature="0"/>
    <path id="path15" class="st1" d="M60.8,11.6l-14.4,38.9-1.6-7.9c-2.7-9.1-11-19-20.4-23.9l13.2,49.9h15.6l23.2-56.9h-15.6Z" inkscape:connector-curvature="0"/>
    <path id="path17" class="st0" d="M33,11.6H9.3l-.2,1.2c18.5,4.7,30.8,16.1,35.8,29.8l-5.2-26.2c-.8-3.6-3.5-4.7-6.7-4.8h0Z" inkscape:connector-curvature="0"/>
  </g>
</svg>